<svg width="22" height="28" viewBox="0 0 22 28" fill="none" xmlns="http://www.w3.org/2000/svg">
<path d="M6 4V19C6 19.663 6.26339 20.2989 6.73223 20.7678C7.20107 21.2366 7.83696 21.5 8.5 21.5H18.5C19.163 21.5 19.7989 21.2366 20.2678 20.7678C20.7366 20.2989 21 19.663 21 19V8.0525C21 7.71945 20.9334 7.38976 20.8041 7.08281C20.6749 6.77585 20.4857 6.4978 20.2475 6.265L16.1038 2.2125C15.6367 1.75582 15.0095 1.50008 14.3563 1.5H8.5C7.83696 1.5 7.20107 1.76339 6.73223 2.23223C6.26339 2.70107 6 3.33696 6 4V4Z" stroke="black" stroke-width="2" stroke-linecap="round" stroke-linejoin="round"/>
<path d="M16 21.5V24C16 24.663 15.7366 25.2989 15.2678 25.7678C14.7989 26.2366 14.163 26.5 13.5 26.5H3.5C2.83696 26.5 2.20107 26.2366 1.73223 25.7678C1.26339 25.2989 1 24.663 1 24V10.25C1 9.58696 1.26339 8.95107 1.73223 8.48223C2.20107 8.01339 2.83696 7.75 3.5 7.75H6" stroke="black" stroke-width="2" stroke-linecap="round" stroke-linejoin="round"/>
</svg>
