<svg width="22" height="22" viewBox="0 0 22 22" fill="none" xmlns="http://www.w3.org/2000/svg">
<path d="M11 21V12M11 21L8.49996 19M11 21L13.5 19M4.03396 8.117C3.08817 8.355 2.26184 8.93016 1.71021 9.73445C1.15859 10.5387 0.919644 11.5168 1.03827 12.4848C1.15689 13.4528 1.62492 14.3442 2.35443 14.9915C3.08393 15.6388 4.02469 15.9974 4.99996 16H5.99996" stroke="#2F2F2F" stroke-width="2" stroke-linecap="round" stroke-linejoin="round"/>
<path d="M14.8299 6.13802C14.4881 4.7846 13.6445 3.61176 12.47 2.85728C11.2956 2.1028 9.87819 1.82311 8.50517 2.07493C7.13215 2.32674 5.90625 3.09121 5.07598 4.21336C4.2457 5.33552 3.87318 6.73139 4.03392 8.11802C4.03392 8.11802 4.18692 9.00002 4.49992 9.50002" stroke="#2F2F2F" stroke-width="2" stroke-linecap="round" stroke-linejoin="round"/>
<path d="M16 16C16.706 15.9995 17.404 15.8495 18.0479 15.5599C18.6917 15.2702 19.267 14.8475 19.7357 14.3195C20.2045 13.7915 20.5561 13.1702 20.7674 12.4965C20.9787 11.8229 21.045 11.1121 20.9618 10.4109C20.8786 9.70982 20.6479 9.03427 20.2848 8.42874C19.9217 7.82321 19.4345 7.30145 18.8552 6.89778C18.276 6.49412 17.6178 6.21772 16.924 6.08676C16.2302 5.9558 15.5166 5.97327 14.83 6.138L13.5 6.5" stroke="#2F2F2F" stroke-width="2" stroke-linecap="round" stroke-linejoin="round"/>
</svg>
