<svg width="475" height="358" viewBox="0 0 475 358" fill="none" xmlns="http://www.w3.org/2000/svg">
<path d="M65.1708 0.707886H22V51.6034H65.1708V0.707886Z" fill="#E7D1FA"/>
<path d="M109.171 0.707886H66V51.6034H109.171V0.707886Z" fill="#DBBAF7"/>
<path d="M86.3507 51.6034H0V153.405H86.3507V51.6034Z" fill="white"/>
<path d="M109.171 51.6034H66V102.499H109.171V51.6034Z" fill="#D7B3F6"/>
<path d="M43.1708 102.499H0V153.394H43.1708V102.499Z" fill="#FCF9FE"/>
<path d="M175.351 1H89V102.802H175.351V1Z" fill="white"/>
<path d="M129.526 102.499H86.3555V153.394H129.526V102.499Z" fill="#F1E7FF"/>
<path d="M172.697 102.499H129.526V153.394H172.697V102.499Z" fill="#E7D5FF"/>
<path d="M302.223 51.6034H259.052V102.499H302.223V51.6034Z" fill="#EBD9FB"/>
<path d="M302.223 102.499H259.052V153.394H302.223V102.499Z" fill="#AD6EFF"/>
<path d="M345.394 102.499H302.223V153.394H345.394V102.499Z" fill="#F5ECFD"/>
<path d="M388.578 102.499H345.407V153.394H388.578V102.499Z" fill="#A763FF"/>
<path d="M86.3507 153.405H0V255.207H86.3507V153.405Z" fill="white"/>
<path d="M43.1708 153.41H0V204.306H43.1708V153.41Z" fill="#C090FF"/>
<path d="M86.3417 153.41H43.1709V204.306H86.3417V153.41Z" fill="#AC6BFF"/>
<path d="M43.1708 204.306H0V255.201H43.1708V204.306Z" fill="#F5ECFD"/>
<path d="M86.3417 204.306H43.1709V255.201H86.3417V204.306Z" fill="#EDDCFB"/>
<path d="M172.701 153.405H86.3506V255.207H172.701V153.405Z" fill="white"/>
<path d="M129.526 153.41H86.3555V204.306H129.526V153.41Z" fill="#E1C6F8"/>
<path d="M129.526 204.306H86.3555V255.201H129.526V204.306Z" fill="#D2B0FF"/>
<path d="M172.697 204.306H129.526V255.201H172.697V204.306Z" fill="#DEBFF8"/>
<path d="M259.052 153.405H172.701V255.207H259.052V153.405Z" fill="white"/>
<path d="M215.868 153.41H172.697V204.306H215.868V153.41Z" fill="#DEC0F8"/>
<path d="M259.052 153.41H215.881V204.306H259.052V153.41Z" fill="#F4ECFF"/>
<path d="M215.868 204.306H172.697V255.201H215.868V204.306Z" fill="#DFC2F8"/>
<path d="M259.052 204.306H215.881V255.201H259.052V204.306Z" fill="#DDC2FF"/>
<path d="M345.403 153.405H259.052V255.207H345.403V153.405Z" fill="white"/>
<path d="M302.223 153.41H259.052V204.306H302.223V153.41Z" fill="#C293FF"/>
<path d="M345.394 153.41H302.223V204.306H345.394V153.41Z" fill="#E8D3FA"/>
<path d="M302.223 204.306H259.052V255.201H302.223V204.306Z" fill="#D0A5F5"/>
<path d="M345.394 204.306H302.223V255.201H345.394V204.306Z" fill="#D5AFF6"/>
<path d="M388.578 153.41H345.407V204.306H388.578V153.41Z" fill="#C998F3"/>
<path d="M388.578 204.306H345.407V255.201H388.578V204.306Z" fill="#F9F4FE"/>
<path d="M431.749 204.306H388.579V255.201H431.749V204.306Z" fill="#D7B2F6"/>
<path d="M474.92 204.306H431.749V255.201H474.92V204.306Z" fill="#E7D1FA"/>
<path d="M86.3507 255.207H0V357.008H86.3507V255.207Z" fill="white"/>
<path d="M43.1708 255.201H0V306.097H43.1708V255.201Z" fill="#D1A7F5"/>
<path d="M86.3417 255.201H43.1709V306.097H86.3417V255.201Z" fill="#CEA1F4"/>
<path d="M43.1708 306.113H0V357.008H43.1708V306.113Z" fill="#CEA2F4"/>
<path d="M86.3417 306.113H43.1709V357.008H86.3417V306.113Z" fill="#E3CDFF"/>
<path d="M172.701 255.207H86.3506V357.008H172.701V255.207Z" fill="white"/>
<path d="M129.526 255.201H86.3555V306.097H129.526V255.201Z" fill="#D8BAFF"/>
<path d="M172.697 255.201H129.526V306.097H172.697V255.201Z" fill="#C998F3"/>
<path d="M129.526 306.113H86.3555V357.008H129.526V306.113Z" fill="#E2C9F9"/>
<path d="M172.697 306.113H129.526V357.008H172.697V306.113Z" fill="#F3E8FC"/>
<path d="M259.052 255.207H172.701V357.008H259.052V255.207Z" fill="white"/>
<path d="M215.868 255.201H172.697V306.097H215.868V255.201Z" fill="#D8B4F6"/>
<path d="M259.052 255.201H215.881V306.097H259.052V255.201Z" fill="#A158FF"/>
<path d="M215.868 306.113H172.697V357.008H215.868V306.113Z" fill="#DEC5FF"/>
<path d="M259.052 306.113H215.881V357.008H259.052V306.113Z" fill="#994BFF"/>
<path d="M345.403 255.207H259.052V357.008H345.403V255.207Z" fill="white"/>
<path d="M302.223 255.201H259.052V306.097H302.223V255.201Z" fill="#B175FF"/>
<path d="M345.394 255.201H302.223V306.097H345.394V255.201Z" fill="#ECDAFB"/>
<path d="M302.223 306.113H259.052V357.008H302.223V306.113Z" fill="#A864FF"/>
<path d="M345.394 306.113H302.223V357.008H345.394V306.113Z" fill="#C192FF"/>
<path d="M431.754 255.207H345.403V357.008H431.754V255.207Z" fill="white"/>
<path d="M388.578 255.201H345.407V306.097H388.578V255.201Z" fill="#D1A7F5"/>
<path d="M431.749 255.201H388.579V306.097H431.749V255.201Z" fill="#B276FF"/>
<path d="M388.578 306.113H345.407V357.008H388.578V306.113Z" fill="#E0C9FF"/>
<path d="M431.749 306.113H388.579V357.008H431.749V306.113Z" fill="#DABEFF"/>
<path d="M474.92 255.201H431.749V306.097H474.92V255.201Z" fill="#EAD7FA"/>
<path d="M474.92 306.113H431.749V357.008H474.92V306.113Z" fill="#E9D5FA"/>
</svg>
