<svg width="1727" height="510" viewBox="0 0 1727 510" fill="none" xmlns="http://www.w3.org/2000/svg">
<g opacity="0.8">
<path d="M1640.64 407.207L1726.99 407.207L1726.99 305.405L1640.64 305.405L1640.64 407.207Z" fill="white"/>
<path d="M43.1708 152.708H0V203.603H43.1708V152.708Z" fill="#E7D1FA"/>
<path d="M1683.82 356.301L1726.99 356.301L1726.99 305.405L1683.82 305.405L1683.82 356.301Z" fill="#E7D1FA"/>
<path d="M86.3417 152.708H43.1709V203.603H86.3417V152.708Z" fill="#DBBAF7"/>
<path d="M1640.65 356.301L1683.82 356.301L1683.82 305.405L1640.65 305.405L1640.65 356.301Z" fill="#DBBAF7"/>
<path d="M86.3507 203.603H0V305.405H86.3507V203.603Z" fill="white"/>
<path d="M1640.64 305.405L1726.99 305.405L1726.99 203.603L1640.64 203.603L1640.64 305.405Z" fill="white"/>
<path d="M86.3417 203.603H43.1709V254.499H86.3417V203.603Z" fill="#D7B3F6"/>
<path d="M1640.65 305.405L1683.82 305.405L1683.82 254.51L1640.65 254.51L1640.65 305.405Z" fill="#D7B3F6"/>
<path d="M43.1708 254.499H0V305.394H43.1708V254.499Z" fill="#FCF9FE"/>
<path d="M1683.82 254.51L1726.99 254.51L1726.99 203.614L1683.82 203.614L1683.82 254.51Z" fill="#FCF9FE"/>
<path d="M172.701 203.603H86.3506V305.405H172.701V203.603Z" fill="white"/>
<path d="M1554.29 305.405L1640.64 305.405L1640.64 203.603L1554.29 203.603L1554.29 305.405Z" fill="white"/>
<path d="M129.526 254.499H86.3555V305.394H129.526V254.499Z" fill="#F1E7FF"/>
<path d="M1597.46 254.51L1640.63 254.51L1640.63 203.614L1597.46 203.614L1597.46 254.51Z" fill="#F1E7FF"/>
<path d="M172.697 254.499H129.526V305.394H172.697V254.499Z" fill="#E7D5FF"/>
<path d="M1554.29 254.51L1597.46 254.51L1597.46 203.614L1554.29 203.614L1554.29 254.51Z" fill="#E7D5FF"/>
<path d="M302.223 203.603H259.052V254.499H302.223V203.603Z" fill="#EBD9FB"/>
<path d="M302.223 254.499H259.052V305.394H302.223V254.499Z" fill="#AD6EFF"/>
<path d="M345.394 254.499H302.223V305.394H345.394V254.499Z" fill="#F5ECFD"/>
<path d="M388.578 254.499H345.407V305.394H388.578V254.499Z" fill="#A763FF"/>
<path d="M86.3507 305.405H0V407.207H86.3507V305.405Z" fill="white"/>
<path d="M1640.64 203.603L1726.99 203.603L1726.99 101.802L1640.64 101.802L1640.64 203.603Z" fill="white"/>
<path d="M43.1708 305.41H0V356.306H43.1708V305.41Z" fill="#C090FF"/>
<path d="M1683.82 203.598L1726.99 203.598L1726.99 152.703L1683.82 152.703L1683.82 203.598Z" fill="#C090FF"/>
<path d="M86.3417 305.41H43.1709V356.306H86.3417V305.41Z" fill="#AC6BFF"/>
<path d="M1640.65 203.598L1683.82 203.598L1683.82 152.703L1640.65 152.703L1640.65 203.598Z" fill="#AC6BFF"/>
<path d="M43.1708 356.306H0V407.201H43.1708V356.306Z" fill="#F5ECFD"/>
<path d="M1683.82 152.703L1726.99 152.703L1726.99 101.807L1683.82 101.807L1683.82 152.703Z" fill="#F5ECFD"/>
<path d="M86.3417 356.306H43.1709V407.201H86.3417V356.306Z" fill="#EDDCFB"/>
<path d="M1640.65 152.703L1683.82 152.703L1683.82 101.807L1640.65 101.807L1640.65 152.703Z" fill="#EDDCFB"/>
<path d="M172.701 305.405H86.3506V407.207H172.701V305.405Z" fill="white"/>
<path d="M1554.29 203.603L1640.64 203.603L1640.64 101.802L1554.29 101.802L1554.29 203.603Z" fill="white"/>
<path d="M129.526 305.41H86.3555V356.306H129.526V305.41Z" fill="#E1C6F8"/>
<path d="M1597.46 203.598L1640.63 203.598L1640.63 152.703L1597.46 152.703L1597.46 203.598Z" fill="#E1C6F8"/>
<path d="M129.526 356.306H86.3555V407.201H129.526V356.306Z" fill="#D2B0FF"/>
<path d="M1597.46 152.703L1640.63 152.703L1640.63 101.807L1597.46 101.807L1597.46 152.703Z" fill="#D2B0FF"/>
<path d="M172.697 356.306H129.526V407.201H172.697V356.306Z" fill="#DEBFF8"/>
<path d="M1554.29 152.703L1597.46 152.703L1597.46 101.807L1554.29 101.807L1554.29 152.703Z" fill="#DEBFF8"/>
<path d="M259.052 305.405H172.701V407.207H259.052V305.405Z" fill="white"/>
<path d="M215.868 305.41H172.697V356.306H215.868V305.41Z" fill="#DEC0F8"/>
<path d="M259.052 305.41H215.881V356.306H259.052V305.41Z" fill="#F4ECFF"/>
<path d="M215.868 356.306H172.697V407.201H215.868V356.306Z" fill="#DFC2F8"/>
<path d="M259.052 356.306H215.881V407.201H259.052V356.306Z" fill="#DDC2FF"/>
<path d="M345.403 305.405H259.052V407.207H345.403V305.405Z" fill="white"/>
<path d="M302.223 305.41H259.052V356.306H302.223V305.41Z" fill="#C293FF"/>
<path d="M345.394 305.41H302.223V356.306H345.394V305.41Z" fill="#E8D3FA"/>
<path d="M302.223 356.306H259.052V407.201H302.223V356.306Z" fill="#D0A5F5"/>
<path d="M345.394 356.306H302.223V407.201H345.394V356.306Z" fill="#D5AFF6"/>
<path d="M388.578 305.41H345.407V356.306H388.578V305.41Z" fill="#C998F3"/>
<path d="M388.578 356.306H345.407V407.201H388.578V356.306Z" fill="#F9F4FE"/>
<path d="M431.749 356.306H388.579V407.201H431.749V356.306Z" fill="#D7B2F6"/>
<path d="M474.92 356.306H431.749V407.201H474.92V356.306Z" fill="#E7D1FA"/>
<path d="M86.3507 407.207H0V509.009H86.3507V407.207Z" fill="white"/>
<path d="M1640.64 101.802L1726.99 101.802L1726.99 2.28882e-05L1640.64 3.1788e-05L1640.64 101.802Z" fill="white"/>
<path d="M43.1708 407.201H0V458.097H43.1708V407.201Z" fill="#D1A7F5"/>
<path d="M1683.82 101.807L1726.99 101.807L1726.99 50.9116L1683.82 50.9116L1683.82 101.807Z" fill="#D1A7F5"/>
<path d="M86.3417 407.201H43.1709V458.097H86.3417V407.201Z" fill="#CEA1F4"/>
<path d="M1640.65 101.807L1683.82 101.807L1683.82 50.9116L1640.65 50.9116L1640.65 101.807Z" fill="#CEA1F4"/>
<path d="M43.1708 458.113H0V509.008H43.1708V458.113Z" fill="#CEA2F4"/>
<path d="M1683.82 50.8955L1726.99 50.8955L1726.99 5.72205e-05L1683.82 6.16699e-05L1683.82 50.8955Z" fill="#CEA2F4"/>
<path d="M86.3417 458.113H43.1709V509.008H86.3417V458.113Z" fill="#E3CDFF"/>
<path d="M1640.65 50.8955L1683.82 50.8955L1683.82 5.72205e-05L1640.65 6.16699e-05L1640.65 50.8955Z" fill="#E3CDFF"/>
<path d="M172.701 407.207H86.3506V509.009H172.701V407.207Z" fill="white"/>
<path d="M1554.29 101.802L1640.64 101.802L1640.64 2.28882e-05L1554.29 3.1788e-05L1554.29 101.802Z" fill="white"/>
<path d="M129.526 407.201H86.3555V458.097H129.526V407.201Z" fill="#D8BAFF"/>
<path d="M1597.46 101.807L1640.63 101.807L1640.63 50.9116L1597.46 50.9116L1597.46 101.807Z" fill="#D8BAFF"/>
<path d="M172.697 407.201H129.526V458.097H172.697V407.201Z" fill="#C998F3"/>
<path d="M1554.29 101.807L1597.46 101.807L1597.46 50.9116L1554.29 50.9116L1554.29 101.807Z" fill="#C998F3"/>
<path d="M129.526 458.113H86.3555V509.008H129.526V458.113Z" fill="#E2C9F9"/>
<path d="M1597.46 50.8955L1640.63 50.8955L1640.63 5.72205e-05L1597.46 6.16699e-05L1597.46 50.8955Z" fill="#E2C9F9"/>
<path d="M172.697 458.113H129.526V509.008H172.697V458.113Z" fill="#F3E8FC"/>
<path d="M1554.29 50.8955L1597.46 50.8955L1597.46 5.72205e-05L1554.29 6.16699e-05L1554.29 50.8955Z" fill="#F3E8FC"/>
<path d="M259.052 407.207H172.701V509.009H259.052V407.207Z" fill="white"/>
<path d="M215.868 407.201H172.697V458.097H215.868V407.201Z" fill="#D8B4F6"/>
<path d="M259.052 407.201H215.881V458.097H259.052V407.201Z" fill="#A158FF"/>
<path d="M215.868 458.113H172.697V509.008H215.868V458.113Z" fill="#DEC5FF"/>
<path d="M259.052 458.113H215.881V509.008H259.052V458.113Z" fill="#994BFF"/>
<path d="M345.403 407.207H259.052V509.009H345.403V407.207Z" fill="white"/>
<path d="M302.223 407.201H259.052V458.097H302.223V407.201Z" fill="#B175FF"/>
<path d="M345.394 407.201H302.223V458.097H345.394V407.201Z" fill="#ECDAFB"/>
<path d="M302.223 458.113H259.052V509.008H302.223V458.113Z" fill="#A864FF"/>
<path d="M345.394 458.113H302.223V509.008H345.394V458.113Z" fill="#C192FF"/>
<path d="M431.754 407.207H345.403V509.009H431.754V407.207Z" fill="white"/>
<path d="M388.578 407.201H345.407V458.097H388.578V407.201Z" fill="#D1A7F5"/>
<path d="M431.749 407.201H388.579V458.097H431.749V407.201Z" fill="#B276FF"/>
<path d="M388.578 458.113H345.407V509.008H388.578V458.113Z" fill="#E0C9FF"/>
<path d="M431.749 458.113H388.579V509.008H431.749V458.113Z" fill="#DABEFF"/>
<path d="M474.92 407.201H431.749V458.097H474.92V407.201Z" fill="#EAD7FA"/>
<path d="M474.92 458.113H431.749V509.008H474.92V458.113Z" fill="#E9D5FA"/>
<path d="M1511.12 101.796H1467.95V152.692H1511.12V101.796Z" fill="#D6B1F6"/>
<path d="M1554.3 203.603H1467.95V305.405H1554.3V203.603Z" fill="white"/>
<path d="M1511.12 203.603H1467.95V254.499H1511.12V203.603Z" fill="#CBA4FF"/>
<path d="M1554.29 203.603H1511.12V254.499H1554.29V203.603Z" fill="#DBBBF7"/>
<path d="M1511.12 254.499H1467.95V305.394H1511.12V254.499Z" fill="#A967FF"/>
<path d="M1554.29 254.499H1511.12V305.394H1554.29V254.499Z" fill="#DFC3F8"/>
<path d="M1467.94 305.41H1424.77V356.306H1467.94V305.41Z" fill="#E6CFFA"/>
<path d="M1467.94 356.306H1424.77V407.201H1467.94V356.306Z" fill="#D6B2F6"/>
<path d="M1597.46 356.306H1554.29V407.201H1597.46V356.306Z" fill="#F6EDFD"/>
<path d="M1467.94 407.201H1424.77V458.097H1467.94V407.201Z" fill="#B073FF"/>
<path d="M1467.94 458.113H1424.77V509.008H1467.94V458.113Z" fill="#DBC0FF"/>
<path d="M1554.3 407.207H1467.95V509.009H1554.3V407.207Z" fill="white"/>
<path d="M1511.12 407.201H1467.95V458.097H1511.12V407.201Z" fill="#EEDEFB"/>
<path d="M1554.29 407.201H1511.12V458.097H1554.29V407.201Z" fill="#BE8DFF"/>
<path d="M1511.12 458.113H1467.95V509.008H1511.12V458.113Z" fill="#DDBDF7"/>
<path d="M1554.29 458.113H1511.12V509.008H1554.29V458.113Z" fill="#F7F0FD"/>
<path d="M1640.65 407.207H1554.3V509.009H1640.65V407.207Z" fill="white"/>
<path d="M1597.46 407.201H1554.29V458.097H1597.46V407.201Z" fill="#F8F1FD"/>
<path d="M1640.65 407.201H1597.48V458.097H1640.65V407.201Z" fill="#F2E7FC"/>
<path d="M1597.46 458.113H1554.29V509.008H1597.46V458.113Z" fill="#D9B7F7"/>
<path d="M1640.65 458.113H1597.48V509.008H1640.65V458.113Z" fill="#A966FF"/>
<path d="M1727 407.207H1640.65V509.009H1727V407.207Z" fill="white"/>
<path d="M1683.82 407.201H1640.65V458.097H1683.82V407.201Z" fill="#C99FFF"/>
<path d="M1726.99 407.201H1683.82V458.097H1726.99V407.201Z" fill="#E6D3FF"/>
<path d="M1683.82 458.113H1640.65V509.008H1683.82V458.113Z" fill="#D4B2FF"/>
<path d="M1726.99 458.113H1683.82V509.008H1726.99V458.113Z" fill="#EADBFF"/>
</g>
</svg>
