<svg width="701" height="510" viewBox="0 0 701 510" fill="none" xmlns="http://www.w3.org/2000/svg">
<path d="M614.638 407.207L700.988 407.207L700.988 305.405L614.638 305.405L614.638 407.207Z" fill="white"/>
<path d="M657.817 356.301L700.988 356.301L700.988 305.405L657.817 305.405L657.817 356.301Z" fill="#E7D1FA"/>
<path d="M614.647 356.301L657.817 356.301L657.817 305.405L614.647 305.405L614.647 356.301Z" fill="#DBBAF7"/>
<path d="M614.638 305.405L700.988 305.405L700.988 203.603L614.638 203.603L614.638 305.405Z" fill="white"/>
<path d="M614.647 305.405L657.817 305.405L657.817 254.51L614.647 254.51L614.647 305.405Z" fill="#D7B3F6"/>
<path d="M657.817 254.51L700.988 254.51L700.988 203.614L657.817 203.614L657.817 254.51Z" fill="#FCF9FE"/>
<path d="M528.286 305.405L614.637 305.405L614.637 203.603L528.286 203.603L528.286 305.405Z" fill="white"/>
<path d="M571.462 254.51L614.633 254.51L614.633 203.614L571.462 203.614L571.462 254.51Z" fill="#F1E7FF"/>
<path d="M528.292 254.51L571.462 254.51L571.462 203.614L528.292 203.614L528.292 254.51Z" fill="#E7D5FF"/>
<path d="M614.638 203.603L700.988 203.603L700.988 101.802L614.638 101.802L614.638 203.603Z" fill="white"/>
<path d="M657.817 203.598L700.988 203.598L700.988 152.703L657.817 152.703L657.817 203.598Z" fill="#C090FF"/>
<path d="M614.647 203.598L657.817 203.598L657.817 152.703L614.647 152.703L614.647 203.598Z" fill="#AC6BFF"/>
<path d="M657.817 152.703L700.988 152.703L700.988 101.807L657.817 101.807L657.817 152.703Z" fill="#F5ECFD"/>
<path d="M614.647 152.703L657.817 152.703L657.817 101.807L614.647 101.807L614.647 152.703Z" fill="#EDDCFB"/>
<path d="M528.286 203.603L614.637 203.603L614.637 101.802L528.286 101.802L528.286 203.603Z" fill="white"/>
<path d="M571.462 203.598L614.633 203.598L614.633 152.703L571.462 152.703L571.462 203.598Z" fill="#E1C6F8"/>
<path d="M571.462 152.703L614.633 152.703L614.633 101.807L571.462 101.807L571.462 152.703Z" fill="#D2B0FF"/>
<path d="M528.292 152.703L571.462 152.703L571.462 101.807L528.292 101.807L528.292 152.703Z" fill="#DEBFF8"/>
<path d="M614.638 101.802L700.988 101.802L700.988 2.28882e-05L614.638 3.1788e-05L614.638 101.802Z" fill="white"/>
<path d="M657.817 101.807L700.988 101.807L700.988 50.9116L657.817 50.9116L657.817 101.807Z" fill="#D1A7F5"/>
<path d="M614.647 101.807L657.817 101.807L657.817 50.9116L614.647 50.9116L614.647 101.807Z" fill="#CEA1F4"/>
<path d="M657.817 50.8955L700.988 50.8955L700.988 5.72205e-05L657.817 6.16699e-05L657.817 50.8955Z" fill="#CEA2F4"/>
<path d="M614.647 50.8955L657.817 50.8955L657.817 5.72205e-05L614.647 6.16699e-05L614.647 50.8955Z" fill="#E3CDFF"/>
<path d="M528.286 101.802L614.637 101.802L614.637 2.28882e-05L528.286 3.1788e-05L528.286 101.802Z" fill="white"/>
<path d="M571.462 101.807L614.633 101.807L614.633 50.9116L571.462 50.9116L571.462 101.807Z" fill="#D8BAFF"/>
<path d="M528.292 101.807L571.462 101.807L571.462 50.9116L528.292 50.9116L528.292 101.807Z" fill="#C998F3"/>
<path d="M571.462 50.8955L614.633 50.8955L614.633 5.72205e-05L571.462 6.16699e-05L571.462 50.8955Z" fill="#E2C9F9"/>
<path d="M528.292 50.8955L571.462 50.8955L571.462 5.72205e-05L528.292 6.16699e-05L528.292 50.8955Z" fill="#F3E8FC"/>
<path d="M485.123 101.796H441.952V152.692H485.123V101.796Z" fill="#D6B1F6"/>
<path d="M528.299 203.603H441.948V305.405H528.299V203.603Z" fill="white"/>
<path d="M485.123 203.603H441.952V254.499H485.123V203.603Z" fill="#CBA4FF"/>
<path d="M528.294 203.603H485.123V254.499H528.294V203.603Z" fill="#DBBBF7"/>
<path d="M485.123 254.499H441.952V305.394H485.123V254.499Z" fill="#A967FF"/>
<path d="M528.294 254.499H485.123V305.394H528.294V254.499Z" fill="#DFC3F8"/>
<path d="M441.939 305.41H398.768V356.306H441.939V305.41Z" fill="#E6CFFA"/>
<path d="M441.939 356.306H398.768V407.201H441.939V356.306Z" fill="#D6B2F6"/>
<path d="M571.465 356.306H528.294V407.201H571.465V356.306Z" fill="#F6EDFD"/>
<path d="M441.939 407.201H398.768V458.097H441.939V407.201Z" fill="#B073FF"/>
<path d="M441.939 458.113H398.768V509.008H441.939V458.113Z" fill="#DBC0FF"/>
<path d="M528.299 407.207H441.948V509.008H528.299V407.207Z" fill="white"/>
<path d="M485.123 407.201H441.952V458.097H485.123V407.201Z" fill="#EEDEFB"/>
<path d="M528.294 407.201H485.123V458.097H528.294V407.201Z" fill="#BE8DFF"/>
<path d="M485.123 458.113H441.952V509.008H485.123V458.113Z" fill="#DDBDF7"/>
<path d="M528.294 458.113H485.123V509.008H528.294V458.113Z" fill="#F7F0FD"/>
<path d="M614.65 407.207H528.299V509.008H614.65V407.207Z" fill="white"/>
<path d="M571.465 407.201H528.294V458.097H571.465V407.201Z" fill="#F8F1FD"/>
<path d="M614.649 407.201H571.479V458.097H614.649V407.201Z" fill="#F2E7FC"/>
<path d="M571.465 458.113H528.294V509.008H571.465V458.113Z" fill="#D9B7F7"/>
<path d="M614.649 458.113H571.479V509.008H614.649V458.113Z" fill="#A966FF"/>
<path d="M701 407.207H614.649V509.008H701V407.207Z" fill="white"/>
<path d="M657.82 407.201H614.649V458.097H657.82V407.201Z" fill="#C99FFF"/>
<path d="M700.991 407.201H657.82V458.097H700.991V407.201Z" fill="#E6D3FF"/>
<path d="M657.82 458.113H614.649V509.008H657.82V458.113Z" fill="#D4B2FF"/>
<path d="M700.991 458.113H657.82V509.008H700.991V458.113Z" fill="#EADBFF"/>
<path d="M-4.37121e-06 409.002L0 509.003L100.002 509.003L100.002 409.002L-4.37121e-06 409.002Z" fill="white"/>
<path d="M50.0059 459.008L50.0059 509.003L100.001 509.003L100.001 459.008L50.0059 459.008Z" fill="#E7D1FA"/>
<path d="M50.0059 409.012L50.0059 459.008L100.001 459.008L100.001 409.012L50.0059 409.012Z" fill="#DBBAF7"/>
<path d="M100.002 409.002L100.002 509.003L200.004 509.003L200.004 409.002L100.002 409.002Z" fill="white"/>
<path d="M100.002 409.012L100.002 459.008L149.998 459.008L149.998 409.012L100.002 409.012Z" fill="#D7B3F6"/>
<path d="M149.997 459.008L149.997 509.003L199.993 509.003L199.993 459.008L149.997 459.008Z" fill="#FCF9FE"/>
<path d="M100.002 309L100.002 409.002L200.004 409.002L200.004 309L100.002 309Z" fill="white"/>
<path d="M149.997 359.001L149.997 408.996L199.993 408.996L199.993 359.001L149.997 359.001Z" fill="#F1E7FF"/>
<path d="M149.997 309.005L149.997 359.001L199.993 359.001L199.993 309.005L149.997 309.005Z" fill="#E7D5FF"/>
<path d="M200.003 409.002L200.003 509.003L300.005 509.003L300.005 409.002L200.003 409.002Z" fill="white"/>
<path d="M200.009 459.008L200.009 509.003L250.004 509.003L250.004 459.008L200.009 459.008Z" fill="#C090FF"/>
<path d="M200.009 409.012L200.009 459.008L250.004 459.008L250.004 409.012L200.009 409.012Z" fill="#AC6BFF"/>
<path d="M250.004 459.008L250.004 509.003L299.999 509.003L299.999 459.008L250.004 459.008Z" fill="#F5ECFD"/>
<path d="M250.004 409.012L250.004 459.008L299.999 459.008L299.999 409.012L250.004 409.012Z" fill="#EDDCFB"/>
<path d="M200.003 309L200.003 409.002L300.005 409.002L300.005 309L200.003 309Z" fill="white"/>
<path d="M200.009 359.001L200.009 408.996L250.004 408.996L250.004 359.001L200.009 359.001Z" fill="#E1C6F8"/>
<path d="M250.004 359.001L250.004 408.996L299.999 408.996L299.999 359.001L250.004 359.001Z" fill="#D2B0FF"/>
<path d="M250.004 309.005L250.004 359.001L299.999 359.001L299.999 309.005L250.004 309.005Z" fill="#DEBFF8"/>
<path d="M300.005 409.002L300.005 509.003L400.007 509.003L400.007 409.002L300.005 409.002Z" fill="white"/>
<path d="M300 459.008L300 509.003L349.996 509.003L349.996 459.008L300 459.008Z" fill="#D1A7F5"/>
<path d="M300 409.012L300 459.008L349.996 459.008L349.996 409.012L300 409.012Z" fill="#CEA1F4"/>
<path d="M350.011 459.008L350.011 509.003L400.007 509.003L400.007 459.008L350.011 459.008Z" fill="#CEA2F4"/>
<path d="M350.011 409.012L350.011 459.008L400.007 459.008L400.007 409.012L350.011 409.012Z" fill="#E3CDFF"/>
<path d="M300.005 309L300.005 409.002L400.007 409.002L400.007 309L300.005 309Z" fill="white"/>
<path d="M300 359.001L300 408.996L349.996 408.996L349.996 359.001L300 359.001Z" fill="#D8BAFF"/>
<path d="M300 309.005L300 359.001L349.996 359.001L349.996 309.005L300 309.005Z" fill="#C998F3"/>
<path d="M350.011 359.001L350.011 408.996L400.007 408.996L400.007 359.001L350.011 359.001Z" fill="#E2C9F9"/>
<path d="M350.011 309.005L350.011 359.001L400.007 359.001L400.007 309.005L350.011 309.005Z" fill="#F3E8FC"/>
</svg>
