<svg width="854" height="257" viewBox="0 0 854 257" fill="none" xmlns="http://www.w3.org/2000/svg">
<path d="M75.404 0.202026H10C4.47715 0.202026 0 4.67918 0 10.202V75.6061C0 81.1289 4.47715 85.6061 10 85.6061H75.404C80.9269 85.6061 85.404 81.1289 85.404 75.6061V10.202C85.404 4.67918 80.9269 0.202026 75.404 0.202026Z" fill="#FEF9FB"/>
<path d="M0 24.3442C0 15.4351 10.7714 10.9734 17.0711 17.2731L68.333 68.535C74.6326 74.8346 70.171 85.6061 61.2619 85.6061H10C4.47715 85.6061 0 81.1289 0 75.6061V24.3442Z" fill="#F6C6DA"/>
<path d="M341.603 24.3442C341.603 15.4351 330.831 10.9734 324.531 17.2731L273.27 68.535C266.97 74.8346 271.432 85.6061 280.341 85.6061H331.603C337.125 85.6061 341.603 81.1289 341.603 75.6061V24.3442Z" fill="#F4A2D4"/>
<path d="M85.4968 24.1421C85.4968 15.2331 96.2682 10.7714 102.568 17.0711L153.83 68.333C160.129 74.6326 155.668 85.404 146.759 85.404H95.4968C89.974 85.404 85.4968 80.9269 85.4968 75.404V24.1421Z" fill="#F4A2D4"/>
<path d="M416.998 0.202026H351.598C346.075 0.202026 341.598 4.67916 341.598 10.202V75.6016C341.598 81.1244 346.075 85.6016 351.598 85.6016H416.998C422.521 85.6016 426.998 81.1244 426.998 75.6016V10.202C426.998 4.67918 422.521 0.202026 416.998 0.202026Z" fill="white"/>
<path d="M374.298 0.202026H351.603C346.08 0.202026 341.603 4.67917 341.603 10.202V32.8973C341.603 38.4201 346.08 42.8973 351.603 42.8973H374.298C379.821 42.8973 384.298 38.4201 384.298 32.8973V10.202C384.298 4.67918 379.821 0.202026 374.298 0.202026Z" fill="#F5A4D4"/>
<path d="M367.227 17.2731C373.526 10.9734 384.298 15.4351 384.298 24.3442V32.8973C384.298 38.4201 379.821 42.8973 374.298 42.8973H365.745C356.836 42.8973 352.374 32.1259 358.674 25.8262L367.227 17.2731Z" fill="#E14A8A"/>
<path d="M416.993 0.202026H394.298C388.775 0.202026 384.298 4.67917 384.298 10.202V32.8973C384.298 38.4201 388.775 42.8973 394.298 42.8973H416.993C422.516 42.8973 426.993 38.4201 426.993 32.8973V10.202C426.993 4.67918 422.516 0.202026 416.993 0.202026Z" fill="#F6AED9"/>
<path d="M384.298 24.3442C384.298 15.4351 395.069 10.9735 401.369 17.2731L409.922 25.8262C416.222 32.1259 411.76 42.8973 402.851 42.8973H394.298C388.775 42.8973 384.298 38.4201 384.298 32.8973V24.3442Z" fill="#F6B2DB"/>
<path d="M374.298 42.8972H351.603C346.08 42.8972 341.603 47.3744 341.603 52.8972V75.5925C341.603 81.1153 346.08 85.5925 351.603 85.5925H374.298C379.821 85.5925 384.298 81.1153 384.298 75.5925V52.8972C384.298 47.3744 379.821 42.8972 374.298 42.8972Z" fill="#F8C5E4"/>
<path d="M341.603 52.8972C341.603 47.3744 346.08 42.8972 351.603 42.8972H360.156C369.065 42.8972 373.526 53.6686 367.227 59.9683L358.674 68.5214C352.374 74.8211 341.603 70.3594 341.603 61.4503V52.8972Z" fill="#FAD4EB"/>
<path d="M416.993 42.8972H394.298C388.775 42.8972 384.298 47.3744 384.298 52.8972V75.5925C384.298 81.1153 388.775 85.5925 394.298 85.5925H416.993C422.516 85.5925 426.993 81.1153 426.993 75.5925V52.8972C426.993 47.3744 422.516 42.8972 416.993 42.8972Z" fill="#E45C95"/>
<path d="M401.369 59.9683C395.069 53.6686 399.531 42.8972 408.44 42.8972H416.993C422.516 42.8972 426.993 47.3744 426.993 52.8972V61.4503C426.993 70.3594 416.222 74.8211 409.922 68.5214L401.369 59.9683Z" fill="#F9C8E5"/>
<path d="M459.688 0.202026H436.993C431.47 0.202026 426.993 4.67917 426.993 10.202V32.8973C426.993 38.4201 431.47 42.8973 436.993 42.8973H459.688C465.211 42.8973 469.688 38.4201 469.688 32.8973V10.202C469.688 4.67918 465.211 0.202026 459.688 0.202026Z" fill="#E871A3"/>
<path d="M459.688 42.8972H436.993C431.47 42.8972 426.993 47.3744 426.993 52.8972V75.5925C426.993 81.1153 431.47 85.5925 436.993 85.5925H459.688C465.211 85.5925 469.688 81.1153 469.688 75.5925V52.8972C469.688 47.3744 465.211 42.8972 459.688 42.8972Z" fill="#DA216F"/>
<path d="M502.397 42.8972H479.702C474.179 42.8972 469.702 47.3744 469.702 52.8972V75.5925C469.702 81.1153 474.179 85.5925 479.702 85.5925H502.397C507.92 85.5925 512.397 81.1153 512.397 75.5925V52.8972C512.397 47.3744 507.92 42.8972 502.397 42.8972Z" fill="#F7BBDF"/>
<path d="M673.206 0.202026H607.802C602.279 0.202026 597.802 4.67918 597.802 10.202V75.6061C597.802 81.1289 602.279 85.6061 607.802 85.6061H673.206C678.728 85.6061 683.206 81.1289 683.206 75.6061V10.202C683.206 4.67918 678.728 0.202026 673.206 0.202026Z" fill="#EFA0C1"/>
<path d="M597.802 24.3442C597.802 15.4351 608.573 10.9734 614.873 17.2731L666.134 68.535C672.434 74.8346 667.972 85.6061 659.063 85.6061H607.802C602.279 85.6061 597.802 81.1289 597.802 75.6061V24.3442Z" fill="#FAD6EC"/>
<path d="M751.525 17.2731C757.825 10.9734 768.596 15.4351 768.596 24.3442V75.6061C768.596 81.1289 764.119 85.6061 758.596 85.6061H707.334C698.425 85.6061 693.963 74.8346 700.263 68.535L751.525 17.2731Z" fill="#EB84AF"/>
<path d="M843.996 0.202026H778.596C773.073 0.202026 768.596 4.67916 768.596 10.202V75.6016C768.596 81.1244 773.073 85.6016 778.596 85.6016H843.996C849.519 85.6016 853.996 81.1244 853.996 75.6016V10.202C853.996 4.67918 849.519 0.202026 843.996 0.202026Z" fill="white"/>
<path d="M801.291 0.202026H778.596C773.073 0.202026 768.596 4.67917 768.596 10.202V32.8973C768.596 38.4201 773.073 42.8973 778.596 42.8973H801.291C806.814 42.8973 811.291 38.4201 811.291 32.8973V10.202C811.291 4.67918 806.814 0.202026 801.291 0.202026Z" fill="#EF9EC0"/>
<path d="M768.596 10.202C768.596 4.67917 773.073 0.202026 778.596 0.202026H787.149C796.058 0.202026 800.52 10.9734 794.22 17.2731L785.667 25.8262C779.368 32.1259 768.596 27.6642 768.596 18.7552V10.202Z" fill="#FBE4ED"/>
<path d="M843.986 0.202026H821.291C815.768 0.202026 811.291 4.67917 811.291 10.202V32.8973C811.291 38.4201 815.768 42.8973 821.291 42.8973H843.986C849.509 42.8973 853.986 38.4201 853.986 32.8973V10.202C853.986 4.67918 849.509 0.202026 843.986 0.202026Z" fill="#F8C5E4"/>
<path d="M828.362 17.2731C822.062 10.9735 826.524 0.202026 835.433 0.202026H843.986C849.509 0.202026 853.986 4.67918 853.986 10.202V18.7551C853.986 27.6642 843.215 32.1258 836.915 25.8262L828.362 17.2731Z" fill="#FDF5F9"/>
<path d="M801.291 42.8972H778.596C773.073 42.8972 768.596 47.3744 768.596 52.8972V75.5925C768.596 81.1153 773.073 85.5925 778.596 85.5925H801.291C806.814 85.5925 811.291 81.1153 811.291 75.5925V52.8972C811.291 47.3744 806.814 42.8972 801.291 42.8972Z" fill="#F4A2D4"/>
<path d="M768.596 67.0393C768.596 58.1303 779.368 53.6686 785.667 59.9683L794.22 68.5214C800.52 74.8211 796.058 85.5925 787.149 85.5925H778.596C773.073 85.5925 768.596 81.1153 768.596 75.5925V67.0393Z" fill="#F7BDE0"/>
<path d="M843.986 42.8972H821.291C815.768 42.8972 811.291 47.3744 811.291 52.8972V75.5925C811.291 81.1153 815.768 85.5925 821.291 85.5925H843.986C849.509 85.5925 853.986 81.1153 853.986 75.5925V52.8972C853.986 47.3744 849.509 42.8972 843.986 42.8972Z" fill="#E14B8A"/>
<path d="M836.915 59.9683C843.215 53.6687 853.986 58.1303 853.986 67.0394V75.5925C853.986 81.1153 849.509 85.5925 843.986 85.5925H835.433C826.524 85.5925 822.062 74.8211 828.362 68.5214L836.915 59.9683Z" fill="#F4A1D3"/>
<path d="M75.3995 85.6016H10C4.47715 85.6016 0 90.0787 0 95.6015V161.001C0 166.524 4.47717 171.001 10 171.001H75.3995C80.9224 171.001 85.3995 166.524 85.3995 161.001V95.6016C85.3995 90.0787 80.9224 85.6016 75.3995 85.6016Z" fill="white"/>
<path d="M32.6953 85.606H10C4.47715 85.606 0 90.0831 0 95.6059V118.301C0 123.824 4.47714 128.301 9.99999 128.301H32.6953C38.2181 128.301 42.6953 123.824 42.6953 118.301V95.606C42.6953 90.0831 38.2181 85.606 32.6953 85.606Z" fill="#F9C7E5"/>
<path d="M17.0711 102.677C10.7714 96.3774 15.2331 85.606 24.1421 85.606H32.6953C38.2181 85.606 42.6953 90.0831 42.6953 95.606V104.159C42.6953 113.068 31.9238 117.53 25.6242 111.23L17.0711 102.677Z" fill="#DD3079"/>
<path d="M75.3906 85.606H52.6953C47.1725 85.606 42.6953 90.0831 42.6953 95.6059V118.301C42.6953 123.824 47.1725 128.301 52.6953 128.301H75.3906C80.9134 128.301 85.3906 123.824 85.3906 118.301V95.606C85.3906 90.0831 80.9134 85.606 75.3906 85.606Z" fill="#F6C7DB"/>
<path d="M59.7664 102.677C53.4667 96.3774 57.9284 85.606 66.8375 85.606H75.3906C80.9134 85.606 85.3906 90.0831 85.3906 95.606V104.159C85.3906 113.068 74.6192 117.53 68.3195 111.23L59.7664 102.677Z" fill="#F49ED2"/>
<path d="M32.6953 128.301H10C4.47715 128.301 0 132.778 0 138.301V160.997C0 166.519 4.47714 170.997 9.99999 170.997H32.6953C38.2181 170.997 42.6953 166.519 42.6953 160.996V138.301C42.6953 132.778 38.2181 128.301 32.6953 128.301Z" fill="#E24F8D"/>
<path d="M25.6242 145.372C31.9239 139.073 42.6953 143.534 42.6953 152.443V160.996C42.6953 166.519 38.2181 170.997 32.6953 170.997H24.1421C15.2331 170.997 10.7714 160.225 17.0711 153.925L25.6242 145.372Z" fill="#F4A2D4"/>
<path d="M75.3906 128.301H52.6953C47.1725 128.301 42.6953 132.778 42.6953 138.301V160.997C42.6953 166.519 47.1725 170.997 52.6953 170.997H75.3906C80.9134 170.997 85.3906 166.519 85.3906 160.996V138.301C85.3906 132.778 80.9134 128.301 75.3906 128.301Z" fill="#FBDBEE"/>
<path d="M59.7664 145.372C53.4667 139.073 57.9284 128.301 66.8375 128.301H75.3906C80.9134 128.301 85.3906 132.778 85.3906 138.301V146.854C85.3906 155.763 74.6192 160.225 68.3195 153.925L59.7664 145.372Z" fill="#DB2471"/>
<path d="M160.808 85.606H95.4041C89.8812 85.606 85.4041 90.0831 85.4041 95.606V161.01C85.4041 166.533 89.8812 171.01 95.4041 171.01H160.808C166.331 171.01 170.808 166.533 170.808 161.01V95.606C170.808 90.0831 166.331 85.606 160.808 85.606Z" fill="#E875A5"/>
<path d="M85.4041 109.748C85.4041 100.839 96.1755 96.3774 102.475 102.677L153.737 153.939C160.037 160.239 155.575 171.01 146.666 171.01H95.4041C89.8812 171.01 85.4041 166.533 85.4041 161.01V109.748Z" fill="#FAD2EA"/>
<path d="M246.198 85.606H180.794C175.272 85.606 170.794 90.0831 170.794 95.606V161.01C170.794 166.533 175.272 171.01 180.794 171.01H246.198C251.721 171.01 256.198 166.533 256.198 161.01V95.606C256.198 90.0831 251.721 85.606 246.198 85.606Z" fill="#EB84AF"/>
<path d="M187.866 102.677C181.566 96.3774 186.028 85.606 194.937 85.606H246.198C251.721 85.606 256.198 90.0831 256.198 95.606V146.868C256.198 155.777 245.427 160.239 239.127 153.939L187.866 102.677Z" fill="#F4A3D4"/>
<path d="M331.603 85.606H266.199C260.676 85.606 256.199 90.0831 256.199 95.606V161.01C256.199 166.533 260.676 171.01 266.199 171.01H331.603C337.126 171.01 341.603 166.533 341.603 161.01V95.606C341.603 90.0831 337.126 85.606 331.603 85.606Z" fill="#FDECF6"/>
<path d="M324.532 102.677C330.831 96.3774 341.603 100.839 341.603 109.748V161.01C341.603 166.533 337.126 171.01 331.603 171.01H280.341C271.432 171.01 266.97 160.239 273.27 153.939L324.532 102.677Z" fill="#FEFBFD"/>
<path d="M417.007 85.606H351.603C346.08 85.606 341.603 90.0831 341.603 95.606V161.01C341.603 166.533 346.08 171.01 351.603 171.01H417.007C422.529 171.01 427.007 166.533 427.007 161.01V95.606C427.007 90.0831 422.529 85.606 417.007 85.606Z" fill="#FDF0F8"/>
<path d="M341.603 95.606C341.603 90.0831 346.08 85.606 351.603 85.606H402.864C411.773 85.606 416.235 96.3774 409.936 102.677L358.674 153.939C352.374 160.239 341.603 155.777 341.603 146.868V95.606Z" fill="#FEFAFD"/>
<path d="M502.397 85.606H436.993C431.47 85.606 426.993 90.0831 426.993 95.606V161.01C426.993 166.533 431.47 171.01 436.993 171.01H502.397C507.92 171.01 512.397 166.533 512.397 161.01V95.606C512.397 90.0831 507.92 85.606 502.397 85.606Z" fill="#F0A3C3"/>
<path d="M426.993 109.748C426.993 100.839 437.765 96.3774 444.064 102.677L495.326 153.939C501.626 160.239 497.164 171.01 488.255 171.01H436.993C431.47 171.01 426.993 166.533 426.993 161.01V109.748Z" fill="#FCE5F3"/>
<path d="M587.801 85.606H522.397C516.874 85.606 512.397 90.0831 512.397 95.606V161.01C512.397 166.533 516.874 171.01 522.397 171.01H587.801C593.324 171.01 597.801 166.533 597.801 161.01V95.606C597.801 90.0831 593.324 85.606 587.801 85.606Z" fill="#FDECF6"/>
<path d="M580.73 102.677C587.03 96.3774 597.801 100.839 597.801 109.748V161.01C597.801 166.533 593.324 171.01 587.801 171.01H536.539C527.63 171.01 523.168 160.239 529.468 153.939L580.73 102.677Z" fill="#F2AECB"/>
<path d="M673.206 85.606H607.802C602.279 85.606 597.802 90.0831 597.802 95.606V161.01C597.802 166.533 602.279 171.01 607.802 171.01H673.206C678.728 171.01 683.206 166.533 683.206 161.01V95.606C683.206 90.0831 678.728 85.606 673.206 85.606Z" fill="#F9CBE7"/>
<path d="M597.802 95.606C597.802 90.0831 602.279 85.606 607.802 85.606H659.063C667.972 85.606 672.434 96.3774 666.134 102.677L614.873 153.939C608.573 160.239 597.802 155.777 597.802 146.868V95.606Z" fill="#EE9ABD"/>
<path d="M758.596 85.606H693.192C687.669 85.606 683.192 90.0831 683.192 95.606V161.01C683.192 166.533 687.669 171.01 693.192 171.01H758.596C764.119 171.01 768.596 166.533 768.596 161.01V95.606C768.596 90.0831 764.119 85.606 758.596 85.606Z" fill="#FFFDFE"/>
<path d="M683.192 95.606C683.192 90.0831 687.669 85.606 693.192 85.606H744.454C753.363 85.606 757.825 96.3774 751.525 102.677L700.263 153.939C693.963 160.239 683.192 155.777 683.192 146.868V95.606Z" fill="#F5A5D5"/>
<path d="M843.996 85.6016H778.596C773.073 85.6016 768.596 90.0787 768.596 95.6015V161.001C768.596 166.524 773.073 171.001 778.596 171.001H843.996C849.519 171.001 853.996 166.524 853.996 161.001V95.6016C853.996 90.0787 849.519 85.6016 843.996 85.6016Z" fill="white"/>
<path d="M801.291 85.606H778.596C773.073 85.606 768.596 90.0831 768.596 95.6059V118.301C768.596 123.824 773.073 128.301 778.596 128.301H801.291C806.814 128.301 811.291 123.824 811.291 118.301V95.606C811.291 90.0831 806.814 85.606 801.291 85.606Z" fill="#F2AFCB"/>
<path d="M794.22 102.677C800.52 96.3774 811.291 100.839 811.291 109.748V118.301C811.291 123.824 806.814 128.301 801.291 128.301H792.738C783.829 128.301 779.368 117.53 785.667 111.23L794.22 102.677Z" fill="#F6C8DB"/>
<path d="M843.986 85.606H821.291C815.768 85.606 811.291 90.0831 811.291 95.6059V118.301C811.291 123.824 815.768 128.301 821.291 128.301H843.986C849.509 128.301 853.986 123.824 853.986 118.301V95.606C853.986 90.0831 849.509 85.606 843.986 85.606Z" fill="#E35692"/>
<path d="M811.291 109.748C811.291 100.839 822.062 96.3774 828.362 102.677L836.915 111.23C843.215 117.53 838.753 128.301 829.844 128.301H821.291C815.768 128.301 811.291 123.824 811.291 118.301V109.748Z" fill="#DF3C81"/>
<path d="M801.291 128.301H778.596C773.073 128.301 768.596 132.778 768.596 138.301V160.997C768.596 166.519 773.073 170.997 778.596 170.997H801.291C806.814 170.997 811.291 166.519 811.291 160.996V138.301C811.291 132.778 806.814 128.301 801.291 128.301Z" fill="#ED93B9"/>
<path d="M768.596 138.301C768.596 132.778 773.073 128.301 778.596 128.301H787.149C796.058 128.301 800.52 139.073 794.22 145.372L785.667 153.925C779.368 160.225 768.596 155.763 768.596 146.854V138.301Z" fill="#F6C9DC"/>
<path d="M843.986 128.301H821.291C815.768 128.301 811.291 132.778 811.291 138.301V160.997C811.291 166.519 815.768 170.997 821.291 170.997H843.986C849.509 170.997 853.986 166.519 853.986 160.996V138.301C853.986 132.778 849.509 128.301 843.986 128.301Z" fill="#FDF0F8"/>
<path d="M75.404 170.997H10C4.47715 170.997 0 175.474 0 180.997V246.401C0 251.923 4.47715 256.401 10 256.401H75.404C80.9269 256.401 85.404 251.923 85.404 246.401V180.997C85.404 175.474 80.9269 170.997 75.404 170.997Z" fill="#FEF6F9"/>
<path d="M0 180.997C0 175.474 4.47715 170.997 10 170.997H61.2619C70.171 170.997 74.6326 181.768 68.333 188.068L17.0711 239.33C10.7714 245.629 0 241.168 0 232.259V180.997Z" fill="#EE98BC"/>
<path d="M160.799 171.001H95.3994C89.8766 171.001 85.3994 175.478 85.3994 181.001V246.401C85.3994 251.923 89.8766 256.401 95.3994 256.401H160.799C166.322 256.401 170.799 251.923 170.799 246.401V181.001C170.799 175.478 166.322 171.001 160.799 171.001Z" fill="white"/>
<path d="M118.099 170.997H95.4041C89.8812 170.997 85.4041 175.474 85.4041 180.997V203.692C85.4041 209.215 89.8812 213.692 95.404 213.692H118.099C123.622 213.692 128.099 209.215 128.099 203.692V180.997C128.099 175.474 123.622 170.997 118.099 170.997Z" fill="#FACFE9"/>
<path d="M111.028 188.068C117.328 181.768 128.099 186.23 128.099 195.139V203.692C128.099 209.215 123.622 213.692 118.099 213.692H109.546C100.637 213.692 96.1755 202.92 102.475 196.621L111.028 188.068Z" fill="#F8C6E4"/>
<path d="M160.795 170.997H138.099C132.577 170.997 128.099 175.474 128.099 180.997V203.692C128.099 209.215 132.577 213.692 138.099 213.692H160.795C166.317 213.692 170.795 209.215 170.795 203.692V180.997C170.795 175.474 166.317 170.997 160.795 170.997Z" fill="#F6AFDA"/>
<path d="M145.17 188.068C138.871 181.768 143.332 170.997 152.241 170.997H160.795C166.317 170.997 170.795 175.474 170.795 180.997V189.55C170.795 198.459 160.023 202.92 153.724 196.621L145.17 188.068Z" fill="#E6689D"/>
<path d="M118.099 213.705H95.4041C89.8812 213.705 85.4041 218.183 85.4041 223.705V246.401C85.4041 251.924 89.8812 256.401 95.404 256.401H118.099C123.622 256.401 128.099 251.924 128.099 246.401V223.705C128.099 218.183 123.622 213.705 118.099 213.705Z" fill="#FAD4EB"/>
<path d="M111.028 230.776C117.328 224.477 128.099 228.939 128.099 237.848V246.401C128.099 251.924 123.622 256.401 118.099 256.401H109.546C100.637 256.401 96.1755 245.629 102.475 239.33L111.028 230.776Z" fill="#DE357C"/>
<path d="M160.795 213.705H138.099C132.577 213.705 128.099 218.183 128.099 223.705V246.401C128.099 251.924 132.577 256.401 138.099 256.401H160.795C166.317 256.401 170.795 251.924 170.795 246.401V223.705C170.795 218.183 166.317 213.705 160.795 213.705Z" fill="#F8C4E4"/>
<path d="M128.099 223.705C128.099 218.183 132.577 213.705 138.099 213.705H146.652C155.562 213.705 160.023 224.477 153.724 230.777L145.17 239.33C138.871 245.629 128.099 241.168 128.099 232.259V223.705Z" fill="#F7CCDE"/>
<path d="M246.198 170.997H180.794C175.272 170.997 170.794 175.474 170.794 180.997V246.401C170.794 251.923 175.272 256.401 180.794 256.401H246.198C251.721 256.401 256.198 251.923 256.198 246.401V180.997C256.198 175.474 251.721 170.997 246.198 170.997Z" fill="#EE95BA"/>
<path d="M170.794 180.997C170.794 175.474 175.272 170.997 180.794 170.997H232.056C240.965 170.997 245.427 181.768 239.127 188.068L187.866 239.33C181.566 245.629 170.794 241.168 170.794 232.259V180.997Z" fill="#FAD7EC"/>
<path d="M331.598 171.001H266.199C260.676 171.001 256.199 175.478 256.199 181.001V246.401C256.199 251.923 260.676 256.401 266.199 256.401H331.598C337.121 256.401 341.598 251.923 341.598 246.401V181.001C341.598 175.478 337.121 171.001 331.598 171.001Z" fill="white"/>
<path d="M288.894 170.997H266.199C260.676 170.997 256.199 175.474 256.199 180.997V203.692C256.199 209.215 260.676 213.692 266.199 213.692H288.894C294.417 213.692 298.894 209.215 298.894 203.692V180.997C298.894 175.474 294.417 170.997 288.894 170.997Z" fill="#DD327A"/>
<path d="M256.199 180.997C256.199 175.474 260.676 170.997 266.199 170.997H274.752C283.661 170.997 288.123 181.768 281.823 188.068L273.27 196.621C266.97 202.92 256.199 198.459 256.199 189.55V180.997Z" fill="#F7CCDE"/>
<path d="M331.589 170.997H308.894C303.371 170.997 298.894 175.474 298.894 180.997V203.692C298.894 209.215 303.371 213.692 308.894 213.692H331.589C337.112 213.692 341.589 209.215 341.589 203.692V180.997C341.589 175.474 337.112 170.997 331.589 170.997Z" fill="#FDEAF5"/>
<path d="M315.965 188.068C309.665 181.768 314.127 170.997 323.036 170.997H331.589C337.112 170.997 341.589 175.474 341.589 180.997V189.55C341.589 198.459 330.818 202.92 324.518 196.621L315.965 188.068Z" fill="#FEF4FA"/>
<path d="M288.894 213.705H266.199C260.676 213.705 256.199 218.183 256.199 223.705V246.401C256.199 251.924 260.676 256.401 266.199 256.401H288.894C294.417 256.401 298.894 251.924 298.894 246.401V223.705C298.894 218.183 294.417 213.705 288.894 213.705Z" fill="#E55F97"/>
<path d="M273.27 230.777C266.97 224.477 271.432 213.705 280.341 213.705H288.894C294.417 213.705 298.894 218.183 298.894 223.705V232.259C298.894 241.168 288.123 245.629 281.823 239.33L273.27 230.777Z" fill="#E04285"/>
<path d="M331.589 213.705H308.894C303.371 213.705 298.894 218.183 298.894 223.705V246.401C298.894 251.924 303.371 256.401 308.894 256.401H331.589C337.112 256.401 341.589 251.924 341.589 246.401V223.705C341.589 218.183 337.112 213.705 331.589 213.705Z" fill="#FAE2EC"/>
<path d="M315.965 230.777C309.665 224.477 314.127 213.705 323.036 213.705H331.589C337.112 213.705 341.589 218.183 341.589 223.705V232.259C341.589 241.168 330.818 245.629 324.518 239.33L315.965 230.777Z" fill="#FAD1EA"/>
<path d="M416.998 171.001H351.598C346.075 171.001 341.598 175.478 341.598 181.001V246.401C341.598 251.923 346.075 256.401 351.598 256.401H416.998C422.521 256.401 426.998 251.923 426.998 246.401V181.001C426.998 175.478 422.521 171.001 416.998 171.001Z" fill="white"/>
<path d="M374.298 170.997H351.603C346.08 170.997 341.603 175.474 341.603 180.997V203.692C341.603 209.215 346.08 213.692 351.603 213.692H374.298C379.821 213.692 384.298 209.215 384.298 203.692V180.997C384.298 175.474 379.821 170.997 374.298 170.997Z" fill="#F49ED2"/>
<path d="M367.227 188.068C373.526 181.768 384.298 186.23 384.298 195.139V203.692C384.298 209.215 379.821 213.692 374.298 213.692H365.745C356.836 213.692 352.374 202.92 358.674 196.621L367.227 188.068Z" fill="#F4A0D2"/>
<path d="M416.993 170.997H394.298C388.775 170.997 384.298 175.474 384.298 180.997V203.692C384.298 209.215 388.775 213.692 394.298 213.692H416.993C422.516 213.692 426.993 209.215 426.993 203.692V180.997C426.993 175.474 422.516 170.997 416.993 170.997Z" fill="#E14888"/>
<path d="M384.298 180.997C384.298 175.474 388.775 170.997 394.298 170.997H402.851C411.76 170.997 416.222 181.768 409.922 188.068L401.369 196.621C395.069 202.92 384.298 198.459 384.298 189.55V180.997Z" fill="#F5ACD8"/>
<path d="M374.298 213.705H351.603C346.08 213.705 341.603 218.183 341.603 223.705V246.401C341.603 251.924 346.08 256.401 351.603 256.401H374.298C379.821 256.401 384.298 251.924 384.298 246.401V223.705C384.298 218.183 379.821 213.705 374.298 213.705Z" fill="#FEF8FC"/>
<path d="M367.227 230.776C373.526 224.477 384.298 228.939 384.298 237.848V246.401C384.298 251.924 379.821 256.401 374.298 256.401H365.745C356.836 256.401 352.374 245.629 358.674 239.33L367.227 230.776Z" fill="#F6B0DA"/>
<path d="M416.993 213.705H394.298C388.775 213.705 384.298 218.183 384.298 223.705V246.401C384.298 251.924 388.775 256.401 394.298 256.401H416.993C422.516 256.401 426.993 251.924 426.993 246.401V223.705C426.993 218.183 422.516 213.705 416.993 213.705Z" fill="#F5C5D9"/>
<path d="M384.298 237.848C384.298 228.939 395.069 224.477 401.369 230.777L409.922 239.33C416.222 245.629 411.76 256.401 402.851 256.401H394.298C388.775 256.401 384.298 251.924 384.298 246.401V237.848Z" fill="#FDEEF7"/>
<path d="M502.397 170.997H436.993C431.47 170.997 426.993 175.474 426.993 180.997V246.401C426.993 251.923 431.47 256.401 436.993 256.401H502.397C507.92 256.401 512.397 251.923 512.397 246.401V180.997C512.397 175.474 507.92 170.997 502.397 170.997Z" fill="#E6699E"/>
<path d="M426.993 180.997C426.993 175.474 431.47 170.997 436.993 170.997H488.255C497.164 170.997 501.626 181.768 495.326 188.068L444.064 239.33C437.765 245.629 426.993 241.168 426.993 232.259V180.997Z" fill="#E875A6"/>
<path d="M587.801 170.997H522.397C516.874 170.997 512.397 175.474 512.397 180.997V246.401C512.397 251.923 516.874 256.401 522.397 256.401H587.801C593.324 256.401 597.801 251.923 597.801 246.401V180.997C597.801 175.474 593.324 170.997 587.801 170.997Z" fill="#F5A8D6"/>
<path d="M512.397 180.997C512.397 175.474 516.874 170.997 522.397 170.997H573.659C582.568 170.997 587.03 181.768 580.73 188.068L529.468 239.33C523.168 245.629 512.397 241.168 512.397 232.259V180.997Z" fill="#F3B7D0"/>
<path d="M673.196 171.001H607.797C602.274 171.001 597.797 175.478 597.797 181.001V246.401C597.797 251.923 602.274 256.401 607.797 256.401H673.196C678.719 256.401 683.196 251.923 683.196 246.401V181.001C683.196 175.478 678.719 171.001 673.196 171.001Z" fill="white"/>
<path d="M630.497 170.997H607.802C602.279 170.997 597.802 175.474 597.802 180.997V203.692C597.802 209.215 602.279 213.692 607.802 213.692H630.497C636.02 213.692 640.497 209.215 640.497 203.692V180.997C640.497 175.474 636.02 170.997 630.497 170.997Z" fill="#F9CDE8"/>
<path d="M597.802 195.139C597.802 186.23 608.573 181.768 614.873 188.068L623.426 196.621C629.725 202.92 625.264 213.692 616.355 213.692H607.802C602.279 213.692 597.802 209.215 597.802 203.692V195.139Z" fill="#F7D1E1"/>
<path d="M673.192 170.997H650.497C644.974 170.997 640.497 175.474 640.497 180.997V203.692C640.497 209.215 644.974 213.692 650.497 213.692H673.192C678.715 213.692 683.192 209.215 683.192 203.692V180.997C683.192 175.474 678.715 170.997 673.192 170.997Z" fill="#FBDEF0"/>
<path d="M666.121 188.068C672.42 181.768 683.192 186.23 683.192 195.139V203.692C683.192 209.215 678.715 213.692 673.192 213.692H664.639C655.73 213.692 651.268 202.92 657.568 196.621L666.121 188.068Z" fill="#ED91B8"/>
<path d="M630.497 213.705H607.802C602.279 213.705 597.802 218.183 597.802 223.705V246.401C597.802 251.924 602.279 256.401 607.802 256.401H630.497C636.02 256.401 640.497 251.924 640.497 246.401V223.705C640.497 218.183 636.02 213.705 630.497 213.705Z" fill="#F9DCE9"/>
<path d="M597.802 223.705C597.802 218.183 602.279 213.705 607.802 213.705H616.355C625.264 213.705 629.725 224.477 623.426 230.777L614.873 239.33C608.573 245.629 597.802 241.168 597.802 232.259V223.705Z" fill="#FFFDFE"/>
<path d="M673.192 213.705H650.497C644.974 213.705 640.497 218.183 640.497 223.705V246.401C640.497 251.924 644.974 256.401 650.497 256.401H673.192C678.715 256.401 683.192 251.924 683.192 246.401V223.705C683.192 218.183 678.715 213.705 673.192 213.705Z" fill="#FAD5EB"/>
<path d="M657.568 230.776C651.268 224.477 655.73 213.705 664.639 213.705H673.192C678.715 213.705 683.192 218.183 683.192 223.705V232.259C683.192 241.168 672.42 245.629 666.121 239.33L657.568 230.776Z" fill="#F4A0D3"/>
<path d="M758.596 170.997H693.192C687.669 170.997 683.192 175.474 683.192 180.997V246.401C683.192 251.923 687.669 256.401 693.192 256.401H758.596C764.119 256.401 768.596 251.923 768.596 246.401V180.997C768.596 175.474 764.119 170.997 758.596 170.997Z" fill="#FAD6EC"/>
<path d="M683.192 195.139C683.192 186.23 693.963 181.768 700.263 188.068L751.525 239.33C757.825 245.629 753.363 256.401 744.454 256.401H693.192C687.669 256.401 683.192 251.923 683.192 246.401V195.139Z" fill="#E2508E"/>
<path d="M844 170.997H778.596C773.073 170.997 768.596 175.474 768.596 180.997V246.401C768.596 251.923 773.073 256.401 778.596 256.401H844C849.523 256.401 854 251.923 854 246.401V180.997C854 175.474 849.523 170.997 844 170.997Z" fill="#E35490"/>
<path d="M768.596 180.997C768.596 175.474 773.073 170.997 778.596 170.997H829.858C838.767 170.997 843.229 181.768 836.929 188.068L785.667 239.33C779.368 245.629 768.596 241.168 768.596 232.258V180.997Z" fill="#F5ABD8"/>
</svg>
