<svg width="854" height="514" viewBox="0 0 854 514" fill="none" xmlns="http://www.w3.org/2000/svg">
<path d="M853.065 41.3246L853.065 10.0001C853.065 4.47727 848.588 0.000121875 843.065 0.000121633L806.041 0.000120015C800.518 0.000119773 796.041 4.47728 796.041 10.0001L796.041 41.3246C796.041 46.8475 800.518 51.3246 806.041 51.3246L843.065 51.3246C848.588 51.3246 853.065 46.8475 853.065 41.3246Z" fill="#FEF9FB"/>
<path d="M827.007 0.000120931C836.171 0.000121332 840.508 11.3019 833.696 17.4329L812.73 36.3032C806.295 42.0951 796.041 37.5282 796.041 28.8704L796.041 10.0001C796.041 4.47728 800.518 0.000119773 806.041 0.000120015L827.007 0.000120931Z" fill="#F6C6DA"/>
<path d="M827.007 205.29C836.171 205.29 840.508 193.988 833.696 187.857L812.73 168.987C806.295 163.195 796.041 167.762 796.041 176.42L796.041 195.29C796.041 200.813 800.518 205.29 806.041 205.29L827.007 205.29Z" fill="#F4A2D4"/>
<path d="M827.141 51.3805C836.306 51.3805 840.643 62.6823 833.831 68.8133L812.865 87.6835C806.43 93.4754 796.175 88.9085 796.175 80.2507L796.175 61.3805C796.175 55.8577 800.653 51.3805 806.175 51.3805L827.141 51.3805Z" fill="#F4A2D4"/>
<path d="M853.065 246.609L853.065 215.287C853.065 209.765 848.588 205.287 843.065 205.287L806.044 205.287C800.521 205.287 796.044 209.765 796.044 215.287L796.044 246.609C796.044 252.132 800.521 256.609 806.044 256.609L843.065 256.609C848.588 256.609 853.065 252.132 853.065 246.609Z" fill="white"/>
<path d="M853.065 220.948L853.065 215.29C853.065 209.767 848.588 205.29 843.065 205.29L834.558 205.29C829.035 205.29 824.558 209.767 824.558 215.29L824.558 220.948C824.558 226.471 829.035 230.948 834.558 230.948L843.065 230.948C848.588 230.948 853.065 226.471 853.065 220.948Z" fill="#F5A4D4"/>
<path d="M837.752 217.166C843.138 222.013 839.709 230.948 832.464 230.948C828.097 230.948 824.558 227.409 824.558 223.042C824.558 216.197 832.665 212.587 837.752 217.166Z" fill="#E14A8A"/>
<path d="M853.065 246.606L853.065 240.948C853.065 235.425 848.588 230.948 843.065 230.948L834.558 230.948C829.035 230.948 824.558 235.425 824.558 240.948L824.558 246.606C824.558 252.129 829.035 256.606 834.558 256.606L843.065 256.606C848.588 256.606 853.065 252.129 853.065 246.606Z" fill="#F6AED9"/>
<path d="M832.463 230.948C839.709 230.948 843.138 239.883 837.752 244.731C832.665 249.31 824.558 245.699 824.558 238.854C824.558 234.488 828.097 230.948 832.463 230.948Z" fill="#F6B2DB"/>
<path d="M824.558 220.948L824.558 215.29C824.558 209.767 820.08 205.29 814.558 205.29L806.05 205.29C800.527 205.29 796.05 209.767 796.05 215.29L796.05 220.948C796.05 226.471 800.527 230.948 806.05 230.948L814.558 230.948C820.08 230.948 824.558 226.471 824.558 220.948Z" fill="#F8C5E4"/>
<path d="M816.652 205.29C821.018 205.29 824.558 208.83 824.558 213.196C824.558 220.041 816.45 223.651 811.363 219.072C805.977 214.225 809.406 205.29 816.652 205.29Z" fill="#FAD4EB"/>
<path d="M824.558 246.606L824.558 240.948C824.558 235.425 820.08 230.948 814.558 230.948L806.05 230.948C800.527 230.948 796.05 235.425 796.05 240.948L796.05 246.606C796.05 252.129 800.527 256.606 806.05 256.606L814.558 256.606C820.08 256.606 824.558 252.129 824.558 246.606Z" fill="#E45C95"/>
<path d="M811.363 242.824C816.45 238.245 824.558 241.856 824.558 248.7C824.558 253.067 821.018 256.606 816.652 256.606C809.406 256.606 805.977 247.671 811.363 242.824Z" fill="#F9C8E5"/>
<path d="M853.065 272.265L853.065 266.606C853.065 261.083 848.588 256.606 843.065 256.606L834.558 256.606C829.035 256.606 824.558 261.083 824.558 266.606L824.558 272.265C824.558 277.787 829.035 282.265 834.558 282.265L843.065 282.265C848.588 282.265 853.065 277.787 853.065 272.265Z" fill="#E871A3"/>
<path d="M824.558 272.265L824.558 266.606C824.558 261.083 820.08 256.606 814.558 256.606L806.05 256.606C800.527 256.606 796.05 261.083 796.05 266.606L796.05 272.265C796.05 277.787 800.527 282.265 806.05 282.265L814.558 282.265C820.08 282.265 824.558 277.787 824.558 272.265Z" fill="#DA216F"/>
<path d="M824.558 297.931L824.558 292.273C824.558 286.75 820.08 282.273 814.558 282.273L806.05 282.273C800.527 282.273 796.05 286.75 796.05 292.273L796.05 297.931C796.05 303.454 800.527 307.931 806.05 307.931L814.558 307.931C820.08 307.931 824.558 303.454 824.558 297.931Z" fill="#F7BBDF"/>
<path d="M853.065 400.58L853.065 369.255C853.065 363.733 848.588 359.255 843.065 359.255L806.041 359.255C800.518 359.255 796.041 363.733 796.041 369.255L796.041 400.58C796.041 406.103 800.518 410.58 806.041 410.58L843.065 410.58C848.588 410.58 853.065 406.103 853.065 400.58Z" fill="#EFA0C1"/>
<path d="M827.007 359.255C836.171 359.255 840.508 370.557 833.696 376.688L812.73 395.559C806.295 401.35 796.041 396.784 796.041 388.126L796.041 369.255C796.041 363.733 800.518 359.255 806.041 359.255L827.007 359.255Z" fill="#FAD6EC"/>
<path d="M833.696 444.464C840.508 450.595 836.171 461.896 827.007 461.896L806.041 461.896C800.518 461.896 796.041 457.419 796.041 451.896L796.041 433.026C796.041 424.368 806.295 419.801 812.73 425.593L833.696 444.464Z" fill="#EB84AF"/>
<path d="M853.065 503.218L853.065 471.896C853.065 466.374 848.588 461.896 843.065 461.896L806.044 461.896C800.521 461.896 796.044 466.374 796.044 471.896L796.044 503.218C796.044 508.741 800.521 513.218 806.044 513.218L843.065 513.218C848.588 513.218 853.065 508.741 853.065 503.218Z" fill="white"/>
<path d="M853.065 477.555L853.065 471.896C853.065 466.374 848.588 461.896 843.065 461.896L834.558 461.896C829.035 461.896 824.558 466.374 824.558 471.896L824.558 477.555C824.558 483.077 829.035 487.555 834.558 487.555L843.065 487.555C848.588 487.555 853.065 483.077 853.065 477.555Z" fill="#EF9EC0"/>
<path d="M845.159 461.896C849.526 461.896 853.065 465.436 853.065 469.802C853.065 476.647 844.958 480.258 839.871 475.679C834.485 470.831 837.914 461.896 845.159 461.896Z" fill="#FBE4ED"/>
<path d="M853.065 503.213L853.065 497.555C853.065 492.032 848.588 487.555 843.065 487.555L834.558 487.555C829.035 487.555 824.558 492.032 824.558 497.555L824.558 503.213C824.558 508.736 829.035 513.213 834.558 513.213L843.065 513.213C848.588 513.213 853.065 508.736 853.065 503.213Z" fill="#F8C5E4"/>
<path d="M839.871 499.43C844.958 494.851 853.065 498.462 853.065 505.307C853.065 509.673 849.526 513.213 845.159 513.213C837.914 513.213 834.485 504.278 839.871 499.43Z" fill="#FDF5F9"/>
<path d="M824.558 477.555L824.558 471.896C824.558 466.374 820.08 461.896 814.558 461.896L806.05 461.896C800.527 461.896 796.05 466.374 796.05 471.896L796.05 477.555C796.05 483.077 800.527 487.555 806.05 487.555L814.558 487.555C820.08 487.555 824.558 483.077 824.558 477.555Z" fill="#F4A2D4"/>
<path d="M803.956 461.896C811.201 461.896 814.63 470.831 809.245 475.679C804.157 480.258 796.05 476.647 796.05 469.802C796.05 465.436 799.589 461.896 803.956 461.896Z" fill="#F7BDE0"/>
<path d="M824.558 503.213L824.558 497.555C824.558 492.032 820.08 487.555 814.558 487.555L806.05 487.555C800.527 487.555 796.05 492.032 796.05 497.555L796.05 503.213C796.05 508.736 800.527 513.213 806.05 513.213L814.558 513.213C820.08 513.213 824.558 508.736 824.558 503.213Z" fill="#E14B8A"/>
<path d="M809.245 499.43C814.63 504.278 811.201 513.213 803.956 513.213C799.589 513.213 796.05 509.673 796.05 505.307C796.05 498.462 804.157 494.851 809.245 499.43Z" fill="#F4A1D3"/>
<path d="M796.043 41.3219L796.043 10.0001C796.043 4.47727 791.566 0.000121875 786.043 0.000121633L749.022 0.000120015C743.499 0.000119774 739.022 4.47728 739.022 10.0001L739.022 41.3219C739.022 46.8448 743.499 51.3219 749.022 51.3219L786.043 51.3219C791.566 51.3219 796.043 46.8448 796.043 41.3219Z" fill="white"/>
<path d="M796.041 15.6583L796.041 10.0001C796.041 4.47727 791.563 0.000121875 786.041 0.000121633L777.533 0.000121261C772.01 0.00012102 767.533 4.47727 767.533 10.0001L767.533 15.6583C767.533 21.1812 772.01 25.6583 777.533 25.6583L786.041 25.6583C791.563 25.6583 796.041 21.1812 796.041 15.6583Z" fill="#F9C7E5"/>
<path d="M782.846 11.876C787.933 7.29697 796.041 10.9075 796.041 17.7524C796.041 22.1187 792.501 25.6583 788.135 25.6583C780.889 25.6583 777.46 16.7232 782.846 11.876Z" fill="#DD3079"/>
<path d="M796.041 41.3165L796.041 35.6583C796.041 30.1355 791.563 25.6583 786.041 25.6583L777.533 25.6583C772.01 25.6583 767.533 30.1355 767.533 35.6583L767.533 41.3165C767.533 46.8394 772.01 51.3165 777.533 51.3165L786.041 51.3165C791.563 51.3165 796.041 46.8394 796.041 41.3165Z" fill="#F6C7DB"/>
<path d="M782.846 37.5342C787.933 32.9552 796.041 36.5657 796.041 43.4106C796.041 47.7769 792.501 51.3165 788.135 51.3165C780.889 51.3165 777.46 42.3814 782.846 37.5342Z" fill="#F49ED2"/>
<path d="M767.533 15.6583L767.533 10.0001C767.533 4.47727 763.056 0.000121875 757.533 0.000121633L749.025 0.000121261C743.502 0.00012102 739.025 4.47727 739.025 10.0001L739.025 15.6583C739.025 21.1812 743.502 25.6583 749.025 25.6583L757.533 25.6583C763.056 25.6583 767.533 21.1812 767.533 15.6583Z" fill="#E24F8D"/>
<path d="M752.22 11.876C757.605 16.7232 754.176 25.6583 746.931 25.6583C742.564 25.6583 739.025 22.1187 739.025 17.7524C739.025 10.9075 747.132 7.29697 752.22 11.876Z" fill="#F4A2D4"/>
<path d="M767.532 41.3165L767.532 35.6583C767.532 30.1355 763.055 25.6583 757.532 25.6583L749.024 25.6583C743.502 25.6583 739.024 30.1355 739.024 35.6583L739.024 41.3165C739.024 46.8394 743.502 51.3165 749.024 51.3165L757.532 51.3165C763.055 51.3165 767.532 46.8394 767.532 41.3165Z" fill="#FBDBEE"/>
<path d="M754.337 37.5342C759.425 32.9552 767.532 36.5657 767.532 43.4106C767.532 47.7769 763.993 51.3165 759.626 51.3165C752.381 51.3165 748.952 42.3814 754.337 37.5342Z" fill="#DB2471"/>
<path d="M796.041 92.6491L796.041 61.3246C796.041 55.8017 791.563 51.3246 786.041 51.3246L749.016 51.3246C743.493 51.3246 739.016 55.8017 739.016 61.3246L739.016 92.6491C739.016 98.1719 743.493 102.649 749.016 102.649L786.041 102.649C791.563 102.649 796.041 98.1719 796.041 92.6491Z" fill="#E875A5"/>
<path d="M769.982 51.3246C779.147 51.3246 783.484 62.6264 776.672 68.7574L755.706 87.6276C749.27 93.4195 739.016 88.8526 739.016 80.1948L739.016 61.3246C739.016 55.8017 743.493 51.3246 749.016 51.3246L769.982 51.3246Z" fill="#FAD2EA"/>
<path d="M796.041 143.965L796.041 112.641C796.041 107.118 791.563 102.641 786.041 102.641L749.016 102.641C743.493 102.641 739.016 107.118 739.016 112.641L739.016 143.966C739.016 149.488 743.493 153.966 749.016 153.966L786.041 153.966C791.563 153.966 796.041 149.488 796.041 143.965Z" fill="#EB84AF"/>
<path d="M779.351 117.662C785.786 111.871 796.041 116.437 796.041 125.095L796.041 143.965C796.041 149.488 791.563 153.966 786.041 153.966L765.074 153.966C755.91 153.966 751.573 142.664 758.385 136.533L779.351 117.662Z" fill="#F4A3D4"/>
<path d="M796.041 195.29L796.041 163.965C796.041 158.443 791.563 153.965 786.041 153.965L749.016 153.965C743.493 153.965 739.016 158.443 739.016 163.965L739.016 195.29C739.016 200.813 743.493 205.29 749.016 205.29L786.041 205.29C791.563 205.29 796.041 200.813 796.041 195.29Z" fill="#FDECF6"/>
<path d="M776.672 187.857C783.484 193.988 779.147 205.29 769.982 205.29L749.016 205.29C743.493 205.29 739.016 200.813 739.016 195.29L739.016 176.42C739.016 167.762 749.27 163.195 755.706 168.987L776.672 187.857Z" fill="#FEFBFD"/>
<path d="M796.041 246.615L796.041 215.29C796.041 209.767 791.563 205.29 786.041 205.29L749.016 205.29C743.493 205.29 739.016 209.767 739.016 215.29L739.016 246.615C739.016 252.137 743.493 256.615 749.016 256.615L786.041 256.615C791.563 256.615 796.041 252.137 796.041 246.615Z" fill="#FDF0F8"/>
<path d="M786.041 205.29C791.563 205.29 796.041 209.767 796.041 215.29L796.041 234.16C796.041 242.818 785.786 247.385 779.351 241.593L758.385 222.723C751.573 216.592 755.91 205.29 765.074 205.29L786.041 205.29Z" fill="#FEFAFD"/>
<path d="M796.041 297.931L796.041 266.606C796.041 261.083 791.563 256.606 786.041 256.606L749.016 256.606C743.493 256.606 739.016 261.083 739.016 266.606L739.016 297.931C739.016 303.454 743.493 307.931 749.016 307.931L786.041 307.931C791.563 307.931 796.041 303.454 796.041 297.931Z" fill="#F0A3C3"/>
<path d="M769.982 256.606C779.147 256.606 783.484 267.908 776.672 274.039L755.706 292.909C749.27 298.701 739.016 294.134 739.016 285.477L739.016 266.606C739.016 261.083 743.493 256.606 749.016 256.606L769.982 256.606Z" fill="#FCE5F3"/>
<path d="M796.041 349.255L796.041 317.931C796.041 312.408 791.563 307.931 786.041 307.931L749.016 307.931C743.493 307.931 739.016 312.408 739.016 317.931L739.016 349.255C739.016 354.778 743.493 359.255 749.016 359.255L786.041 359.255C791.563 359.255 796.041 354.778 796.041 349.255Z" fill="#FDECF6"/>
<path d="M776.672 341.823C783.484 347.954 779.147 359.255 769.982 359.255L749.016 359.255C743.493 359.255 739.016 354.778 739.016 349.255L739.016 330.385C739.016 321.727 749.27 317.16 755.706 322.952L776.672 341.823Z" fill="#F2AECB"/>
<path d="M796.041 400.58L796.041 369.255C796.041 363.733 791.563 359.255 786.041 359.255L749.016 359.255C743.493 359.255 739.016 363.733 739.016 369.255L739.016 400.58C739.016 406.103 743.493 410.58 749.016 410.58L786.041 410.58C791.563 410.58 796.041 406.103 796.041 400.58Z" fill="#F9CBE7"/>
<path d="M786.041 359.255C791.563 359.255 796.041 363.733 796.041 369.255L796.041 388.126C796.041 396.784 785.786 401.35 779.351 395.559L758.385 376.688C751.573 370.557 755.91 359.255 765.074 359.255L786.041 359.255Z" fill="#EE9ABD"/>
<path d="M796.041 451.896L796.041 420.572C796.041 415.049 791.563 410.572 786.041 410.572L749.016 410.572C743.493 410.572 739.016 415.049 739.016 420.572L739.016 451.896C739.016 457.419 743.493 461.896 749.016 461.896L786.041 461.896C791.563 461.896 796.041 457.419 796.041 451.896Z" fill="#FFFDFE"/>
<path d="M786.041 410.572C791.563 410.572 796.041 415.049 796.041 420.572L796.041 439.442C796.041 448.1 785.786 452.667 779.351 446.875L758.385 428.005C751.573 421.874 755.91 410.572 765.074 410.572L786.041 410.572Z" fill="#F5A5D5"/>
<path d="M796.043 503.218L796.043 471.896C796.043 466.374 791.566 461.896 786.043 461.896L749.022 461.896C743.499 461.896 739.022 466.374 739.022 471.896L739.022 503.218C739.022 508.741 743.499 513.218 749.022 513.218L786.043 513.218C791.566 513.218 796.043 508.741 796.043 503.218Z" fill="white"/>
<path d="M796.041 477.555L796.041 471.896C796.041 466.374 791.563 461.896 786.041 461.896L777.533 461.896C772.01 461.896 767.533 466.374 767.533 471.896L767.533 477.555C767.533 483.077 772.01 487.555 777.533 487.555L786.041 487.555C791.563 487.555 796.041 483.077 796.041 477.555Z" fill="#F2AFCB"/>
<path d="M780.728 473.772C786.113 478.619 782.684 487.555 775.439 487.555C771.072 487.555 767.533 484.015 767.533 479.649C767.533 472.804 775.64 469.193 780.728 473.772Z" fill="#F6C8DB"/>
<path d="M796.041 503.213L796.041 497.555C796.041 492.032 791.563 487.555 786.041 487.555L777.533 487.555C772.01 487.555 767.533 492.032 767.533 497.555L767.533 503.213C767.533 508.736 772.01 513.213 777.533 513.213L786.041 513.213C791.563 513.213 796.041 508.736 796.041 503.213Z" fill="#E35692"/>
<path d="M775.439 487.555C782.684 487.555 786.113 496.49 780.728 501.337C775.64 505.916 767.533 502.305 767.533 495.461C767.533 491.094 771.072 487.555 775.439 487.555Z" fill="#DF3C81"/>
<path d="M767.532 477.555L767.532 471.896C767.532 466.374 763.055 461.896 757.532 461.896L749.024 461.896C743.502 461.896 739.024 466.374 739.024 471.896L739.024 477.555C739.024 483.077 743.502 487.555 749.024 487.555L757.532 487.555C763.055 487.555 767.532 483.077 767.532 477.555Z" fill="#ED93B9"/>
<path d="M759.626 461.896C763.993 461.896 767.532 465.436 767.532 469.802C767.532 476.647 759.425 480.258 754.337 475.679C748.952 470.831 752.381 461.896 759.626 461.896Z" fill="#F6C9DC"/>
<path d="M767.532 503.213L767.532 497.555C767.532 492.032 763.055 487.555 757.532 487.555L749.024 487.555C743.502 487.555 739.024 492.032 739.024 497.555L739.024 503.213C739.024 508.736 743.502 513.213 749.024 513.213L757.532 513.213C763.055 513.213 767.532 508.736 767.532 503.213Z" fill="#FDF0F8"/>
<path d="M739.024 41.3246L739.024 10.0001C739.024 4.47727 734.547 0.000121875 729.024 0.000121633L692 0.000120015C686.477 0.000119773 682 4.47728 682 10.0001L682 41.3246C682 46.8475 686.477 51.3246 692 51.3246L729.024 51.3246C734.547 51.3246 739.024 46.8475 739.024 41.3246Z" fill="#FEF6F9"/>
<path d="M729.024 0.000121633C734.547 0.000121875 739.024 4.47727 739.024 10.0001L739.024 28.8703C739.024 37.5282 728.77 42.0951 722.335 36.3032L701.369 17.4329C694.557 11.3019 698.894 0.000120316 708.058 0.000120717L729.024 0.000121633Z" fill="#EE98BC"/>
<path d="M739.021 92.6436L739.021 61.3218C739.021 55.7989 734.544 51.3218 729.021 51.3218L692 51.3218C686.477 51.3218 682 55.7989 682 61.3218L682 92.6436C682 98.1664 686.477 102.644 692 102.644L729.021 102.644C734.544 102.644 739.021 98.1664 739.021 92.6436Z" fill="white"/>
<path d="M739.024 66.9828L739.024 61.3246C739.024 55.8017 734.547 51.3246 729.024 51.3246L720.517 51.3246C714.994 51.3246 710.517 55.8017 710.517 61.3246L710.517 66.9828C710.517 72.5056 714.994 76.9828 720.517 76.9828L729.024 76.9828C734.547 76.9828 739.024 72.5056 739.024 66.9828Z" fill="#FACFE9"/>
<path d="M723.711 63.2005C729.097 68.0477 725.668 76.9828 718.422 76.9828C714.056 76.9828 710.517 73.4432 710.517 69.0768C710.517 62.232 718.624 58.6214 723.711 63.2005Z" fill="#F8C6E4"/>
<path d="M739.024 92.6411L739.024 86.9829C739.024 81.4601 734.547 76.9829 729.024 76.9829L720.517 76.9829C714.994 76.9829 710.517 81.4601 710.517 86.9829L710.517 92.6411C710.517 98.164 714.994 102.641 720.517 102.641L729.024 102.641C734.547 102.641 739.024 98.164 739.024 92.6411Z" fill="#F6AFDA"/>
<path d="M725.83 88.8588C730.917 84.2798 739.024 87.8903 739.024 94.7352C739.024 99.1015 735.485 102.641 731.118 102.641C723.873 102.641 720.444 93.706 725.83 88.8588Z" fill="#E6689D"/>
<path d="M710.508 66.9828L710.508 61.3246C710.508 55.8017 706.031 51.3246 700.508 51.3246L692 51.3246C686.477 51.3246 682 55.8017 682 61.3246L682 66.9828C682 72.5056 686.477 76.9828 692 76.9828L700.508 76.9828C706.031 76.9828 710.508 72.5056 710.508 66.9828Z" fill="#FAD4EB"/>
<path d="M695.195 63.2005C700.58 68.0477 697.151 76.9828 689.906 76.9828C685.54 76.9828 682 73.4432 682 69.0768C682 62.232 690.107 58.6214 695.195 63.2005Z" fill="#DE357C"/>
<path d="M710.508 92.6411L710.508 86.9829C710.508 81.4601 706.031 76.9829 700.508 76.9829L692 76.9829C686.477 76.9829 682 81.4601 682 86.9829L682 92.6411C682 98.164 686.477 102.641 692 102.641L700.508 102.641C706.031 102.641 710.508 98.164 710.508 92.6411Z" fill="#F8C4E4"/>
<path d="M702.602 76.9829C706.968 76.9829 710.508 80.5225 710.508 84.8889C710.508 91.7337 702.401 95.3443 697.313 90.7652C691.927 85.918 695.356 76.9829 702.602 76.9829Z" fill="#F7CCDE"/>
<path d="M739.024 143.965L739.024 112.641C739.024 107.118 734.547 102.641 729.024 102.641L692 102.641C686.477 102.641 682 107.118 682 112.641L682 143.966C682 149.488 686.477 153.966 692 153.966L729.024 153.966C734.547 153.966 739.024 149.488 739.024 143.965Z" fill="#EE95BA"/>
<path d="M729.024 102.641C734.547 102.641 739.024 107.118 739.024 112.641L739.024 131.511C739.024 140.169 728.77 144.736 722.335 138.944L701.369 120.074C694.557 113.943 698.894 102.641 708.058 102.641L729.024 102.641Z" fill="#FAD7EC"/>
<path d="M739.021 195.287L739.021 163.965C739.021 158.443 734.544 153.965 729.021 153.965L692 153.965C686.477 153.965 682 158.443 682 163.965L682 195.287C682 200.81 686.477 205.287 692 205.287L729.021 205.287C734.544 205.287 739.021 200.81 739.021 195.287Z" fill="white"/>
<path d="M739.024 169.624L739.024 163.965C739.024 158.443 734.547 153.965 729.024 153.965L720.517 153.965C714.994 153.965 710.517 158.443 710.517 163.965L710.517 169.624C710.517 175.146 714.994 179.624 720.517 179.624L729.024 179.624C734.547 179.624 739.024 175.147 739.024 169.624Z" fill="#DD327A"/>
<path d="M731.118 153.965C735.485 153.965 739.024 157.505 739.024 161.871C739.024 168.716 730.917 172.327 725.83 167.748C720.444 162.901 723.873 153.965 731.118 153.965Z" fill="#F7CCDE"/>
<path d="M739.024 195.282L739.024 189.624C739.024 184.101 734.547 179.624 729.024 179.624L720.517 179.624C714.994 179.624 710.517 184.101 710.517 189.624L710.517 195.282C710.517 200.805 714.994 205.282 720.517 205.282L729.024 205.282C734.547 205.282 739.024 200.805 739.024 195.282Z" fill="#FDEAF5"/>
<path d="M725.83 191.5C730.917 186.921 739.024 190.531 739.024 197.376C739.024 201.742 735.485 205.282 731.118 205.282C723.873 205.282 720.444 196.347 725.83 191.5Z" fill="#FEF4FA"/>
<path d="M710.508 169.624L710.508 163.965C710.508 158.443 706.031 153.965 700.508 153.965L692 153.965C686.477 153.965 682 158.443 682 163.965L682 169.624C682 175.146 686.477 179.624 692 179.624L700.508 179.624C706.031 179.624 710.508 175.147 710.508 169.624Z" fill="#E55F97"/>
<path d="M697.313 165.841C702.401 161.262 710.508 164.873 710.508 171.718C710.508 176.084 706.968 179.624 702.602 179.624C695.356 179.624 691.927 170.689 697.313 165.841Z" fill="#E04285"/>
<path d="M710.508 195.282L710.508 189.624C710.508 184.101 706.031 179.624 700.508 179.624L692 179.624C686.477 179.624 682 184.101 682 189.624L682 195.282C682 200.805 686.477 205.282 692 205.282L700.508 205.282C706.031 205.282 710.508 200.805 710.508 195.282Z" fill="#FAE2EC"/>
<path d="M697.313 191.5C702.401 186.921 710.508 190.531 710.508 197.376C710.508 201.742 706.968 205.282 702.602 205.282C695.356 205.282 691.927 196.347 697.313 191.5Z" fill="#FAD1EA"/>
<path d="M739.021 246.609L739.021 215.287C739.021 209.765 734.544 205.287 729.021 205.287L692 205.287C686.477 205.287 682 209.765 682 215.287L682 246.609C682 252.132 686.477 256.609 692 256.609L729.021 256.609C734.544 256.609 739.021 252.132 739.021 246.609Z" fill="white"/>
<path d="M739.024 220.948L739.024 215.29C739.024 209.767 734.547 205.29 729.024 205.29L720.517 205.29C714.994 205.29 710.517 209.767 710.517 215.29L710.517 220.948C710.517 226.471 714.994 230.948 720.517 230.948L729.024 230.948C734.547 230.948 739.024 226.471 739.024 220.948Z" fill="#F49ED2"/>
<path d="M723.711 217.166C729.097 222.013 725.668 230.948 718.422 230.948C714.056 230.948 710.517 227.409 710.517 223.042C710.517 216.197 718.624 212.587 723.711 217.166Z" fill="#F4A0D2"/>
<path d="M739.024 246.606L739.024 240.948C739.024 235.425 734.547 230.948 729.024 230.948L720.517 230.948C714.994 230.948 710.517 235.425 710.517 240.948L710.517 246.606C710.517 252.129 714.994 256.606 720.517 256.606L729.024 256.606C734.547 256.606 739.024 252.129 739.024 246.606Z" fill="#E14888"/>
<path d="M731.118 230.948C735.485 230.948 739.024 234.488 739.024 238.854C739.024 245.699 730.917 249.31 725.83 244.731C720.444 239.883 723.873 230.948 731.118 230.948Z" fill="#F5ACD8"/>
<path d="M710.508 220.948L710.508 215.29C710.508 209.767 706.031 205.29 700.508 205.29L692 205.29C686.477 205.29 682 209.767 682 215.29L682 220.948C682 226.471 686.477 230.948 692 230.948L700.508 230.948C706.031 230.948 710.508 226.471 710.508 220.948Z" fill="#FEF8FC"/>
<path d="M695.195 217.166C700.58 222.013 697.151 230.948 689.906 230.948C685.54 230.948 682 227.409 682 223.042C682 216.197 690.107 212.587 695.195 217.166Z" fill="#F6B0DA"/>
<path d="M710.508 246.606L710.508 240.948C710.508 235.425 706.031 230.948 700.508 230.948L692 230.948C686.477 230.948 682 235.425 682 240.948L682 246.606C682 252.129 686.477 256.606 692 256.606L700.508 256.606C706.031 256.606 710.508 252.129 710.508 246.606Z" fill="#F5C5D9"/>
<path d="M689.906 230.948C697.151 230.948 700.58 239.883 695.195 244.731C690.107 249.31 682 245.699 682 238.854C682 234.488 685.54 230.948 689.906 230.948Z" fill="#FDEEF7"/>
<path d="M739.024 297.931L739.024 266.606C739.024 261.083 734.547 256.606 729.024 256.606L692 256.606C686.477 256.606 682 261.083 682 266.606L682 297.931C682 303.454 686.477 307.931 692 307.931L729.024 307.931C734.547 307.931 739.024 303.454 739.024 297.931Z" fill="#E6699E"/>
<path d="M729.024 256.606C734.547 256.606 739.024 261.083 739.024 266.606L739.024 285.477C739.024 294.134 728.77 298.701 722.335 292.909L701.369 274.039C694.557 267.908 698.894 256.606 708.058 256.606L729.024 256.606Z" fill="#E875A6"/>
<path d="M739.024 349.255L739.024 317.931C739.024 312.408 734.547 307.931 729.024 307.931L692 307.931C686.477 307.931 682 312.408 682 317.931L682 349.255C682 354.778 686.477 359.255 692 359.255L729.024 359.255C734.547 359.255 739.024 354.778 739.024 349.255Z" fill="#F5A8D6"/>
<path d="M729.024 307.931C734.547 307.931 739.024 312.408 739.024 317.931L739.024 336.801C739.024 345.459 728.77 350.026 722.335 344.234L701.369 325.364C694.557 319.233 698.894 307.931 708.058 307.931L729.024 307.931Z" fill="#F3B7D0"/>
<path d="M739.021 400.574L739.021 369.253C739.021 363.73 734.544 359.253 729.021 359.253L692 359.253C686.477 359.253 682 363.73 682 369.253L682 400.574C682 406.097 686.477 410.574 692 410.574L729.021 410.574C734.544 410.574 739.021 406.097 739.021 400.574Z" fill="white"/>
<path d="M739.024 374.914L739.024 369.255C739.024 363.733 734.547 359.255 729.024 359.255L720.517 359.255C714.994 359.255 710.517 363.733 710.517 369.255L710.517 374.914C710.517 380.437 714.994 384.914 720.517 384.914L729.024 384.914C734.547 384.914 739.024 380.437 739.024 374.914Z" fill="#F9CDE8"/>
<path d="M718.422 359.255C725.668 359.255 729.097 368.191 723.711 373.038C718.624 377.617 710.517 374.006 710.517 367.161C710.517 362.795 714.056 359.255 718.422 359.255Z" fill="#F7D1E1"/>
<path d="M739.024 400.572L739.024 394.914C739.024 389.391 734.547 384.914 729.024 384.914L720.517 384.914C714.994 384.914 710.517 389.391 710.517 394.914L710.517 400.572C710.517 406.095 714.994 410.572 720.517 410.572L729.024 410.572C734.547 410.572 739.024 406.095 739.024 400.572Z" fill="#FBDEF0"/>
<path d="M723.711 396.789C729.097 401.637 725.668 410.572 718.422 410.572C714.056 410.572 710.517 407.032 710.517 402.666C710.517 395.821 718.624 392.21 723.711 396.789Z" fill="#ED91B8"/>
<path d="M710.508 374.914L710.508 369.255C710.508 363.733 706.031 359.255 700.508 359.255L692 359.255C686.477 359.255 682 363.733 682 369.255L682 374.914C682 380.437 686.477 384.914 692 384.914L700.508 384.914C706.031 384.914 710.508 380.437 710.508 374.914Z" fill="#F9DCE9"/>
<path d="M702.602 359.255C706.968 359.255 710.508 362.795 710.508 367.161C710.508 374.006 702.401 377.617 697.313 373.038C691.927 368.191 695.356 359.255 702.602 359.255Z" fill="#FFFDFE"/>
<path d="M710.508 400.572L710.508 394.914C710.508 389.391 706.031 384.914 700.508 384.914L692 384.914C686.477 384.914 682 389.391 682 394.914L682 400.572C682 406.095 686.477 410.572 692 410.572L700.508 410.572C706.031 410.572 710.508 406.095 710.508 400.572Z" fill="#FAD5EB"/>
<path d="M697.313 396.789C702.401 392.21 710.508 395.821 710.508 402.666C710.508 407.032 706.968 410.572 702.602 410.572C695.356 410.572 691.927 401.637 697.313 396.789Z" fill="#F4A0D3"/>
<path d="M739.024 451.896L739.024 420.572C739.024 415.049 734.547 410.572 729.024 410.572L692 410.572C686.477 410.572 682 415.049 682 420.572L682 451.896C682 457.419 686.477 461.896 692 461.896L729.024 461.896C734.547 461.896 739.024 457.419 739.024 451.896Z" fill="#FAD6EC"/>
<path d="M712.966 410.572C722.13 410.572 726.467 421.874 719.655 428.005L698.689 446.875C692.254 452.667 682 448.1 682 439.442L682 420.572C682 415.049 686.477 410.572 692 410.572L712.966 410.572Z" fill="#E2508E"/>
<path d="M739.024 503.221L739.024 471.896C739.024 466.374 734.547 461.896 729.024 461.896L692 461.896C686.477 461.896 682 466.374 682 471.896L682 503.221C682 508.744 686.477 513.221 692 513.221L729.024 513.221C734.547 513.221 739.024 508.744 739.024 503.221Z" fill="#E35490"/>
<path d="M729.024 461.896C734.547 461.896 739.024 466.374 739.024 471.896L739.024 490.767C739.024 499.424 728.77 503.991 722.335 498.199L701.369 479.329C694.557 473.198 698.894 461.896 708.058 461.896L729.024 461.896Z" fill="#F5ABD8"/>
<path d="M75.404 0.202026H10C4.47715 0.202026 0 4.67918 0 10.202V75.6061C0 81.1289 4.47715 85.6061 10 85.6061H75.404C80.9269 85.6061 85.404 81.1289 85.404 75.6061V10.202C85.404 4.67918 80.9269 0.202026 75.404 0.202026Z" fill="#FEF9FB"/>
<path d="M0 24.3442C0 15.4351 10.7714 10.9734 17.0711 17.2731L68.333 68.535C74.6326 74.8346 70.171 85.6061 61.2619 85.6061H10C4.47715 85.6061 0 81.1289 0 75.6061V24.3442Z" fill="#F6C6DA"/>
<path d="M341.603 24.3442C341.603 15.4351 330.831 10.9734 324.531 17.2731L273.27 68.535C266.97 74.8346 271.432 85.6061 280.341 85.6061H331.603C337.125 85.6061 341.603 81.1289 341.603 75.6061V24.3442Z" fill="#F4A2D4"/>
<path d="M85.4971 24.1421C85.4971 15.2331 96.2685 10.7714 102.568 17.0711L153.83 68.333C160.13 74.6326 155.668 85.404 146.759 85.404H95.4971C89.9742 85.404 85.4971 80.9269 85.4971 75.404V24.1421Z" fill="#F4A2D4"/>
<path d="M416.998 0.202026H351.598C346.075 0.202026 341.598 4.67916 341.598 10.202V75.6016C341.598 81.1244 346.075 85.6016 351.598 85.6016H416.998C422.521 85.6016 426.998 81.1244 426.998 75.6016V10.202C426.998 4.67918 422.521 0.202026 416.998 0.202026Z" fill="white"/>
<path d="M374.298 0.202026H351.603C346.08 0.202026 341.603 4.67917 341.603 10.202V32.8973C341.603 38.4201 346.08 42.8973 351.603 42.8973H374.298C379.821 42.8973 384.298 38.4201 384.298 32.8973V10.202C384.298 4.67918 379.821 0.202026 374.298 0.202026Z" fill="#F5A4D4"/>
<path d="M367.227 17.2731C373.526 10.9734 384.298 15.4351 384.298 24.3442V32.8973C384.298 38.4201 379.821 42.8973 374.298 42.8973H365.745C356.836 42.8973 352.374 32.1259 358.674 25.8262L367.227 17.2731Z" fill="#E14A8A"/>
<path d="M416.993 0.202026H394.298C388.775 0.202026 384.298 4.67917 384.298 10.202V32.8973C384.298 38.4201 388.775 42.8973 394.298 42.8973H416.993C422.516 42.8973 426.993 38.4201 426.993 32.8973V10.202C426.993 4.67918 422.516 0.202026 416.993 0.202026Z" fill="#F6AED9"/>
<path d="M384.298 24.3442C384.298 15.4351 395.069 10.9735 401.369 17.2731L409.922 25.8262C416.222 32.1259 411.76 42.8973 402.851 42.8973H394.298C388.775 42.8973 384.298 38.4201 384.298 32.8973V24.3442Z" fill="#F6B2DB"/>
<path d="M374.298 42.8972H351.603C346.08 42.8972 341.603 47.3744 341.603 52.8972V75.5925C341.603 81.1153 346.08 85.5925 351.603 85.5925H374.298C379.821 85.5925 384.298 81.1153 384.298 75.5925V52.8972C384.298 47.3744 379.821 42.8972 374.298 42.8972Z" fill="#F8C5E4"/>
<path d="M341.603 52.8972C341.603 47.3744 346.08 42.8972 351.603 42.8972H360.156C369.065 42.8972 373.526 53.6686 367.227 59.9683L358.674 68.5214C352.374 74.8211 341.603 70.3594 341.603 61.4503V52.8972Z" fill="#FAD4EB"/>
<path d="M416.993 42.8972H394.298C388.775 42.8972 384.298 47.3744 384.298 52.8972V75.5925C384.298 81.1153 388.775 85.5925 394.298 85.5925H416.993C422.516 85.5925 426.993 81.1153 426.993 75.5925V52.8972C426.993 47.3744 422.516 42.8972 416.993 42.8972Z" fill="#E45C95"/>
<path d="M401.369 59.9683C395.069 53.6686 399.531 42.8972 408.44 42.8972H416.993C422.516 42.8972 426.993 47.3744 426.993 52.8972V61.4503C426.993 70.3594 416.222 74.8211 409.922 68.5214L401.369 59.9683Z" fill="#F9C8E5"/>
<path d="M459.688 0.202026H436.993C431.47 0.202026 426.993 4.67917 426.993 10.202V32.8973C426.993 38.4201 431.47 42.8973 436.993 42.8973H459.688C465.211 42.8973 469.688 38.4201 469.688 32.8973V10.202C469.688 4.67918 465.211 0.202026 459.688 0.202026Z" fill="#E871A3"/>
<path d="M459.688 42.8972H436.993C431.47 42.8972 426.993 47.3744 426.993 52.8972V75.5925C426.993 81.1153 431.47 85.5925 436.993 85.5925H459.688C465.211 85.5925 469.688 81.1153 469.688 75.5925V52.8972C469.688 47.3744 465.211 42.8972 459.688 42.8972Z" fill="#DA216F"/>
<path d="M502.397 42.8972H479.702C474.179 42.8972 469.702 47.3744 469.702 52.8972V75.5925C469.702 81.1153 474.179 85.5925 479.702 85.5925H502.397C507.92 85.5925 512.397 81.1153 512.397 75.5925V52.8972C512.397 47.3744 507.92 42.8972 502.397 42.8972Z" fill="#F7BBDF"/>
<path d="M673.206 0.202026H607.802C602.279 0.202026 597.802 4.67918 597.802 10.202V75.6061C597.802 81.1289 602.279 85.6061 607.802 85.6061H673.206C678.729 85.6061 683.206 81.1289 683.206 75.6061V10.202C683.206 4.67918 678.729 0.202026 673.206 0.202026Z" fill="#EFA0C1"/>
<path d="M597.802 24.3442C597.802 15.4351 608.573 10.9734 614.873 17.2731L666.135 68.535C672.434 74.8346 667.973 85.6061 659.064 85.6061H607.802C602.279 85.6061 597.802 81.1289 597.802 75.6061V24.3442Z" fill="#FAD6EC"/>
<path d="M751.524 17.2731C757.824 10.9734 768.595 15.4351 768.595 24.3442V75.6061C768.595 81.1289 764.118 85.6061 758.595 85.6061H707.334C698.424 85.6061 693.963 74.8346 700.262 68.535L751.524 17.2731Z" fill="#EB84AF"/>
<path d="M843.995 0.202026H778.596C773.073 0.202026 768.596 4.67916 768.596 10.202V75.6016C768.596 81.1244 773.073 85.6016 778.596 85.6016H843.995C849.518 85.6016 853.995 81.1244 853.995 75.6016V10.202C853.995 4.67918 849.518 0.202026 843.995 0.202026Z" fill="white"/>
<path d="M801.291 0.202026H778.596C773.073 0.202026 768.596 4.67917 768.596 10.202V32.8973C768.596 38.4201 773.073 42.8973 778.596 42.8973H801.291C806.814 42.8973 811.291 38.4201 811.291 32.8973V10.202C811.291 4.67918 806.814 0.202026 801.291 0.202026Z" fill="#EF9EC0"/>
<path d="M768.596 10.202C768.596 4.67917 773.073 0.202026 778.596 0.202026H787.149C796.058 0.202026 800.52 10.9734 794.22 17.2731L785.667 25.8262C779.367 32.1259 768.596 27.6642 768.596 18.7552V10.202Z" fill="#FBE4ED"/>
<path d="M843.986 0.202026H821.291C815.768 0.202026 811.291 4.67917 811.291 10.202V32.8973C811.291 38.4201 815.768 42.8973 821.291 42.8973H843.986C849.509 42.8973 853.986 38.4201 853.986 32.8973V10.202C853.986 4.67918 849.509 0.202026 843.986 0.202026Z" fill="#F8C5E4"/>
<path d="M828.362 17.2731C822.062 10.9735 826.524 0.202026 835.433 0.202026H843.986C849.509 0.202026 853.986 4.67918 853.986 10.202V18.7551C853.986 27.6642 843.215 32.1258 836.915 25.8262L828.362 17.2731Z" fill="#FDF5F9"/>
<path d="M801.291 42.8972H778.596C773.073 42.8972 768.596 47.3744 768.596 52.8972V75.5925C768.596 81.1153 773.073 85.5925 778.596 85.5925H801.291C806.814 85.5925 811.291 81.1153 811.291 75.5925V52.8972C811.291 47.3744 806.814 42.8972 801.291 42.8972Z" fill="#F4A2D4"/>
<path d="M768.596 67.0393C768.596 58.1303 779.367 53.6686 785.667 59.9683L794.22 68.5214C800.52 74.8211 796.058 85.5925 787.149 85.5925H778.596C773.073 85.5925 768.596 81.1153 768.596 75.5925V67.0393Z" fill="#F7BDE0"/>
<path d="M843.986 42.8972H821.291C815.768 42.8972 811.291 47.3744 811.291 52.8972V75.5925C811.291 81.1153 815.768 85.5925 821.291 85.5925H843.986C849.509 85.5925 853.986 81.1153 853.986 75.5925V52.8972C853.986 47.3744 849.509 42.8972 843.986 42.8972Z" fill="#E14B8A"/>
<path d="M836.915 59.9683C843.215 53.6687 853.986 58.1303 853.986 67.0394V75.5925C853.986 81.1153 849.509 85.5925 843.986 85.5925H835.433C826.524 85.5925 822.062 74.8211 828.362 68.5214L836.915 59.9683Z" fill="#F4A1D3"/>
<path d="M75.3995 85.6016H10C4.47715 85.6016 0 90.0787 0 95.6015V161.001C0 166.524 4.47717 171.001 10 171.001H75.3995C80.9224 171.001 85.3995 166.524 85.3995 161.001V95.6016C85.3995 90.0787 80.9224 85.6016 75.3995 85.6016Z" fill="white"/>
<path d="M32.6953 85.606H10C4.47715 85.606 0 90.0831 0 95.6059V118.301C0 123.824 4.47714 128.301 9.99999 128.301H32.6953C38.2181 128.301 42.6953 123.824 42.6953 118.301V95.606C42.6953 90.0831 38.2181 85.606 32.6953 85.606Z" fill="#F9C7E5"/>
<path d="M17.0711 102.677C10.7714 96.3774 15.2331 85.606 24.1421 85.606H32.6953C38.2181 85.606 42.6953 90.0831 42.6953 95.606V104.159C42.6953 113.068 31.9238 117.53 25.6242 111.23L17.0711 102.677Z" fill="#DD3079"/>
<path d="M75.3906 85.606H52.6953C47.1725 85.606 42.6953 90.0831 42.6953 95.6059V118.301C42.6953 123.824 47.1725 128.301 52.6953 128.301H75.3906C80.9134 128.301 85.3906 123.824 85.3906 118.301V95.606C85.3906 90.0831 80.9134 85.606 75.3906 85.606Z" fill="#F6C7DB"/>
<path d="M59.7664 102.677C53.4667 96.3774 57.9284 85.606 66.8375 85.606H75.3906C80.9134 85.606 85.3906 90.0831 85.3906 95.606V104.159C85.3906 113.068 74.6192 117.53 68.3195 111.23L59.7664 102.677Z" fill="#F49ED2"/>
<path d="M32.6953 128.301H10C4.47715 128.301 0 132.778 0 138.301V160.997C0 166.519 4.47714 170.997 9.99999 170.997H32.6953C38.2181 170.997 42.6953 166.519 42.6953 160.996V138.301C42.6953 132.778 38.2181 128.301 32.6953 128.301Z" fill="#E24F8D"/>
<path d="M25.6242 145.372C31.9239 139.073 42.6953 143.534 42.6953 152.443V160.996C42.6953 166.519 38.2181 170.997 32.6953 170.997H24.1421C15.2331 170.997 10.7714 160.225 17.0711 153.925L25.6242 145.372Z" fill="#F4A2D4"/>
<path d="M75.3906 128.301H52.6953C47.1725 128.301 42.6953 132.778 42.6953 138.301V160.997C42.6953 166.519 47.1725 170.997 52.6953 170.997H75.3906C80.9134 170.997 85.3906 166.519 85.3906 160.996V138.301C85.3906 132.778 80.9134 128.301 75.3906 128.301Z" fill="#FBDBEE"/>
<path d="M59.7664 145.372C53.4667 139.073 57.9284 128.301 66.8375 128.301H75.3906C80.9134 128.301 85.3906 132.778 85.3906 138.301V146.854C85.3906 155.763 74.6192 160.225 68.3195 153.925L59.7664 145.372Z" fill="#DB2471"/>
<path d="M160.808 85.606H95.4043C89.8814 85.606 85.4043 90.0831 85.4043 95.606V161.01C85.4043 166.533 89.8814 171.01 95.4043 171.01H160.808C166.331 171.01 170.808 166.533 170.808 161.01V95.606C170.808 90.0831 166.331 85.606 160.808 85.606Z" fill="#E875A5"/>
<path d="M85.4043 109.748C85.4043 100.839 96.1757 96.3774 102.475 102.677L153.737 153.939C160.037 160.239 155.575 171.01 146.666 171.01H95.4043C89.8814 171.01 85.4043 166.533 85.4043 161.01V109.748Z" fill="#FAD2EA"/>
<path d="M246.198 85.606H180.794C175.272 85.606 170.794 90.0831 170.794 95.606V161.01C170.794 166.533 175.272 171.01 180.794 171.01H246.198C251.721 171.01 256.198 166.533 256.198 161.01V95.606C256.198 90.0831 251.721 85.606 246.198 85.606Z" fill="#EB84AF"/>
<path d="M187.866 102.677C181.566 96.3774 186.028 85.606 194.937 85.606H246.198C251.721 85.606 256.198 90.0831 256.198 95.606V146.868C256.198 155.777 245.427 160.239 239.127 153.939L187.866 102.677Z" fill="#F4A3D4"/>
<path d="M331.603 85.606H266.199C260.676 85.606 256.199 90.0831 256.199 95.606V161.01C256.199 166.533 260.676 171.01 266.199 171.01H331.603C337.126 171.01 341.603 166.533 341.603 161.01V95.606C341.603 90.0831 337.126 85.606 331.603 85.606Z" fill="#FDECF6"/>
<path d="M324.532 102.677C330.831 96.3774 341.603 100.839 341.603 109.748V161.01C341.603 166.533 337.126 171.01 331.603 171.01H280.341C271.432 171.01 266.97 160.239 273.27 153.939L324.532 102.677Z" fill="#FEFBFD"/>
<path d="M417.007 85.606H351.603C346.08 85.606 341.603 90.0831 341.603 95.606V161.01C341.603 166.533 346.08 171.01 351.603 171.01H417.007C422.529 171.01 427.007 166.533 427.007 161.01V95.606C427.007 90.0831 422.529 85.606 417.007 85.606Z" fill="#FDF0F8"/>
<path d="M341.603 95.606C341.603 90.0831 346.08 85.606 351.603 85.606H402.864C411.773 85.606 416.235 96.3774 409.936 102.677L358.674 153.939C352.374 160.239 341.603 155.777 341.603 146.868V95.606Z" fill="#FEFAFD"/>
<path d="M502.397 85.606H436.993C431.47 85.606 426.993 90.0831 426.993 95.606V161.01C426.993 166.533 431.47 171.01 436.993 171.01H502.397C507.92 171.01 512.397 166.533 512.397 161.01V95.606C512.397 90.0831 507.92 85.606 502.397 85.606Z" fill="#F0A3C3"/>
<path d="M426.993 109.748C426.993 100.839 437.765 96.3774 444.064 102.677L495.326 153.939C501.626 160.239 497.164 171.01 488.255 171.01H436.993C431.47 171.01 426.993 166.533 426.993 161.01V109.748Z" fill="#FCE5F3"/>
<path d="M587.802 85.606H522.397C516.875 85.606 512.397 90.0831 512.397 95.606V161.01C512.397 166.533 516.875 171.01 522.397 171.01H587.802C593.324 171.01 597.802 166.533 597.802 161.01V95.606C597.802 90.0831 593.324 85.606 587.802 85.606Z" fill="#FDECF6"/>
<path d="M580.73 102.677C587.03 96.3774 597.802 100.839 597.802 109.748V161.01C597.802 166.533 593.324 171.01 587.802 171.01H536.54C527.631 171.01 523.169 160.239 529.469 153.939L580.73 102.677Z" fill="#F2AECB"/>
<path d="M673.206 85.606H607.802C602.279 85.606 597.802 90.0831 597.802 95.606V161.01C597.802 166.533 602.279 171.01 607.802 171.01H673.206C678.729 171.01 683.206 166.533 683.206 161.01V95.606C683.206 90.0831 678.729 85.606 673.206 85.606Z" fill="#F9CBE7"/>
<path d="M597.802 95.606C597.802 90.0831 602.279 85.606 607.802 85.606H659.064C667.973 85.606 672.434 96.3774 666.135 102.677L614.873 153.939C608.573 160.239 597.802 155.777 597.802 146.868V95.606Z" fill="#EE9ABD"/>
<path d="M758.595 85.606H693.191C687.669 85.606 683.191 90.0831 683.191 95.606V161.01C683.191 166.533 687.669 171.01 693.191 171.01H758.595C764.118 171.01 768.595 166.533 768.595 161.01V95.606C768.595 90.0831 764.118 85.606 758.595 85.606Z" fill="#FFFDFE"/>
<path d="M683.191 95.606C683.191 90.0831 687.669 85.606 693.191 85.606H744.453C753.362 85.606 757.824 96.3774 751.524 102.677L700.262 153.939C693.963 160.239 683.191 155.777 683.191 146.868V95.606Z" fill="#F5A5D5"/>
<path d="M843.995 85.6016H778.596C773.073 85.6016 768.596 90.0787 768.596 95.6015V161.001C768.596 166.524 773.073 171.001 778.596 171.001H843.995C849.518 171.001 853.995 166.524 853.995 161.001V95.6016C853.995 90.0787 849.518 85.6016 843.995 85.6016Z" fill="white"/>
<path d="M801.291 85.606H778.596C773.073 85.606 768.596 90.0831 768.596 95.6059V118.301C768.596 123.824 773.073 128.301 778.596 128.301H801.291C806.814 128.301 811.291 123.824 811.291 118.301V95.606C811.291 90.0831 806.814 85.606 801.291 85.606Z" fill="#F2AFCB"/>
<path d="M794.22 102.677C800.52 96.3774 811.291 100.839 811.291 109.748V118.301C811.291 123.824 806.814 128.301 801.291 128.301H792.738C783.829 128.301 779.367 117.53 785.667 111.23L794.22 102.677Z" fill="#F6C8DB"/>
<path d="M843.986 85.606H821.291C815.768 85.606 811.291 90.0831 811.291 95.6059V118.301C811.291 123.824 815.768 128.301 821.291 128.301H843.986C849.509 128.301 853.986 123.824 853.986 118.301V95.606C853.986 90.0831 849.509 85.606 843.986 85.606Z" fill="#E35692"/>
<path d="M811.291 109.748C811.291 100.839 822.062 96.3774 828.362 102.677L836.915 111.23C843.215 117.53 838.753 128.301 829.844 128.301H821.291C815.768 128.301 811.291 123.824 811.291 118.301V109.748Z" fill="#DF3C81"/>
<path d="M801.291 128.301H778.596C773.073 128.301 768.596 132.778 768.596 138.301V160.997C768.596 166.519 773.073 170.997 778.596 170.997H801.291C806.814 170.997 811.291 166.519 811.291 160.996V138.301C811.291 132.778 806.814 128.301 801.291 128.301Z" fill="#ED93B9"/>
<path d="M768.596 138.301C768.596 132.778 773.073 128.301 778.596 128.301H787.149C796.058 128.301 800.52 139.073 794.22 145.372L785.667 153.925C779.367 160.225 768.596 155.763 768.596 146.854V138.301Z" fill="#F6C9DC"/>
<path d="M843.986 128.301H821.291C815.768 128.301 811.291 132.778 811.291 138.301V160.997C811.291 166.519 815.768 170.997 821.291 170.997H843.986C849.509 170.997 853.986 166.519 853.986 160.996V138.301C853.986 132.778 849.509 128.301 843.986 128.301Z" fill="#FDF0F8"/>
<path d="M75.404 170.997H10C4.47715 170.997 0 175.474 0 180.997V246.401C0 251.923 4.47715 256.401 10 256.401H75.404C80.9269 256.401 85.404 251.923 85.404 246.401V180.997C85.404 175.474 80.9269 170.997 75.404 170.997Z" fill="#FEF6F9"/>
<path d="M0 180.997C0 175.474 4.47715 170.997 10 170.997H61.2619C70.171 170.997 74.6326 181.768 68.333 188.068L17.0711 239.33C10.7714 245.629 0 241.168 0 232.259V180.997Z" fill="#EE98BC"/>
<path d="M160.799 171.001H95.3994C89.8766 171.001 85.3994 175.478 85.3994 181.001V246.401C85.3994 251.923 89.8766 256.401 95.3994 256.401H160.799C166.322 256.401 170.799 251.923 170.799 246.401V181.001C170.799 175.478 166.322 171.001 160.799 171.001Z" fill="white"/>
<path d="M118.1 170.997H95.4043C89.8815 170.997 85.4043 175.474 85.4043 180.997V203.692C85.4043 209.215 89.8814 213.692 95.4043 213.692H118.1C123.622 213.692 128.1 209.215 128.1 203.692V180.997C128.1 175.474 123.622 170.997 118.1 170.997Z" fill="#FACFE9"/>
<path d="M111.028 188.068C117.328 181.768 128.1 186.23 128.1 195.139V203.692C128.1 209.215 123.622 213.692 118.1 213.692H109.546C100.637 213.692 96.1757 202.92 102.475 196.621L111.028 188.068Z" fill="#F8C6E4"/>
<path d="M160.795 170.997H138.1C132.577 170.997 128.1 175.474 128.1 180.997V203.692C128.1 209.215 132.577 213.692 138.1 213.692H160.795C166.318 213.692 170.795 209.215 170.795 203.692V180.997C170.795 175.474 166.318 170.997 160.795 170.997Z" fill="#F6AFDA"/>
<path d="M145.171 188.068C138.871 181.768 143.333 170.997 152.242 170.997H160.795C166.318 170.997 170.795 175.474 170.795 180.997V189.55C170.795 198.459 160.023 202.92 153.724 196.621L145.171 188.068Z" fill="#E6689D"/>
<path d="M118.1 213.705H95.4043C89.8815 213.705 85.4043 218.183 85.4043 223.705V246.401C85.4043 251.924 89.8814 256.401 95.4043 256.401H118.1C123.622 256.401 128.1 251.924 128.1 246.401V223.705C128.1 218.183 123.622 213.705 118.1 213.705Z" fill="#FAD4EB"/>
<path d="M111.029 230.776C117.328 224.477 128.1 228.939 128.1 237.848V246.401C128.1 251.924 123.622 256.401 118.1 256.401H109.546C100.637 256.401 96.1757 245.629 102.475 239.33L111.029 230.776Z" fill="#DE357C"/>
<path d="M160.795 213.705H138.1C132.577 213.705 128.1 218.183 128.1 223.705V246.401C128.1 251.924 132.577 256.401 138.1 256.401H160.795C166.318 256.401 170.795 251.924 170.795 246.401V223.705C170.795 218.183 166.318 213.705 160.795 213.705Z" fill="#F8C4E4"/>
<path d="M128.1 223.705C128.1 218.183 132.577 213.705 138.1 213.705H146.653C155.562 213.705 160.023 224.477 153.724 230.777L145.171 239.33C138.871 245.629 128.1 241.168 128.1 232.259V223.705Z" fill="#F7CCDE"/>
<path d="M246.198 170.997H180.794C175.272 170.997 170.794 175.474 170.794 180.997V246.401C170.794 251.923 175.272 256.401 180.794 256.401H246.198C251.721 256.401 256.198 251.923 256.198 246.401V180.997C256.198 175.474 251.721 170.997 246.198 170.997Z" fill="#EE95BA"/>
<path d="M170.794 180.997C170.794 175.474 175.272 170.997 180.794 170.997H232.056C240.965 170.997 245.427 181.768 239.127 188.068L187.866 239.33C181.566 245.629 170.794 241.168 170.794 232.259V180.997Z" fill="#FAD7EC"/>
<path d="M331.598 171.001H266.199C260.676 171.001 256.199 175.478 256.199 181.001V246.401C256.199 251.923 260.676 256.401 266.199 256.401H331.598C337.121 256.401 341.598 251.923 341.598 246.401V181.001C341.598 175.478 337.121 171.001 331.598 171.001Z" fill="white"/>
<path d="M288.894 170.997H266.199C260.676 170.997 256.199 175.474 256.199 180.997V203.692C256.199 209.215 260.676 213.692 266.199 213.692H288.894C294.417 213.692 298.894 209.215 298.894 203.692V180.997C298.894 175.474 294.417 170.997 288.894 170.997Z" fill="#DD327A"/>
<path d="M256.199 180.997C256.199 175.474 260.676 170.997 266.199 170.997H274.752C283.661 170.997 288.123 181.768 281.823 188.068L273.27 196.621C266.97 202.92 256.199 198.459 256.199 189.55V180.997Z" fill="#F7CCDE"/>
<path d="M331.589 170.997H308.894C303.371 170.997 298.894 175.474 298.894 180.997V203.692C298.894 209.215 303.371 213.692 308.894 213.692H331.589C337.112 213.692 341.589 209.215 341.589 203.692V180.997C341.589 175.474 337.112 170.997 331.589 170.997Z" fill="#FDEAF5"/>
<path d="M315.965 188.068C309.665 181.768 314.127 170.997 323.036 170.997H331.589C337.112 170.997 341.589 175.474 341.589 180.997V189.55C341.589 198.459 330.818 202.92 324.518 196.621L315.965 188.068Z" fill="#FEF4FA"/>
<path d="M288.894 213.705H266.199C260.676 213.705 256.199 218.183 256.199 223.705V246.401C256.199 251.924 260.676 256.401 266.199 256.401H288.894C294.417 256.401 298.894 251.924 298.894 246.401V223.705C298.894 218.183 294.417 213.705 288.894 213.705Z" fill="#E55F97"/>
<path d="M273.27 230.777C266.97 224.477 271.432 213.705 280.341 213.705H288.894C294.417 213.705 298.894 218.183 298.894 223.705V232.259C298.894 241.168 288.123 245.629 281.823 239.33L273.27 230.777Z" fill="#E04285"/>
<path d="M331.589 213.705H308.894C303.371 213.705 298.894 218.183 298.894 223.705V246.401C298.894 251.924 303.371 256.401 308.894 256.401H331.589C337.112 256.401 341.589 251.924 341.589 246.401V223.705C341.589 218.183 337.112 213.705 331.589 213.705Z" fill="#FAE2EC"/>
<path d="M315.965 230.777C309.665 224.477 314.127 213.705 323.036 213.705H331.589C337.112 213.705 341.589 218.183 341.589 223.705V232.259C341.589 241.168 330.818 245.629 324.518 239.33L315.965 230.777Z" fill="#FAD1EA"/>
<path d="M416.998 171.001H351.598C346.075 171.001 341.598 175.478 341.598 181.001V246.401C341.598 251.923 346.075 256.401 351.598 256.401H416.998C422.521 256.401 426.998 251.923 426.998 246.401V181.001C426.998 175.478 422.521 171.001 416.998 171.001Z" fill="white"/>
<path d="M374.298 170.997H351.603C346.08 170.997 341.603 175.474 341.603 180.997V203.692C341.603 209.215 346.08 213.692 351.603 213.692H374.298C379.821 213.692 384.298 209.215 384.298 203.692V180.997C384.298 175.474 379.821 170.997 374.298 170.997Z" fill="#F49ED2"/>
<path d="M367.227 188.068C373.526 181.768 384.298 186.23 384.298 195.139V203.692C384.298 209.215 379.821 213.692 374.298 213.692H365.745C356.836 213.692 352.374 202.92 358.674 196.621L367.227 188.068Z" fill="#F4A0D2"/>
<path d="M416.993 170.997H394.298C388.775 170.997 384.298 175.474 384.298 180.997V203.692C384.298 209.215 388.775 213.692 394.298 213.692H416.993C422.516 213.692 426.993 209.215 426.993 203.692V180.997C426.993 175.474 422.516 170.997 416.993 170.997Z" fill="#E14888"/>
<path d="M384.298 180.997C384.298 175.474 388.775 170.997 394.298 170.997H402.851C411.76 170.997 416.222 181.768 409.922 188.068L401.369 196.621C395.069 202.92 384.298 198.459 384.298 189.55V180.997Z" fill="#F5ACD8"/>
<path d="M374.298 213.705H351.603C346.08 213.705 341.603 218.183 341.603 223.705V246.401C341.603 251.924 346.08 256.401 351.603 256.401H374.298C379.821 256.401 384.298 251.924 384.298 246.401V223.705C384.298 218.183 379.821 213.705 374.298 213.705Z" fill="#FEF8FC"/>
<path d="M367.227 230.776C373.526 224.477 384.298 228.939 384.298 237.848V246.401C384.298 251.924 379.821 256.401 374.298 256.401H365.745C356.836 256.401 352.374 245.629 358.674 239.33L367.227 230.776Z" fill="#F6B0DA"/>
<path d="M416.993 213.705H394.298C388.775 213.705 384.298 218.183 384.298 223.705V246.401C384.298 251.924 388.775 256.401 394.298 256.401H416.993C422.516 256.401 426.993 251.924 426.993 246.401V223.705C426.993 218.183 422.516 213.705 416.993 213.705Z" fill="#F5C5D9"/>
<path d="M384.298 237.848C384.298 228.939 395.069 224.477 401.369 230.777L409.922 239.33C416.222 245.629 411.76 256.401 402.851 256.401H394.298C388.775 256.401 384.298 251.924 384.298 246.401V237.848Z" fill="#FDEEF7"/>
<path d="M502.397 170.997H436.993C431.47 170.997 426.993 175.474 426.993 180.997V246.401C426.993 251.923 431.47 256.401 436.993 256.401H502.397C507.92 256.401 512.397 251.923 512.397 246.401V180.997C512.397 175.474 507.92 170.997 502.397 170.997Z" fill="#E6699E"/>
<path d="M426.993 180.997C426.993 175.474 431.47 170.997 436.993 170.997H488.255C497.164 170.997 501.626 181.768 495.326 188.068L444.064 239.33C437.765 245.629 426.993 241.168 426.993 232.259V180.997Z" fill="#E875A6"/>
<path d="M587.802 170.997H522.397C516.875 170.997 512.397 175.474 512.397 180.997V246.401C512.397 251.923 516.875 256.401 522.397 256.401H587.802C593.324 256.401 597.802 251.923 597.802 246.401V180.997C597.802 175.474 593.324 170.997 587.802 170.997Z" fill="#F5A8D6"/>
<path d="M512.397 180.997C512.397 175.474 516.875 170.997 522.397 170.997H573.659C582.568 170.997 587.03 181.768 580.73 188.068L529.469 239.33C523.169 245.629 512.397 241.168 512.397 232.259V180.997Z" fill="#F3B7D0"/>
<path d="M673.196 171.001H607.797C602.274 171.001 597.797 175.478 597.797 181.001V246.401C597.797 251.923 602.274 256.401 607.797 256.401H673.196C678.719 256.401 683.196 251.923 683.196 246.401V181.001C683.196 175.478 678.719 171.001 673.196 171.001Z" fill="white"/>
<path d="M630.497 170.997H607.802C602.279 170.997 597.802 175.474 597.802 180.997V203.692C597.802 209.215 602.279 213.692 607.802 213.692H630.497C636.02 213.692 640.497 209.215 640.497 203.692V180.997C640.497 175.474 636.02 170.997 630.497 170.997Z" fill="#F9CDE8"/>
<path d="M597.802 195.139C597.802 186.23 608.573 181.768 614.873 188.068L623.426 196.621C629.726 202.92 625.264 213.692 616.355 213.692H607.802C602.279 213.692 597.802 209.215 597.802 203.692V195.139Z" fill="#F7D1E1"/>
<path d="M673.192 170.997H650.497C644.974 170.997 640.497 175.474 640.497 180.997V203.692C640.497 209.215 644.974 213.692 650.497 213.692H673.192C678.715 213.692 683.192 209.215 683.192 203.692V180.997C683.192 175.474 678.715 170.997 673.192 170.997Z" fill="#FBDEF0"/>
<path d="M666.121 188.068C672.42 181.768 683.192 186.23 683.192 195.139V203.692C683.192 209.215 678.715 213.692 673.192 213.692H664.639C655.73 213.692 651.268 202.92 657.568 196.621L666.121 188.068Z" fill="#ED91B8"/>
<path d="M630.497 213.705H607.802C602.279 213.705 597.802 218.183 597.802 223.705V246.401C597.802 251.924 602.279 256.401 607.802 256.401H630.497C636.02 256.401 640.497 251.924 640.497 246.401V223.705C640.497 218.183 636.02 213.705 630.497 213.705Z" fill="#F9DCE9"/>
<path d="M597.802 223.705C597.802 218.183 602.279 213.705 607.802 213.705H616.355C625.264 213.705 629.726 224.477 623.426 230.777L614.873 239.33C608.573 245.629 597.802 241.168 597.802 232.259V223.705Z" fill="#FFFDFE"/>
<path d="M673.192 213.705H650.497C644.974 213.705 640.497 218.183 640.497 223.705V246.401C640.497 251.924 644.974 256.401 650.497 256.401H673.192C678.715 256.401 683.192 251.924 683.192 246.401V223.705C683.192 218.183 678.715 213.705 673.192 213.705Z" fill="#FAD5EB"/>
<path d="M657.568 230.776C651.268 224.477 655.73 213.705 664.639 213.705H673.192C678.715 213.705 683.192 218.183 683.192 223.705V232.259C683.192 241.168 672.42 245.629 666.121 239.33L657.568 230.776Z" fill="#F4A0D3"/>
<path d="M758.595 170.997H693.191C687.669 170.997 683.191 175.474 683.191 180.997V246.401C683.191 251.923 687.669 256.401 693.191 256.401H758.595C764.118 256.401 768.595 251.923 768.595 246.401V180.997C768.595 175.474 764.118 170.997 758.595 170.997Z" fill="#FAD6EC"/>
<path d="M683.191 195.139C683.191 186.23 693.963 181.768 700.262 188.068L751.524 239.33C757.824 245.629 753.362 256.401 744.453 256.401H693.191C687.669 256.401 683.191 251.923 683.191 246.401V195.139Z" fill="#E2508E"/>
<path d="M844 170.997H778.596C773.073 170.997 768.596 175.474 768.596 180.997V246.401C768.596 251.923 773.073 256.401 778.596 256.401H844C849.523 256.401 854 251.923 854 246.401V180.997C854 175.474 849.523 170.997 844 170.997Z" fill="#E35490"/>
<path d="M768.596 180.997C768.596 175.474 773.073 170.997 778.596 170.997H829.858C838.767 170.997 843.228 181.768 836.929 188.068L785.667 239.33C779.367 245.629 768.596 241.168 768.596 232.258V180.997Z" fill="#F5ABD8"/>
</svg>
