<svg width="24" height="24" viewBox="0 0 24 24" fill="none" xmlns="http://www.w3.org/2000/svg">
<path fill-rule="evenodd" clip-rule="evenodd" d="M11.3193 2.08172C6.14589 2.44312 2.06148 6.74558 2.06148 12C2.06148 17.4913 6.52245 21.9429 12.0253 21.9429C16.434 21.9429 20.1746 19.0851 21.4873 15.125C20.477 15.5415 19.3699 15.7714 18.2098 15.7714C13.4659 15.7714 9.62026 11.9339 9.62026 7.2C9.62026 5.28118 10.2526 3.50961 11.3193 2.08172ZM0 12C0 5.37258 5.38392 0 12.0253 0C12.6432 0 13.2509 0.0465958 13.8449 0.13662C14.2557 0.198896 14.5889 0.501304 14.6899 0.903582C14.7909 1.30586 14.6399 1.72931 14.307 1.97752C12.7114 3.16711 11.6817 5.06343 11.6817 7.2C11.6817 10.7977 14.6044 13.7143 18.2098 13.7143C19.7686 13.7143 21.1973 13.1704 22.3198 12.2614C22.6423 12.0003 23.0904 11.9578 23.4565 12.1537C23.8225 12.3497 24.0349 12.7457 23.9953 13.1583C23.4107 19.2428 18.2753 24 12.0253 24C5.38392 24 0 18.6274 0 12Z" fill="black"/>
</svg>
