<svg width="29" height="24" viewBox="0 0 29 24" fill="none" xmlns="http://www.w3.org/2000/svg">
<path d="M28.5536 3.17122C27.5099 3.63372 26.3886 3.94622 25.2099 4.08747C26.4261 3.35971 27.3361 2.21431 27.7699 0.864974C26.6272 1.54371 25.3766 2.02147 24.0724 2.27747C23.1954 1.34106 22.0337 0.720382 20.7678 0.511817C19.5019 0.303251 18.2025 0.518464 17.0714 1.12404C15.9404 1.72962 15.0409 2.69168 14.5126 3.86085C13.9843 5.03003 13.8568 6.34091 14.1499 7.58997C11.8345 7.47372 9.56943 6.87191 7.50167 5.82361C5.43392 4.7753 3.60969 3.30393 2.14739 1.50497C1.64739 2.36747 1.35989 3.36747 1.35989 4.43247C1.35933 5.39122 1.59543 6.33528 2.04724 7.18089C2.49905 8.0265 3.15259 8.74752 3.94989 9.27997C3.02524 9.25055 2.12098 9.0007 1.31239 8.55122V8.62622C1.3123 9.9709 1.77743 11.2742 2.62887 12.315C3.48031 13.3557 4.66561 14.0699 5.98364 14.3362C5.12587 14.5684 4.22656 14.6026 3.35364 14.4362C3.72551 15.5932 4.44989 16.605 5.42535 17.3299C6.40082 18.0548 7.57854 18.4564 8.79364 18.4787C6.73094 20.098 4.1835 20.9763 1.56114 20.9725C1.09662 20.9726 0.632488 20.9455 0.171143 20.8912C2.83299 22.6027 5.93157 23.511 9.09614 23.5075C19.8086 23.5075 25.6649 14.635 25.6649 6.93997C25.6649 6.68997 25.6586 6.43747 25.6474 6.18747C26.7865 5.36369 27.7698 4.34359 28.5511 3.17497L28.5536 3.17122Z" fill="black"/>
</svg>
