<svg width="657" height="264" viewBox="0 0 657 264" fill="none" xmlns="http://www.w3.org/2000/svg">
<path d="M65.7031 0.200434L0 0.200439L5.74395e-06 65.9035L65.7031 65.9035L65.7031 0.200434Z" fill="#575757"/>
<path d="M0 0.200439C1.52339e-06 17.626 6.92227 34.3378 19.244 46.6596C31.5657 58.9813 48.2776 65.9035 65.7031 65.9035L65.7031 0.200434" fill="#1F1F1F"/>
<path d="M131.399 0.200434L65.6997 0.200439L65.6997 65.9001L131.399 65.9001L131.399 0.200434Z" fill="white"/>
<path d="M98.5495 0.200437L65.7031 0.200439L65.7031 33.0468L98.5495 33.0468L98.5495 0.200437Z" fill="#E3E3E3"/>
<path d="M65.7031 33.0468C74.4145 33.0468 82.7691 29.5862 88.929 23.4263C95.0889 17.2664 98.5495 8.91183 98.5495 0.200437L65.7031 0.200439" fill="#D0D0D0"/>
<path d="M131.396 0.200437L98.5496 0.200439L98.5496 33.0468L131.396 33.0468L131.396 0.200437Z" fill="#F7F7F7"/>
<path d="M98.5496 33.0468C107.261 33.0468 115.616 29.5862 121.775 23.4263C127.935 17.2664 131.396 8.91183 131.396 0.200437L98.5496 0.200439" fill="#E6E6E6"/>
<path d="M98.5495 33.0466L65.7031 33.0466L65.7031 65.893L98.5495 65.893L98.5495 33.0466Z" fill="#E4E4E4"/>
<path d="M65.7031 33.0466C74.4145 33.0466 82.7691 36.5072 88.929 42.6671C95.0889 48.827 98.5495 57.1816 98.5495 65.893L65.7031 65.893" fill="#E5E5E5"/>
<path d="M131.396 33.0466L98.5496 33.0466L98.5496 65.893L131.396 65.893L131.396 33.0466Z" fill="#DEDEDE"/>
<path d="M98.5496 65.893C98.5496 57.1816 102.01 48.827 108.17 42.6671C114.33 36.5072 122.685 33.0466 131.396 33.0466L131.396 65.893" fill="#272727"/>
<path d="M197.099 0.200434L131.399 0.200439L131.399 65.9001L197.099 65.9001L197.099 0.200434Z" fill="white"/>
<path d="M164.242 0.200437L131.396 0.200439L131.396 33.0468L164.242 33.0468L164.242 0.200437Z" fill="#606060"/>
<path d="M131.396 33.0468C131.396 24.3354 134.857 15.9808 141.016 9.82092C147.176 3.66103 155.531 0.200437 164.242 0.200437L131.396 33.0468C140.107 33.0468 148.462 29.5862 154.622 23.4263C160.782 17.2664 164.242 8.91183 164.242 0.200437" fill="#EBEBEB"/>
<path d="M197.099 0.200437L164.253 0.200439L164.253 33.0468L197.099 33.0468L197.099 0.200437Z" fill="#E9E9E9"/>
<path d="M164.253 0.200439C164.253 4.51389 165.102 8.78509 166.753 12.7702C168.404 16.7553 170.823 20.3763 173.873 23.4263C176.923 26.4764 180.544 28.8958 184.529 30.5465C188.514 32.1972 192.786 33.0468 197.099 33.0468L197.099 0.200437" fill="#F4F4F4"/>
<path d="M164.242 33.0466L131.396 33.0466L131.396 65.893L164.242 65.893L164.242 33.0466Z" fill="#F1F1F1"/>
<path d="M131.396 65.893C131.396 57.1816 134.857 48.827 141.016 42.6671C147.176 36.5072 155.531 33.0466 164.242 33.0466L164.242 65.893" fill="#F7F7F7"/>
<path d="M197.099 33.0466L164.253 33.0466L164.253 65.893L197.099 65.893L197.099 33.0466Z" fill="#D6D6D6"/>
<path d="M164.253 65.893C164.253 61.5795 165.102 57.3083 166.753 53.3232C168.404 49.3381 170.823 45.7172 173.873 42.6671C176.923 39.617 180.544 37.1976 184.529 35.5469C188.514 33.8962 192.786 33.0466 197.099 33.0466L164.253 65.893C172.964 65.893 181.319 62.4324 187.479 56.2725C193.638 50.1126 197.099 41.758 197.099 33.0466" fill="#616161"/>
<path d="M262.802 0.200434L197.099 0.200439L197.099 65.9035L262.802 65.9035L262.802 0.200434Z" fill="#969696"/>
<path d="M197.099 0.200439C214.524 0.200438 231.236 7.12271 243.558 19.4444C255.88 31.7662 262.802 48.478 262.802 65.9035L197.099 65.9035" fill="#FEFEFE"/>
<path d="M328.505 0.200434L262.802 0.200439L262.802 65.9035L328.505 65.9035L328.505 0.200434Z" fill="#EDEDED"/>
<path d="M262.802 0.200439C280.228 0.200438 296.939 7.12271 309.261 19.4444C321.583 31.7662 328.505 48.478 328.505 65.9035L262.802 65.9035" fill="#CBCBCB"/>
<path d="M394.198 0.200434L328.498 0.200439L328.498 65.9001L394.198 65.9001L394.198 0.200434Z" fill="white"/>
<path d="M361.341 0.200437L328.495 0.200439L328.495 33.0468L361.341 33.0468L361.341 0.200437Z" fill="#E6E6E6"/>
<path d="M328.495 33.0468C328.495 24.3354 331.955 15.9808 338.115 9.82092C344.275 3.66103 352.63 0.200437 361.341 0.200437L361.341 33.0468" fill="#F5F5F5"/>
<path d="M394.198 0.200437L361.352 0.200439L361.352 33.0468L394.198 33.0468L394.198 0.200437Z" fill="#2B2B2B"/>
<path d="M361.352 0.200439C361.352 8.91184 364.812 17.2664 370.972 23.4263C377.132 29.5862 385.487 33.0468 394.198 33.0468L394.198 0.200437" fill="#5D5D5D"/>
<path d="M361.341 33.0466L328.495 33.0466L328.495 65.893L361.341 65.893L361.341 33.0466Z" fill="#DEDEDE"/>
<path d="M328.495 33.0466C337.206 33.0466 345.561 36.5072 351.721 42.6671C357.881 48.827 361.341 57.1816 361.341 65.893L328.495 33.0466C328.495 41.758 331.955 50.1126 338.115 56.2725C344.275 62.4324 352.63 65.893 361.341 65.893" fill="#656565"/>
<path d="M394.198 33.0466L361.352 33.0466L361.352 65.893L394.198 65.893L394.198 33.0466Z" fill="#E2E2E2"/>
<path d="M361.352 65.893C361.352 57.1816 364.812 48.827 370.972 42.6671C377.132 36.5072 385.487 33.0466 394.198 33.0466L394.198 65.893" fill="#ACACAC"/>
<path d="M525.597 0.200434L459.897 0.200439L459.897 65.9001L525.597 65.9001L525.597 0.200434Z" fill="white"/>
<path d="M492.747 0.200437L459.901 0.200439L459.901 33.0468L492.747 33.0468L492.747 0.200437Z" fill="#F4F4F4"/>
<path d="M459.901 0.200439C468.613 0.200439 476.967 3.66103 483.127 9.82091C489.287 15.9808 492.747 24.3354 492.747 33.0468L459.901 33.0468" fill="#AAAAAA"/>
<path d="M525.594 0.200437L492.747 0.200439L492.747 33.0468L525.594 33.0468L525.594 0.200437Z" fill="#EDEDED"/>
<path d="M492.747 0.200439C501.459 0.200439 509.813 3.66103 515.973 9.82091C522.133 15.9808 525.594 24.3354 525.594 33.0468L492.747 33.0468" fill="#EFEFEF"/>
<path d="M492.747 33.0466L459.901 33.0466L459.901 65.893L492.747 65.893L492.747 33.0466Z" fill="#CCCCCC"/>
<path d="M459.901 33.0466C468.613 33.0466 476.967 36.5072 483.127 42.6671C489.287 48.827 492.747 57.1816 492.747 65.893L459.901 65.893" fill="#393939"/>
<path d="M525.594 33.0466L492.747 33.0466L492.747 65.893L525.594 65.893L525.594 33.0466Z" fill="#818181"/>
<path d="M492.747 65.893C492.747 57.1816 496.208 48.827 502.368 42.6671C508.528 36.5072 516.882 33.0466 525.594 33.0466L525.594 65.893" fill="#FDFDFD"/>
<path d="M591.297 0.200434L525.594 0.200439L525.594 65.9035L591.297 65.9035L591.297 0.200434Z" fill="#D2D2D2"/>
<path d="M525.594 0.200439C525.594 17.626 532.516 34.3378 544.838 46.6596C557.16 58.9813 573.871 65.9035 591.297 65.9035L591.297 0.200434" fill="#969696"/>
<path d="M657 0.200434L591.297 0.200439L591.297 65.9035L657 65.9035L657 0.200434Z" fill="#F8F8F8"/>
<path d="M591.297 0.200439C608.723 0.200438 625.434 7.12271 637.756 19.4444C650.078 31.7662 657 48.478 657 65.9035L591.297 0.200439C591.297 17.626 598.219 34.3378 610.541 46.6596C622.863 58.9813 639.575 65.9035 657 65.9035" fill="#8C8C8C"/>
<path d="M65.6996 65.9001L0 65.9001L5.74365e-06 131.6L65.6997 131.6L65.6996 65.9001Z" fill="white"/>
<path d="M32.8464 65.9036L0 65.9036L2.87152e-06 98.7499L32.8464 98.7499L32.8464 65.9036Z" fill="#D4D4D4"/>
<path d="M0 65.9036C8.7114 65.9036 17.066 69.3642 23.2259 75.524C29.3858 81.6839 32.8464 90.0385 32.8464 98.7499L2.87152e-06 98.7499" fill="#CECECE"/>
<path d="M65.6928 65.9036L32.8464 65.9036L32.8464 98.7499L65.6928 98.7499L65.6928 65.9036Z" fill="#969696"/>
<path d="M32.8464 98.7499C41.5578 98.7499 49.9124 95.2893 56.0723 89.1294C62.2322 82.9696 65.6928 74.615 65.6928 65.9036L32.8464 65.9036" fill="#939393"/>
<path d="M32.8464 98.7498L0 98.7498L2.87152e-06 131.596L32.8464 131.596L32.8464 98.7498Z" fill="#F8F8F8"/>
<path d="M0 98.7498C8.7114 98.7498 17.066 102.21 23.2259 108.37C29.3858 114.53 32.8464 122.885 32.8464 131.596L0 98.7498C7.61574e-07 107.461 3.46059 115.816 9.62048 121.976C15.7804 128.136 24.135 131.596 32.8464 131.596" fill="#E6E6E6"/>
<path d="M65.6928 98.75L32.8464 98.75L32.8464 131.596L65.6928 131.596L65.6928 98.75Z" fill="#747474"/>
<path d="M32.8464 131.596C32.8464 122.885 36.307 114.53 42.4669 108.37C48.6268 102.211 56.9814 98.75 65.6928 98.75L65.6928 131.596" fill="#EFEFEF"/>
<path d="M131.406 65.9036L65.7031 65.9036L65.7031 131.607L131.406 131.607L131.406 65.9036Z" fill="#7E7E7E"/>
<path d="M65.7031 131.607C65.7031 114.181 72.6254 97.4693 84.9471 85.1476C97.2688 72.8258 113.981 65.9036 131.406 65.9036L65.7031 131.607C83.1287 131.607 99.8405 124.684 112.162 112.363C124.484 100.041 131.406 83.3291 131.406 65.9036" fill="#EEEEEE"/>
<path d="M197.099 65.9036L131.396 65.9036L131.396 131.607L197.099 131.607L197.099 65.9036Z" fill="#E7E7E7"/>
<path d="M131.396 131.607C131.396 114.181 138.318 97.4693 150.64 85.1476C162.962 72.8258 179.674 65.9036 197.099 65.9036L131.396 131.607C148.822 131.607 165.533 124.684 177.855 112.363C190.177 100.041 197.099 83.3291 197.099 65.9036" fill="#969696"/>
<path d="M262.802 65.9036L197.099 65.9036L197.099 131.607L262.802 131.607L262.802 65.9036Z" fill="#EEEEEE"/>
<path d="M197.099 65.9036C214.524 65.9036 231.236 72.8258 243.558 85.1476C255.88 97.4693 262.802 114.181 262.802 131.607L197.099 65.9036C197.099 83.3291 204.021 100.041 216.343 112.363C222.444 118.464 229.687 123.303 237.658 126.605C245.63 129.907 254.174 131.607 262.802 131.607" fill="#616161"/>
<path d="M394.198 65.9001L328.498 65.9001L328.498 131.6L394.198 131.6L394.198 65.9001Z" fill="white"/>
<path d="M361.341 65.9036L328.495 65.9036L328.495 98.7499L361.341 98.7499L361.341 65.9036Z" fill="#EDEDED"/>
<path d="M328.495 98.7499C337.206 98.7499 345.561 95.2893 351.721 89.1294C357.881 82.9696 361.341 74.615 361.341 65.9036L328.495 65.9036" fill="#D0D0D0"/>
<path d="M394.198 65.9036L361.352 65.9036L361.352 98.7499L394.198 98.7499L394.198 65.9036Z" fill="#EFEFEF"/>
<path d="M361.352 98.7499C361.352 90.0385 364.812 81.6839 370.972 75.524C377.132 69.3642 385.487 65.9036 394.198 65.9036L361.352 98.7499C370.063 98.7499 378.418 95.2893 384.577 89.1294C390.737 82.9696 394.198 74.615 394.198 65.9036" fill="#4F4F4F"/>
<path d="M361.341 98.75L328.495 98.75L328.495 131.596L361.341 131.596L361.341 98.75Z" fill="#636363"/>
<path d="M328.495 98.75C337.206 98.75 345.561 102.211 351.721 108.37C357.881 114.53 361.341 122.885 361.341 131.596L328.495 131.596" fill="#E7E7E7"/>
<path d="M394.198 98.75L361.352 98.75L361.352 131.596L394.198 131.596L394.198 98.75Z" fill="#D8D8D8"/>
<path d="M361.352 98.75C361.352 107.461 364.812 115.816 370.972 121.976C377.132 128.136 385.487 131.596 394.198 131.596L394.198 98.75" fill="#2B2B2B"/>
<path d="M427.044 65.9036L394.198 65.9036L394.198 98.7499L427.044 98.7499L427.044 65.9036Z" fill="#F2F2F2"/>
<path d="M427.044 98.75L394.198 98.75L394.198 131.596L427.044 131.596L427.044 98.75Z" fill="#CDCDCD"/>
<path d="M525.594 65.9036L492.747 65.9036L492.747 98.7499L525.594 98.7499L525.594 65.9036Z" fill="#DEDEDE"/>
<path d="M492.747 98.7499C501.459 98.7499 509.813 95.2893 515.973 89.1294C522.133 82.9696 525.594 74.615 525.594 65.9036L492.747 65.9036" fill="#D3D3D3"/>
<path d="M591.297 65.9036L525.594 65.9036L525.594 131.607L591.297 131.607L591.297 65.9036Z" fill="#D4D4D4"/>
<path d="M525.594 65.9036C534.222 65.9036 542.766 67.603 550.737 70.9049C558.709 74.2068 565.952 79.0465 572.053 85.1476C578.154 91.2487 582.994 98.4917 586.296 106.463C589.597 114.435 591.297 122.978 591.297 131.607L525.594 131.607" fill="#292929"/>
<path d="M657 65.9036L591.297 65.9036L591.297 131.607L657 131.607L657 65.9036Z" fill="#BDBDBD"/>
<path d="M591.297 65.9036C608.723 65.9036 625.434 72.8258 637.756 85.1476C650.078 97.4693 657 114.181 657 131.607L591.297 65.9036C591.297 83.3291 598.219 100.041 610.541 112.363C622.863 124.684 639.575 131.607 657 131.607" fill="#F5F5F5"/>
<path d="M65.6996 131.6L0 131.6L5.74365e-06 197.299L65.6997 197.299L65.6996 131.6Z" fill="white"/>
<path d="M32.8464 131.596L0 131.596L2.87152e-06 164.443L32.8464 164.443L32.8464 131.596Z" fill="#D4D4D4"/>
<path d="M0 131.596C8.7114 131.596 17.066 135.057 23.2259 141.217C29.3858 147.377 32.8464 155.731 32.8464 164.443L2.87152e-06 164.443" fill="#EBEBEB"/>
<path d="M65.6928 131.596L32.8464 131.596L32.8464 164.443L65.6928 164.443L65.6928 131.596Z" fill="#DADADA"/>
<path d="M32.8464 164.443C32.8464 155.731 36.307 147.377 42.4669 141.217C48.6268 135.057 56.9814 131.596 65.6928 131.596L65.6928 164.443" fill="#8B8B8B"/>
<path d="M32.8464 164.453L0 164.453L2.87152e-06 197.299L32.8464 197.299L32.8464 164.453Z" fill="#8B8B8B"/>
<path d="M0 164.453C7.61574e-07 173.165 3.46059 181.519 9.62048 187.679C15.7804 193.839 24.135 197.299 32.8464 197.299L32.8464 164.453" fill="#CCCCCC"/>
<path d="M65.6928 164.453L32.8464 164.453L32.8464 197.299L65.6928 197.299L65.6928 164.453Z" fill="#DEDEDE"/>
<path d="M32.8464 164.453C32.8464 173.165 36.307 181.519 42.4669 187.679C48.6268 193.839 56.9814 197.299 65.6928 197.299L65.6928 164.453" fill="#434343"/>
<path d="M131.406 131.596L65.7031 131.596L65.7031 197.299L131.406 197.299L131.406 131.596Z" fill="#CACACA"/>
<path d="M65.7031 197.299C65.7031 179.874 72.6254 163.162 84.9471 150.84C97.2688 138.518 113.981 131.596 131.406 131.596L65.7031 197.299C83.1287 197.299 99.8405 190.377 112.162 178.055C124.484 165.734 131.406 149.022 131.406 131.596" fill="#B3B3B3"/>
<path d="M197.099 131.6L131.399 131.6L131.399 197.299L197.099 197.299L197.099 131.6Z" fill="white"/>
<path d="M164.242 131.596L131.396 131.596L131.396 164.443L164.242 164.443L164.242 131.596Z" fill="#FCFCFC"/>
<path d="M131.396 131.596C131.396 140.308 134.857 148.662 141.016 154.822C147.176 160.982 155.531 164.443 164.242 164.443L164.242 131.596" fill="#FEFEFE"/>
<path d="M197.099 131.596L164.253 131.596L164.253 164.443L197.099 164.443L197.099 131.596Z" fill="#A9A9A9"/>
<path d="M164.253 164.443C172.964 164.443 181.319 160.982 187.479 154.822C193.638 148.662 197.099 140.308 197.099 131.596L164.253 131.596" fill="#D5D5D5"/>
<path d="M164.242 164.453L131.396 164.453L131.396 197.299L164.242 197.299L164.242 164.453Z" fill="#282828"/>
<path d="M131.396 197.299C131.396 192.986 132.246 188.715 133.896 184.73C135.547 180.745 137.966 177.124 141.016 174.074C144.067 171.024 147.687 168.604 151.673 166.953C155.658 165.303 159.929 164.453 164.242 164.453L131.396 197.299C140.107 197.299 148.462 193.839 154.622 187.679C160.782 181.519 164.242 173.165 164.242 164.453" fill="#9F9F9F"/>
<path d="M197.099 164.453L164.253 164.453L164.253 197.299L197.099 197.299L197.099 164.453Z" fill="#E8E8E8"/>
<path d="M164.253 197.299C172.964 197.299 181.319 193.839 187.479 187.679C193.638 181.519 197.099 173.165 197.099 164.453L164.253 164.453" fill="#3A3A3A"/>
<path d="M262.802 131.596L197.099 131.596L197.099 197.299L262.802 197.299L262.802 131.596Z" fill="#555555"/>
<path d="M197.099 197.299C214.524 197.299 231.236 190.377 243.558 178.055C255.88 165.734 262.802 149.022 262.802 131.596L197.099 131.596" fill="#F9F9F9"/>
<path d="M328.495 131.596L295.648 131.596L295.648 164.443L328.495 164.443L328.495 131.596Z" fill="#CDCDCD"/>
<path d="M295.648 131.596C304.36 131.596 312.714 135.057 318.874 141.217C325.034 147.377 328.495 155.731 328.495 164.443L295.648 164.443" fill="#454545"/>
<path d="M262.802 197.299C262.802 192.986 263.652 188.715 265.302 184.73C266.953 180.745 269.372 177.124 272.422 174.074C275.473 171.024 279.094 168.604 283.079 166.953C287.064 165.303 291.335 164.453 295.648 164.453L295.648 197.299" fill="#848484"/>
<path d="M328.495 164.453L295.648 164.453L295.648 197.299L328.495 197.299L328.495 164.453Z" fill="#E1E1E1"/>
<path d="M295.648 164.453C295.648 173.165 299.109 181.519 305.269 187.679C311.429 193.839 319.783 197.299 328.495 197.299L328.495 164.453" fill="#B3B3B3"/>
<path d="M394.198 131.596L328.495 131.596L328.495 197.299L394.198 197.299L394.198 131.596Z" fill="#E0E0E0"/>
<path d="M328.495 197.299C328.495 179.874 335.417 163.162 347.739 150.84C360.061 138.518 376.772 131.596 394.198 131.596L328.495 197.299C345.92 197.299 362.632 190.377 374.954 178.055C387.276 165.734 394.198 149.022 394.198 131.596" fill="#7D7D7D"/>
<path d="M459.897 131.6L394.198 131.6L394.198 197.299L459.897 197.299L459.897 131.6Z" fill="white"/>
<path d="M427.044 131.596L394.198 131.596L394.198 164.443L427.044 164.443L427.044 131.596Z" fill="#FEFEFE"/>
<path d="M394.198 164.443C402.909 164.443 411.264 160.982 417.424 154.822C423.584 148.662 427.044 140.308 427.044 131.596L394.198 131.596" fill="#FAFAFA"/>
<path d="M459.891 131.596L427.044 131.596L427.044 164.443L459.891 164.443L459.891 131.596Z" fill="#9D9D9D"/>
<path d="M427.044 131.596C435.756 131.596 444.11 135.057 450.27 141.217C456.43 147.377 459.891 155.731 459.891 164.443L427.044 164.443" fill="#D6D6D6"/>
<path d="M427.044 164.453L394.198 164.453L394.198 197.299L427.044 197.299L427.044 164.453Z" fill="#D9D9D9"/>
<path d="M394.198 197.299C394.198 192.986 395.047 188.715 396.698 184.73C398.349 180.745 400.768 177.124 403.818 174.074C406.868 171.024 410.489 168.604 414.474 166.953C418.459 165.303 422.731 164.453 427.044 164.453L427.044 197.299" fill="#E0E0E0"/>
<path d="M459.891 164.453L427.044 164.453L427.044 197.299L459.891 197.299L459.891 164.453Z" fill="#CCCCCC"/>
<path d="M427.044 164.453C435.756 164.453 444.11 167.914 450.27 174.074C456.43 180.233 459.891 188.588 459.891 197.299L427.044 164.453C427.044 173.165 430.505 181.519 436.665 187.679C442.825 193.839 451.179 197.299 459.891 197.299" fill="white"/>
<path d="M459.901 131.596C477.327 131.596 494.038 138.518 506.36 150.84C518.682 163.162 525.604 179.874 525.604 197.299L459.901 131.596C459.901 149.022 466.823 165.734 479.145 178.055C491.467 190.377 508.179 197.299 525.604 197.299" fill="#E3E3E3"/>
<path d="M558.44 131.596L525.594 131.596L525.594 164.443L558.44 164.443L558.44 131.596Z" fill="#CBCBCB"/>
<path d="M525.594 131.596C534.305 131.596 542.66 135.057 548.82 141.217C554.98 147.377 558.44 155.731 558.44 164.443L525.594 164.443" fill="#D2D2D2"/>
<path d="M558.44 164.453L525.594 164.453L525.594 197.299L558.44 197.299L558.44 164.453Z" fill="#FBFBFB"/>
<path d="M657 131.596L591.297 131.596L591.297 197.299L657 197.299L657 131.596Z" fill="#818181"/>
<path d="M591.297 131.596C608.723 131.596 625.434 138.518 637.756 150.84C650.078 163.162 657 179.874 657 197.299L591.297 131.596C591.297 149.022 598.219 165.734 610.541 178.055C622.863 190.377 639.575 197.299 657 197.299" fill="#F1F1F1"/>
<path d="M65.7031 197.299L0 197.299L5.74395e-06 263.002L65.7031 263.002L65.7031 197.299Z" fill="#D5D5D5"/>
<path d="M5.74395e-06 263.002C4.98964e-06 254.374 1.69947 245.83 5.00135 237.859C8.30324 229.887 13.1429 222.644 19.244 216.543C31.5657 204.222 48.2776 197.299 65.7031 197.299L5.74395e-06 263.002C17.4256 263.002 34.1374 256.08 46.4591 243.758C58.7808 231.437 65.7031 214.725 65.7031 197.299" fill="#E4E4E4"/>
<path d="M131.406 197.299L65.7031 197.299L65.7031 263.002L131.406 263.002L131.406 197.299Z" fill="#7E7E7E"/>
<path d="M65.7031 197.299C74.3314 197.299 82.8752 198.999 90.8466 202.301C98.8181 205.603 106.061 210.442 112.162 216.543C118.263 222.644 123.103 229.887 126.405 237.859C129.707 245.83 131.406 254.374 131.406 263.002L65.7031 263.002" fill="#CFCFCF"/>
<path d="M197.099 197.299L131.399 197.299L131.399 262.999L197.099 262.999L197.099 197.299Z" fill="white"/>
<path d="M164.242 197.299L131.396 197.299L131.396 230.146L164.242 230.146L164.242 197.299Z" fill="#F3F3F3"/>
<path d="M131.396 197.299C140.107 197.299 148.462 200.76 154.622 206.92C160.782 213.08 164.242 221.434 164.242 230.146L131.396 197.299C131.396 206.011 134.857 214.365 141.016 220.525C147.176 226.685 155.531 230.146 164.242 230.146" fill="#D2D2D2"/>
<path d="M197.099 197.299L164.253 197.299L164.253 230.146L197.099 230.146L197.099 197.299Z" fill="#808080"/>
<path d="M164.253 197.299C164.253 206.011 167.713 214.365 173.873 220.525C180.033 226.685 188.388 230.146 197.099 230.146L197.099 197.299" fill="#CECECE"/>
<path d="M164.242 230.146L131.396 230.146L131.396 262.992L164.242 262.992L164.242 230.146Z" fill="#AFAFAF"/>
<path d="M131.396 262.992C135.709 262.992 139.981 262.143 143.966 260.492C147.951 258.841 151.572 256.422 154.622 253.372C157.672 250.322 160.091 246.701 161.742 242.716C163.393 238.73 164.242 234.459 164.242 230.146L131.396 230.146" fill="#EAEAEA"/>
<path d="M197.099 230.146L164.253 230.146L164.253 262.992L197.099 262.992L197.099 230.146Z" fill="#ECECEC"/>
<path d="M164.253 230.146C164.253 234.459 165.102 238.73 166.753 242.716C168.404 246.701 170.823 250.322 173.873 253.372C176.923 256.422 180.544 258.841 184.529 260.492C188.514 262.143 192.786 262.992 197.099 262.992L197.099 230.146" fill="#CACACA"/>
<path d="M262.799 197.299L197.099 197.299L197.099 262.999L262.799 262.999L262.799 197.299Z" fill="white"/>
<path d="M229.945 197.299L197.099 197.299L197.099 230.146L229.945 230.146L229.945 197.299Z" fill="#EEEEEE"/>
<path d="M197.099 230.146C205.81 230.146 214.165 226.685 220.325 220.525C226.485 214.365 229.945 206.011 229.945 197.299L197.099 197.299" fill="#E8E8E8"/>
<path d="M262.792 197.299L229.945 197.299L229.945 230.146L262.792 230.146L262.792 197.299Z" fill="#CECECE"/>
<path d="M229.945 197.299C234.259 197.299 238.53 198.149 242.515 199.8C246.5 201.45 250.121 203.87 253.171 206.92C256.221 209.97 258.641 213.591 260.291 217.576C261.942 221.561 262.792 225.832 262.792 230.146L229.945 197.299C229.945 206.011 233.406 214.365 239.566 220.525C245.726 226.685 254.08 230.146 262.792 230.146" fill="#FCFCFC"/>
<path d="M229.945 230.146L197.099 230.146L197.099 262.992L229.945 262.992L229.945 230.146Z" fill="#F8F8F8"/>
<path d="M197.099 262.992C205.81 262.992 214.165 259.532 220.325 253.372C226.485 247.212 229.945 238.857 229.945 230.146L197.099 230.146" fill="#FEFEFE"/>
<path d="M262.792 230.146L229.945 230.146L229.945 262.992L262.792 262.992L262.792 230.146Z" fill="#D6D6D6"/>
<path d="M229.945 262.992C234.259 262.992 238.53 262.143 242.515 260.492C246.5 258.841 250.121 256.422 253.171 253.372C256.221 250.322 258.641 246.701 260.291 242.716C261.942 238.73 262.792 234.459 262.792 230.146L229.945 230.146" fill="#DDDDDD"/>
<path d="M328.505 197.299L262.802 197.299L262.802 263.002L328.505 263.002L328.505 197.299Z" fill="#626262"/>
<path d="M262.802 197.299C262.802 214.725 269.724 231.437 282.046 243.758C294.368 256.08 311.08 263.002 328.505 263.002L328.505 197.299" fill="#FAFAFA"/>
<path d="M394.198 197.299L328.495 197.299L328.495 263.002L394.198 263.002L394.198 197.299Z" fill="#CCCCCC"/>
<path d="M328.495 263.002C328.495 254.374 330.194 245.83 333.496 237.859C336.798 229.887 341.638 222.644 347.739 216.543C360.061 204.222 376.772 197.299 394.198 197.299L328.495 263.002C345.92 263.002 362.632 256.08 374.954 243.758C387.276 231.437 394.198 214.725 394.198 197.299" fill="#E2E2E2"/>
<path d="M459.901 197.299L394.198 197.299L394.198 263.002L459.901 263.002L459.901 197.299Z" fill="#CBCBCB"/>
<path d="M394.198 197.299C402.826 197.299 411.37 198.999 419.341 202.301C427.313 205.603 434.556 210.442 440.657 216.543C446.758 222.644 451.598 229.887 454.9 237.859C458.201 245.83 459.901 254.374 459.901 263.002L394.198 197.299C394.198 205.928 395.897 214.471 399.199 222.443C402.501 230.414 407.341 237.657 413.442 243.758C419.543 249.86 426.786 254.699 434.757 258.001C442.729 261.303 451.273 263.002 459.901 263.002" fill="#EFEFEF"/>
<path d="M525.597 197.299L459.897 197.299L459.897 262.999L525.597 262.999L525.597 197.299Z" fill="white"/>
<path d="M492.747 197.299L459.901 197.299L459.901 230.146L492.747 230.146L492.747 197.299Z" fill="#626262"/>
<path d="M459.901 197.299C468.613 197.299 476.967 200.76 483.127 206.92C489.287 213.08 492.747 221.434 492.747 230.146L459.901 197.299C459.901 206.011 463.362 214.365 469.522 220.525C475.681 226.685 484.036 230.146 492.747 230.146" fill="#E3E3E3"/>
<path d="M525.594 197.299L492.748 197.299L492.748 230.146L525.594 230.146L525.594 197.299Z" fill="#DEDEDE"/>
<path d="M492.748 197.299C501.459 197.299 509.814 200.76 515.973 206.92C522.133 213.08 525.594 221.434 525.594 230.146L492.748 230.146" fill="#E2E2E2"/>
<path d="M492.747 230.146L459.901 230.146L459.901 262.992L492.747 262.992L492.747 230.146Z" fill="#F8F8F8"/>
<path d="M459.901 230.146C468.613 230.146 476.967 233.606 483.127 239.766C489.287 245.926 492.747 254.281 492.747 262.992L459.901 262.992" fill="#737373"/>
<path d="M525.594 230.146L492.748 230.146L492.748 262.992L525.594 262.992L525.594 230.146Z" fill="#292929"/>
<path d="M492.748 262.992C492.748 254.281 496.208 245.926 502.368 239.766C508.528 233.606 516.883 230.146 525.594 230.146L492.748 262.992C497.061 262.992 501.332 262.143 505.317 260.492C509.302 258.841 512.923 256.422 515.973 253.372C519.024 250.322 521.443 246.701 523.094 242.716C524.744 238.73 525.594 234.459 525.594 230.146" fill="#FEFEFE"/>
<path d="M591.297 197.299L525.597 197.299L525.597 262.999L591.297 262.999L591.297 197.299Z" fill="white"/>
<path d="M558.44 197.299L525.594 197.299L525.594 230.146L558.44 230.146L558.44 197.299Z" fill="#585858"/>
<path d="M525.594 230.146C525.594 221.434 529.054 213.08 535.214 206.92C541.374 200.76 549.729 197.299 558.44 197.299L558.44 230.146" fill="#4A4A4A"/>
<path d="M558.45 197.299C567.162 197.299 575.516 200.76 581.676 206.92C587.836 213.08 591.297 221.434 591.297 230.146L558.45 230.146" fill="#F8F8F8"/>
<path d="M558.44 230.146L525.594 230.146L525.594 262.992L558.44 262.992L558.44 230.146Z" fill="#DEDEDE"/>
<path d="M525.594 262.992C529.907 262.992 534.178 262.143 538.164 260.492C542.149 258.841 545.77 256.422 548.82 253.372C551.87 250.322 554.289 246.701 555.94 242.716C557.591 238.73 558.44 234.459 558.44 230.146L525.594 230.146" fill="#E9E9E9"/>
<path d="M558.45 262.992C558.45 254.281 561.911 245.926 568.071 239.766C574.231 233.606 582.585 230.146 591.297 230.146L591.297 262.992" fill="#585858"/>
<path d="M656.997 197.299L591.297 197.299L591.297 262.999L656.997 262.999L656.997 197.299Z" fill="white"/>
<path d="M624.143 197.299L591.297 197.299L591.297 230.146L624.143 230.146L624.143 197.299Z" fill="#7C7C7C"/>
<path d="M591.297 230.146C591.297 225.832 592.147 221.561 593.797 217.576C595.448 213.591 597.868 209.97 600.918 206.92C603.968 203.87 607.589 201.45 611.574 199.8C615.559 198.149 619.83 197.299 624.143 197.299L591.297 230.146C600.009 230.146 608.363 226.685 614.523 220.525C620.683 214.365 624.143 206.011 624.143 197.299" fill="#DCDCDC"/>
<path d="M656.99 197.299L624.144 197.299L624.144 230.146L656.99 230.146L656.99 197.299Z" fill="#696969"/>
<path d="M624.144 230.146C624.144 221.434 627.604 213.08 633.764 206.92C639.924 200.76 648.278 197.299 656.99 197.299L624.144 230.146C632.855 230.146 641.21 226.685 647.369 220.525C653.529 214.365 656.99 206.011 656.99 197.299" fill="#464646"/>
<path d="M624.143 230.146L591.297 230.146L591.297 262.992L624.143 262.992L624.143 230.146Z" fill="#EBEBEB"/>
<path d="M591.297 262.992C595.611 262.992 599.882 262.143 603.867 260.492C607.852 258.841 611.473 256.422 614.523 253.372C617.573 250.322 619.992 246.701 621.643 242.716C623.294 238.73 624.143 234.459 624.143 230.146L591.297 230.146" fill="#E6E6E6"/>
<path d="M656.99 230.146L624.144 230.146L624.144 262.992L656.99 262.992L656.99 230.146Z" fill="#F9F9F9"/>
<path d="M624.144 230.146C624.144 234.459 624.993 238.73 626.644 242.716C628.295 246.701 630.714 250.322 633.764 253.372C636.814 256.422 640.435 258.841 644.42 260.492C648.405 262.143 652.676 262.992 656.99 262.992L656.99 230.146" fill="#909090"/>
</svg>
