<svg width="657" height="510" viewBox="0 0 657 510" fill="none" xmlns="http://www.w3.org/2000/svg">
<path d="M476 464.909L476 509.901L520.992 509.901L520.992 464.909L476 464.909Z" fill="#575757"/>
<path d="M476 509.901C487.933 509.901 499.377 505.161 507.814 496.723C516.252 488.286 520.992 476.842 520.992 464.909L476 464.909" fill="#1F1F1F"/>
<path d="M476 419.921L476 464.911L520.99 464.911L520.99 419.921L476 419.921Z" fill="white"/>
<path d="M476 442.416L476 464.909L498.493 464.909L498.493 442.416L476 442.416Z" fill="#E3E3E3"/>
<path d="M498.493 464.909C498.493 458.944 496.123 453.222 491.905 449.004C487.686 444.786 481.965 442.416 476 442.416L476 464.909" fill="#D0D0D0"/>
<path d="M476 419.924L476 442.416L498.493 442.416L498.493 419.924L476 419.924Z" fill="#F7F7F7"/>
<path d="M498.493 442.416C498.493 436.451 496.123 430.73 491.905 426.512C487.686 422.293 481.965 419.924 476 419.924L476 442.416" fill="#E6E6E6"/>
<path d="M498.492 442.416L498.492 464.909L520.985 464.909L520.985 442.416L498.492 442.416Z" fill="#E4E4E4"/>
<path d="M498.492 464.909C498.492 458.944 500.862 453.222 505.08 449.004C509.298 444.786 515.019 442.416 520.985 442.416L520.985 464.909" fill="#E5E5E5"/>
<path d="M498.492 419.924L498.492 442.416L520.985 442.416L520.985 419.924L498.492 419.924Z" fill="#DEDEDE"/>
<path d="M520.985 442.416C515.019 442.416 509.298 440.047 505.08 435.828C500.862 431.61 498.492 425.889 498.492 419.924L520.985 419.924" fill="#272727"/>
<path d="M476 374.932L476 419.921L520.99 419.921L520.99 374.932L476 374.932Z" fill="white"/>
<path d="M476 397.431L476 419.924L498.493 419.924L498.493 397.431L476 397.431Z" fill="#606060"/>
<path d="M498.493 419.924C492.527 419.924 486.806 417.554 482.588 413.336C478.37 409.117 476 403.396 476 397.431L498.493 419.924C498.493 413.958 496.123 408.237 491.905 404.019C487.686 399.801 481.965 397.431 476 397.431" fill="#EBEBEB"/>
<path d="M476 374.932L476 397.424L498.493 397.424L498.493 374.932L476 374.932Z" fill="#E9E9E9"/>
<path d="M476 397.424C478.954 397.424 481.879 396.842 484.608 395.712C487.336 394.582 489.816 392.925 491.905 390.836C493.993 388.748 495.65 386.268 496.78 383.539C497.911 380.81 498.493 377.885 498.493 374.932L476 374.932" fill="#F4F4F4"/>
<path d="M498.492 397.431L498.492 419.924L520.985 419.924L520.985 397.431L498.492 397.431Z" fill="#F1F1F1"/>
<path d="M520.985 419.924C515.019 419.924 509.298 417.554 505.08 413.336C500.862 409.117 498.492 403.396 498.492 397.431L520.985 397.431" fill="#F7F7F7"/>
<path d="M498.492 374.932L498.492 397.424L520.985 397.424L520.985 374.932L498.492 374.932Z" fill="#D6D6D6"/>
<path d="M520.985 397.424C518.031 397.424 515.106 396.842 512.377 395.712C509.648 394.582 507.169 392.925 505.08 390.836C502.991 388.748 501.335 386.268 500.204 383.539C499.074 380.81 498.492 377.885 498.492 374.932L520.985 397.424C520.985 391.459 518.615 385.738 514.397 381.519C510.179 377.301 504.458 374.932 498.492 374.932" fill="#616161"/>
<path d="M476 329.939L476 374.932L520.992 374.932L520.992 329.939L476 329.939Z" fill="#969696"/>
<path d="M476 374.932C476 362.999 480.74 351.555 489.178 343.117C497.616 334.68 509.06 329.939 520.992 329.939L520.992 374.932" fill="#FEFEFE"/>
<path d="M476 284.947L476 329.939L520.992 329.939L520.992 284.947L476 284.947Z" fill="#EDEDED"/>
<path d="M476 329.939C476 318.007 480.74 306.563 489.178 298.125C497.616 289.687 509.06 284.947 520.992 284.947L520.992 329.939" fill="#CBCBCB"/>
<path d="M476 239.962L476 284.952L520.99 284.952L520.99 239.962L476 239.962Z" fill="white"/>
<path d="M476 262.462L476 284.954L498.493 284.954L498.493 262.462L476 262.462Z" fill="#E6E6E6"/>
<path d="M498.493 284.954C492.527 284.954 486.806 282.584 482.588 278.366C478.37 274.148 476 268.427 476 262.462L498.493 262.462" fill="#F5F5F5"/>
<path d="M476 239.962L476 262.455L498.493 262.455L498.493 239.962L476 239.962Z" fill="#2B2B2B"/>
<path d="M476 262.455C481.965 262.455 487.686 260.085 491.905 255.867C496.123 251.649 498.493 245.927 498.493 239.962L476 239.962" fill="#5D5D5D"/>
<path d="M498.492 262.462L498.492 284.954L520.985 284.954L520.985 262.462L498.492 262.462Z" fill="#DEDEDE"/>
<path d="M498.492 284.954C498.492 278.989 500.862 273.268 505.08 269.049C509.298 264.831 515.019 262.462 520.985 262.462L498.492 284.954C504.458 284.954 510.179 282.584 514.397 278.366C518.615 274.148 520.985 268.427 520.985 262.462" fill="#656565"/>
<path d="M498.492 239.962L498.492 262.455L520.985 262.455L520.985 239.962L498.492 239.962Z" fill="#E2E2E2"/>
<path d="M520.985 262.455C515.019 262.455 509.298 260.085 505.08 255.867C500.862 251.649 498.492 245.927 498.492 239.962L520.985 239.962" fill="#ACACAC"/>
<path d="M476 149.982L476 194.972L520.99 194.972L520.99 149.982L476 149.982Z" fill="white"/>
<path d="M476 172.477L476 194.97L498.493 194.97L498.493 172.477L476 172.477Z" fill="#F4F4F4"/>
<path d="M476 194.97C476 189.004 478.37 183.283 482.588 179.065C486.806 174.847 492.527 172.477 498.493 172.477L498.493 194.97" fill="#AAAAAA"/>
<path d="M476 149.985L476 172.477L498.493 172.477L498.493 149.985L476 149.985Z" fill="#EDEDED"/>
<path d="M476 172.477C476 166.512 478.37 160.791 482.588 156.572C486.806 152.354 492.527 149.985 498.493 149.985L498.493 172.477" fill="#EFEFEF"/>
<path d="M498.492 172.477L498.492 194.97L520.985 194.97L520.985 172.477L498.492 172.477Z" fill="#CCCCCC"/>
<path d="M498.492 194.97C498.492 189.004 500.862 183.283 505.08 179.065C509.298 174.847 515.019 172.477 520.985 172.477L520.985 194.97" fill="#393939"/>
<path d="M498.492 149.985L498.492 172.477L520.985 172.477L520.985 149.985L498.492 149.985Z" fill="#818181"/>
<path d="M520.985 172.477C515.019 172.477 509.298 170.108 505.08 165.889C500.862 161.671 498.492 155.95 498.492 149.985L520.985 149.985" fill="#FDFDFD"/>
<path d="M476 104.992L476 149.985L520.992 149.985L520.992 104.992L476 104.992Z" fill="#D2D2D2"/>
<path d="M476 149.985C487.933 149.985 499.377 145.244 507.814 136.807C516.252 128.369 520.992 116.925 520.992 104.992L476 104.992" fill="#969696"/>
<path d="M476 60L476 104.992L520.992 104.992L520.992 60L476 60Z" fill="#F8F8F8"/>
<path d="M476 104.992C476 93.0595 480.74 81.6156 489.178 73.1779C497.616 64.7402 509.06 60 520.992 60L476 104.992C487.933 104.992 499.377 100.252 507.814 91.8143C516.252 83.3766 520.992 71.9326 520.992 60" fill="#8C8C8C"/>
<path d="M520.99 464.911L520.99 509.901L565.98 509.901L565.98 464.911L520.99 464.911Z" fill="white"/>
<path d="M520.992 487.409L520.992 509.901L543.485 509.901L543.485 487.409L520.992 487.409Z" fill="#D4D4D4"/>
<path d="M520.992 509.901C520.992 503.936 523.362 498.215 527.58 493.996C531.798 489.778 537.519 487.409 543.485 487.409L543.485 509.901" fill="#CECECE"/>
<path d="M520.992 464.916L520.992 487.408L543.485 487.408L543.485 464.916L520.992 464.916Z" fill="#969696"/>
<path d="M543.485 487.408C543.485 481.443 541.115 475.722 536.897 471.504C532.679 467.286 526.958 464.916 520.992 464.916L520.992 487.408" fill="#939393"/>
<path d="M543.485 487.409L543.485 509.901L565.977 509.901L565.977 487.409L543.485 487.409Z" fill="#F8F8F8"/>
<path d="M543.485 509.901C543.485 503.936 545.855 498.215 550.073 493.996C554.291 489.778 560.012 487.409 565.977 487.409L543.485 509.901C549.45 509.901 555.171 507.531 559.39 503.313C563.608 499.095 565.977 493.374 565.977 487.409" fill="#E6E6E6"/>
<path d="M543.485 464.916L543.485 487.408L565.977 487.408L565.977 464.916L543.485 464.916Z" fill="#747474"/>
<path d="M565.977 487.408C560.012 487.408 554.291 485.039 550.073 480.821C545.855 476.602 543.485 470.881 543.485 464.916L565.977 464.916" fill="#EFEFEF"/>
<path d="M520.992 419.917L520.992 464.909L565.984 464.909L565.984 419.917L520.992 419.917Z" fill="#7E7E7E"/>
<path d="M565.984 464.909C554.052 464.909 542.608 460.169 534.17 451.731C525.732 443.293 520.992 431.849 520.992 419.917L565.984 464.909C565.984 452.976 561.244 441.532 552.807 433.095C544.369 424.657 532.925 419.917 520.992 419.917" fill="#EEEEEE"/>
<path d="M520.992 374.931L520.992 419.924L565.984 419.924L565.984 374.931L520.992 374.931Z" fill="#E7E7E7"/>
<path d="M565.984 419.924C554.052 419.924 542.608 415.183 534.17 406.746C525.732 398.308 520.992 386.864 520.992 374.931L565.984 419.924C565.984 407.991 561.244 396.547 552.807 388.109C544.369 379.672 532.925 374.931 520.992 374.931" fill="#969696"/>
<path d="M520.992 329.939L520.992 374.932L565.984 374.932L565.984 329.939L520.992 329.939Z" fill="#EEEEEE"/>
<path d="M520.992 374.932C520.992 362.999 525.732 351.555 534.17 343.117C542.608 334.68 554.052 329.939 565.984 329.939L520.992 374.932C532.925 374.932 544.369 370.191 552.807 361.754C556.984 357.576 560.299 352.616 562.56 347.157C564.821 341.698 565.984 335.848 565.984 329.939" fill="#616161"/>
<path d="M520.99 239.962L520.99 284.952L565.98 284.952L565.98 239.962L520.99 239.962Z" fill="white"/>
<path d="M520.992 262.462L520.992 284.954L543.485 284.954L543.485 262.462L520.992 262.462Z" fill="#EDEDED"/>
<path d="M543.485 284.954C543.485 278.989 541.115 273.268 536.897 269.049C532.679 264.831 526.958 262.462 520.992 262.462L520.992 284.954" fill="#D0D0D0"/>
<path d="M520.992 239.962L520.992 262.455L543.485 262.455L543.485 239.962L520.992 239.962Z" fill="#EFEFEF"/>
<path d="M543.485 262.455C537.519 262.455 531.798 260.085 527.58 255.867C523.362 251.649 520.992 245.927 520.992 239.962L543.485 262.455C543.485 256.489 541.115 250.768 536.897 246.55C532.679 242.332 526.958 239.962 520.992 239.962" fill="#4F4F4F"/>
<path d="M543.485 262.462L543.485 284.954L565.977 284.954L565.977 262.462L543.485 262.462Z" fill="#636363"/>
<path d="M543.485 284.954C543.485 278.989 545.855 273.268 550.073 269.049C554.291 264.831 560.012 262.462 565.977 262.462L565.977 284.954" fill="#E7E7E7"/>
<path d="M543.485 239.962L543.485 262.455L565.977 262.455L565.977 239.962L543.485 239.962Z" fill="#D8D8D8"/>
<path d="M543.485 262.455C549.45 262.455 555.171 260.085 559.39 255.867C563.608 251.649 565.977 245.927 565.977 239.962L543.485 239.962" fill="#2B2B2B"/>
<path d="M520.992 217.47L520.992 239.962L543.485 239.962L543.485 217.47L520.992 217.47Z" fill="#F2F2F2"/>
<path d="M543.485 217.47L543.485 239.962L565.977 239.962L565.977 217.47L543.485 217.47Z" fill="#CDCDCD"/>
<path d="M520.992 149.985L520.992 172.477L543.485 172.477L543.485 149.985L520.992 149.985Z" fill="#DEDEDE"/>
<path d="M543.485 172.477C543.485 166.512 541.115 160.791 536.897 156.573C532.679 152.354 526.958 149.985 520.992 149.985L520.992 172.477" fill="#D3D3D3"/>
<path d="M520.992 104.992L520.992 149.985L565.984 149.985L565.984 104.992L520.992 104.992Z" fill="#D4D4D4"/>
<path d="M520.992 149.985C520.992 144.076 522.156 138.226 524.417 132.767C526.678 127.308 529.992 122.348 534.17 118.17C538.348 113.992 543.308 110.678 548.767 108.417C554.225 106.156 560.076 104.992 565.984 104.992L565.984 149.985" fill="#292929"/>
<path d="M520.992 60L520.992 104.992L565.984 104.992L565.984 60L520.992 60Z" fill="#BDBDBD"/>
<path d="M520.992 104.992C520.992 93.0595 525.732 81.6156 534.17 73.1779C542.608 64.7402 554.052 60 565.984 60L520.992 104.992C532.925 104.992 544.369 100.252 552.807 91.8143C561.244 83.3766 565.984 71.9326 565.984 60" fill="#F5F5F5"/>
<path d="M565.979 464.911L565.979 509.901L610.969 509.901L610.969 464.911L565.979 464.911Z" fill="white"/>
<path d="M565.978 487.409L565.978 509.901L588.47 509.901L588.47 487.409L565.978 487.409Z" fill="#D4D4D4"/>
<path d="M565.978 509.901C565.978 503.936 568.347 498.215 572.565 493.996C576.784 489.778 582.505 487.409 588.47 487.409L588.47 509.901" fill="#EBEBEB"/>
<path d="M565.978 464.916L565.978 487.408L588.47 487.408L588.47 464.916L565.978 464.916Z" fill="#DADADA"/>
<path d="M588.47 487.408C582.505 487.408 576.784 485.039 572.565 480.821C568.347 476.602 565.978 470.881 565.978 464.916L588.47 464.916" fill="#8B8B8B"/>
<path d="M588.477 487.409L588.477 509.901L610.97 509.901L610.97 487.409L588.477 487.409Z" fill="#8B8B8B"/>
<path d="M588.477 509.901C594.442 509.901 600.164 507.531 604.382 503.313C608.6 499.095 610.97 493.374 610.97 487.409L588.477 487.409" fill="#CCCCCC"/>
<path d="M588.477 464.916L588.477 487.408L610.97 487.408L610.97 464.916L588.477 464.916Z" fill="#DEDEDE"/>
<path d="M588.477 487.408C594.442 487.408 600.164 485.039 604.382 480.821C608.6 476.602 610.97 470.881 610.97 464.916L588.477 464.916" fill="#434343"/>
<path d="M565.978 419.917L565.978 464.909L610.97 464.909L610.97 419.917L565.978 419.917Z" fill="#CACACA"/>
<path d="M610.97 464.909C599.037 464.909 587.593 460.169 579.155 451.731C570.718 443.293 565.978 431.849 565.978 419.917L610.97 464.909C610.97 452.976 606.23 441.532 597.792 433.095C589.354 424.657 577.91 419.917 565.978 419.917" fill="#B3B3B3"/>
<path d="M565.979 374.932L565.979 419.921L610.969 419.921L610.969 374.932L565.979 374.932Z" fill="white"/>
<path d="M565.978 397.431L565.978 419.924L588.47 419.924L588.47 397.431L565.978 397.431Z" fill="#FCFCFC"/>
<path d="M565.978 419.924C571.943 419.924 577.664 417.554 581.882 413.336C586.1 409.117 588.47 403.396 588.47 397.431L565.978 397.431" fill="#FEFEFE"/>
<path d="M565.978 374.932L565.978 397.424L588.47 397.424L588.47 374.932L565.978 374.932Z" fill="#A9A9A9"/>
<path d="M588.47 397.424C588.47 391.459 586.1 385.738 581.882 381.519C577.664 377.301 571.943 374.932 565.978 374.932L565.978 397.424" fill="#D5D5D5"/>
<path d="M588.477 397.431L588.477 419.924L610.97 419.924L610.97 397.431L588.477 397.431Z" fill="#282828"/>
<path d="M610.97 419.924C608.016 419.924 605.091 419.342 602.362 418.212C599.633 417.081 597.154 415.425 595.065 413.336C592.976 411.247 591.32 408.768 590.189 406.039C589.059 403.31 588.477 400.385 588.477 397.431L610.97 419.924C610.97 413.958 608.6 408.237 604.382 404.019C600.164 399.801 594.442 397.431 588.477 397.431" fill="#9F9F9F"/>
<path d="M588.477 374.932L588.477 397.424L610.97 397.424L610.97 374.932L588.477 374.932Z" fill="#E8E8E8"/>
<path d="M610.97 397.424C610.97 391.459 608.6 385.738 604.382 381.519C600.164 377.301 594.442 374.932 588.477 374.932L588.477 397.424" fill="#3A3A3A"/>
<path d="M565.978 329.939L565.978 374.932L610.97 374.932L610.97 329.939L565.978 329.939Z" fill="#555555"/>
<path d="M610.97 374.932C610.97 362.999 606.23 351.555 597.792 343.117C589.354 334.68 577.91 329.939 565.978 329.939L565.978 374.932" fill="#F9F9F9"/>
<path d="M565.978 284.954L565.978 307.447L588.47 307.447L588.47 284.954L565.978 284.954Z" fill="#CDCDCD"/>
<path d="M565.978 307.447C565.978 301.481 568.347 295.76 572.565 291.542C576.784 287.324 582.505 284.954 588.47 284.954L588.47 307.447" fill="#454545"/>
<path d="M610.97 329.939C608.016 329.939 605.091 329.358 602.362 328.227C599.633 327.097 597.154 325.44 595.065 323.352C592.976 321.263 591.32 318.783 590.189 316.054C589.059 313.326 588.477 310.401 588.477 307.447L610.97 307.447" fill="#848484"/>
<path d="M588.477 284.954L588.477 307.447L610.97 307.447L610.97 284.954L588.477 284.954Z" fill="#E1E1E1"/>
<path d="M588.477 307.447C594.442 307.447 600.164 305.077 604.382 300.859C608.6 296.641 610.97 290.92 610.97 284.954L588.477 284.954" fill="#B3B3B3"/>
<path d="M565.978 239.962L565.978 284.954L610.97 284.954L610.97 239.962L565.978 239.962Z" fill="#E0E0E0"/>
<path d="M610.97 284.954C599.037 284.954 587.593 280.214 579.155 271.776C570.718 263.338 565.978 251.895 565.978 239.962L610.97 284.954C610.97 273.021 606.23 261.577 597.792 253.14C589.354 244.702 577.91 239.962 565.978 239.962" fill="#7D7D7D"/>
<path d="M565.98 194.972L565.98 239.962L610.97 239.962L610.97 194.972L565.98 194.972Z" fill="white"/>
<path d="M565.978 217.47L565.978 239.962L588.47 239.962L588.47 217.47L565.978 217.47Z" fill="#FEFEFE"/>
<path d="M588.47 239.962C588.47 233.997 586.1 228.276 581.882 224.058C577.664 219.839 571.943 217.47 565.978 217.47L565.978 239.962" fill="#FAFAFA"/>
<path d="M565.978 194.977L565.978 217.469L588.47 217.469L588.47 194.977L565.978 194.977Z" fill="#9D9D9D"/>
<path d="M565.978 217.469C565.978 211.504 568.347 205.783 572.565 201.565C576.784 197.346 582.505 194.977 588.47 194.977L588.47 217.469" fill="#D6D6D6"/>
<path d="M588.477 217.47L588.477 239.962L610.97 239.962L610.97 217.47L588.477 217.47Z" fill="#D9D9D9"/>
<path d="M610.97 239.962C608.016 239.962 605.091 239.38 602.362 238.25C599.633 237.12 597.154 235.463 595.065 233.374C592.976 231.286 591.32 228.806 590.189 226.077C589.059 223.348 588.477 220.423 588.477 217.47L610.97 217.47" fill="#E0E0E0"/>
<path d="M588.477 194.977L588.477 217.469L610.97 217.469L610.97 194.977L588.477 194.977Z" fill="#CCCCCC"/>
<path d="M588.477 217.469C588.477 211.504 590.847 205.783 595.065 201.565C599.283 197.346 605.004 194.977 610.97 194.977L588.477 217.469C594.442 217.469 600.164 215.099 604.382 210.881C608.6 206.663 610.97 200.942 610.97 194.977" fill="white"/>
<path d="M565.978 194.97C565.978 183.037 570.718 171.593 579.155 163.155C587.593 154.718 599.037 149.977 610.97 149.977L565.978 194.97C577.91 194.97 589.354 190.23 597.792 181.792C606.23 173.354 610.97 161.91 610.97 149.977" fill="#E3E3E3"/>
<path d="M565.978 127.492L565.978 149.985L588.47 149.985L588.47 127.492L565.978 127.492Z" fill="#CBCBCB"/>
<path d="M565.978 149.985C565.978 144.019 568.347 138.298 572.565 134.08C576.784 129.862 582.505 127.492 588.47 127.492L588.47 149.985" fill="#D2D2D2"/>
<path d="M588.477 127.492L588.477 149.985L610.97 149.985L610.97 127.492L588.477 127.492Z" fill="#FBFBFB"/>
<path d="M565.978 60L565.978 104.992L610.97 104.992L610.97 60L565.978 60Z" fill="#818181"/>
<path d="M565.978 104.992C565.978 93.0595 570.718 81.6156 579.155 73.1779C587.593 64.7402 599.037 60 610.97 60L565.978 104.992C577.91 104.992 589.354 100.252 597.792 91.8143C606.23 83.3766 610.97 71.9326 610.97 60" fill="#F1F1F1"/>
<path d="M610.97 464.909L610.97 509.901L655.962 509.901L655.962 464.909L610.97 464.909Z" fill="#D5D5D5"/>
<path d="M655.962 509.901C650.053 509.901 644.203 508.737 638.744 506.476C633.285 504.215 628.326 500.901 624.148 496.723C615.71 488.286 610.97 476.842 610.97 464.909L655.962 509.901C655.962 497.968 651.222 486.524 642.784 478.087C634.346 469.649 622.902 464.909 610.97 464.909" fill="#E4E4E4"/>
<path d="M610.97 419.917L610.97 464.909L655.962 464.909L655.962 419.917L610.97 419.917Z" fill="#7E7E7E"/>
<path d="M610.97 464.909C610.97 459 612.133 453.15 614.395 447.691C616.656 442.232 619.97 437.273 624.148 433.095C628.326 428.917 633.285 425.603 638.744 423.342C644.203 421.08 650.053 419.917 655.962 419.917L655.962 464.909" fill="#CFCFCF"/>
<path d="M610.97 374.932L610.97 419.921L655.96 419.921L655.96 374.932L610.97 374.932Z" fill="white"/>
<path d="M610.97 397.431L610.97 419.924L633.462 419.924L633.462 397.431L610.97 397.431Z" fill="#F3F3F3"/>
<path d="M610.97 419.924C610.97 413.958 613.339 408.237 617.558 404.019C621.776 399.801 627.497 397.431 633.462 397.431L610.97 419.924C616.935 419.924 622.656 417.554 626.874 413.336C631.093 409.118 633.462 403.397 633.462 397.431" fill="#D2D2D2"/>
<path d="M610.97 374.932L610.97 397.424L633.462 397.424L633.462 374.932L610.97 374.932Z" fill="#808080"/>
<path d="M610.97 397.424C616.935 397.424 622.656 395.054 626.874 390.836C631.093 386.618 633.462 380.897 633.462 374.932L610.97 374.932" fill="#CECECE"/>
<path d="M633.462 397.431L633.462 419.924L655.954 419.924L655.954 397.431L633.462 397.431Z" fill="#AFAFAF"/>
<path d="M655.954 419.924C655.954 416.97 655.373 414.045 654.242 411.316C653.112 408.587 651.455 406.108 649.367 404.019C647.278 401.931 644.798 400.274 642.069 399.143C639.341 398.013 636.416 397.431 633.462 397.431L633.462 419.924" fill="#EAEAEA"/>
<path d="M633.462 374.932L633.462 397.424L655.954 397.424L655.954 374.932L633.462 374.932Z" fill="#ECECEC"/>
<path d="M633.462 397.424C636.416 397.424 639.341 396.842 642.069 395.712C644.798 394.582 647.278 392.925 649.367 390.836C651.455 388.748 653.112 386.268 654.242 383.539C655.373 380.81 655.954 377.885 655.954 374.932L633.462 374.932" fill="#CACACA"/>
<path d="M610.97 329.942L610.97 374.932L655.96 374.932L655.96 329.942L610.97 329.942Z" fill="white"/>
<path d="M610.97 352.439L610.97 374.932L633.462 374.932L633.462 352.439L610.97 352.439Z" fill="#EEEEEE"/>
<path d="M633.462 374.932C633.462 368.966 631.093 363.245 626.874 359.027C622.656 354.809 616.935 352.439 610.97 352.439L610.97 374.932" fill="#E8E8E8"/>
<path d="M610.97 329.946L610.97 352.439L633.462 352.439L633.462 329.946L610.97 329.946Z" fill="#CECECE"/>
<path d="M610.97 352.439C610.97 349.485 611.552 346.56 612.682 343.831C613.812 341.103 615.469 338.623 617.558 336.534C619.646 334.446 622.126 332.789 624.855 331.659C627.584 330.528 630.509 329.946 633.462 329.946L610.97 352.439C616.935 352.439 622.656 350.069 626.874 345.851C631.093 341.633 633.462 335.912 633.462 329.946" fill="#FCFCFC"/>
<path d="M633.462 352.439L633.462 374.932L655.954 374.932L655.954 352.439L633.462 352.439Z" fill="#F8F8F8"/>
<path d="M655.954 374.932C655.954 368.966 653.585 363.245 649.367 359.027C645.148 354.809 639.427 352.439 633.462 352.439L633.462 374.932" fill="#FEFEFE"/>
<path d="M633.462 329.946L633.462 352.439L655.954 352.439L655.954 329.946L633.462 329.946Z" fill="#D6D6D6"/>
<path d="M655.954 352.439C655.954 349.485 655.373 346.56 654.242 343.831C653.112 341.103 651.455 338.623 649.367 336.534C647.278 334.446 644.798 332.789 642.069 331.659C639.341 330.528 636.416 329.946 633.462 329.946L633.462 352.439" fill="#DDDDDD"/>
<path d="M610.97 284.947L610.97 329.939L655.962 329.939L655.962 284.947L610.97 284.947Z" fill="#626262"/>
<path d="M610.97 329.939C622.902 329.939 634.346 325.199 642.784 316.762C651.222 308.324 655.962 296.88 655.962 284.947L610.97 284.947" fill="#FAFAFA"/>
<path d="M610.97 239.962L610.97 284.954L655.962 284.954L655.962 239.962L610.97 239.962Z" fill="#CCCCCC"/>
<path d="M655.962 284.954C650.053 284.954 644.203 283.791 638.744 281.53C633.285 279.268 628.326 275.954 624.148 271.776C615.71 263.339 610.97 251.895 610.97 239.962L655.962 284.954C655.962 273.022 651.222 261.578 642.784 253.14C634.346 244.702 622.902 239.962 610.97 239.962" fill="#E2E2E2"/>
<path d="M610.97 194.97L610.97 239.962L655.962 239.962L655.962 194.97L610.97 194.97Z" fill="#CBCBCB"/>
<path d="M610.97 239.962C610.97 234.054 612.133 228.203 614.395 222.744C616.656 217.286 619.97 212.326 624.148 208.148C628.326 203.97 633.285 200.656 638.744 198.395C644.203 196.134 650.053 194.97 655.962 194.97L610.97 239.962C616.878 239.962 622.729 238.798 628.188 236.537C633.646 234.276 638.606 230.962 642.784 226.784C646.962 222.606 650.276 217.646 652.537 212.188C654.798 206.729 655.962 200.878 655.962 194.97" fill="#EFEFEF"/>
<path d="M610.97 149.982L610.97 194.972L655.96 194.972L655.96 149.982L610.97 149.982Z" fill="white"/>
<path d="M610.97 172.477L610.97 194.97L633.462 194.97L633.462 172.477L610.97 172.477Z" fill="#626262"/>
<path d="M610.97 194.97C610.97 189.004 613.339 183.283 617.558 179.065C621.776 174.847 627.497 172.477 633.462 172.477L610.97 194.97C616.935 194.97 622.656 192.6 626.874 188.382C631.093 184.164 633.462 178.443 633.462 172.477" fill="#E3E3E3"/>
<path d="M610.97 149.985L610.97 172.477L633.462 172.477L633.462 149.985L610.97 149.985Z" fill="#DEDEDE"/>
<path d="M610.97 172.477C610.97 166.512 613.339 160.791 617.558 156.573C621.776 152.354 627.497 149.985 633.462 149.985L633.462 172.477" fill="#E2E2E2"/>
<path d="M633.462 172.477L633.462 194.97L655.954 194.97L655.954 172.477L633.462 172.477Z" fill="#F8F8F8"/>
<path d="M633.462 194.97C633.462 189.004 635.832 183.283 640.05 179.065C644.268 174.847 649.989 172.477 655.954 172.477L655.954 194.97" fill="#737373"/>
<path d="M633.462 149.985L633.462 172.477L655.954 172.477L655.954 149.985L633.462 149.985Z" fill="#292929"/>
<path d="M655.954 172.477C649.989 172.477 644.268 170.108 640.05 165.889C635.832 161.671 633.462 155.95 633.462 149.985L655.954 172.477C655.954 169.524 655.373 166.599 654.242 163.87C653.112 161.141 651.455 158.661 649.367 156.573C647.278 154.484 644.798 152.827 642.069 151.697C639.341 150.567 636.416 149.985 633.462 149.985" fill="#FEFEFE"/>
<path d="M610.97 104.993L610.97 149.982L655.96 149.982L655.96 104.993L610.97 104.993Z" fill="white"/>
<path d="M610.97 127.492L610.97 149.985L633.462 149.985L633.462 127.492L610.97 127.492Z" fill="#585858"/>
<path d="M633.462 149.985C627.497 149.985 621.776 147.615 617.558 143.397C613.339 139.179 610.97 133.457 610.97 127.492L633.462 127.492" fill="#4A4A4A"/>
<path d="M610.97 127.485C610.97 121.519 613.339 115.798 617.558 111.58C621.776 107.362 627.497 104.992 633.462 104.992L633.462 127.485" fill="#F8F8F8"/>
<path d="M633.462 127.492L633.462 149.985L655.954 149.985L655.954 127.492L633.462 127.492Z" fill="#DEDEDE"/>
<path d="M655.954 149.985C655.954 147.031 655.373 144.106 654.242 141.377C653.112 138.648 651.455 136.169 649.367 134.08C647.278 131.991 644.798 130.335 642.069 129.204C639.341 128.074 636.416 127.492 633.462 127.492L633.462 149.985" fill="#E9E9E9"/>
<path d="M655.954 127.485C649.989 127.485 644.268 125.115 640.05 120.897C635.832 116.679 633.462 110.958 633.462 104.992L655.954 104.992" fill="#585858"/>
<path d="M610.97 60.0023L610.97 104.992L655.96 104.992L655.96 60.0023L610.97 60.0023Z" fill="white"/>
<path d="M610.97 82.4996L610.97 104.992L633.462 104.992L633.462 82.4996L610.97 82.4996Z" fill="#7C7C7C"/>
<path d="M633.462 104.992C630.509 104.992 627.584 104.41 624.855 103.28C622.126 102.15 619.646 100.493 617.558 98.4043C615.469 96.3156 613.812 93.8361 612.682 91.1071C611.552 88.3782 610.97 85.4534 610.97 82.4996L633.462 104.992C633.462 99.0268 631.093 93.3057 626.874 89.0875C622.656 84.8694 616.935 82.4996 610.97 82.4996" fill="#DCDCDC"/>
<path d="M610.97 60.0072L610.97 82.4998L633.462 82.4998L633.462 60.0072L610.97 60.0072Z" fill="#696969"/>
<path d="M633.462 82.4998C627.497 82.4998 621.776 80.13 617.558 75.9118C613.339 71.6937 610.97 65.9726 610.97 60.0072L633.462 82.4998C633.462 76.5344 631.093 70.8133 626.874 66.5951C622.656 62.3769 616.935 60.0072 610.97 60.0072" fill="#464646"/>
<path d="M633.462 82.4996L633.462 104.992L655.954 104.992L655.954 82.4996L633.462 82.4996Z" fill="#EBEBEB"/>
<path d="M655.954 104.992C655.954 102.038 655.373 99.1136 654.242 96.3847C653.112 93.6557 651.455 91.1762 649.367 89.0875C647.278 86.9989 644.798 85.3422 642.069 84.2118C639.341 83.0814 636.416 82.4996 633.462 82.4996L633.462 104.992" fill="#E6E6E6"/>
<path d="M633.462 60.0072L633.462 82.4998L655.954 82.4998L655.954 60.0072L633.462 60.0072Z" fill="#F9F9F9"/>
<path d="M633.462 82.4998C636.416 82.4998 639.341 81.918 642.069 80.7876C644.798 79.6573 647.278 78.0005 649.367 75.9118C651.455 73.8232 653.112 71.3437 654.242 68.6148C655.373 65.8858 655.954 62.961 655.954 60.0072L633.462 60.0072" fill="#909090"/>
<path d="M591.297 262.802L657 262.802L657 197.099L591.297 197.099L591.297 262.802Z" fill="#575757"/>
<path d="M657 262.802C657 245.376 650.078 228.665 637.756 216.343C625.434 204.021 608.722 197.099 591.297 197.099L591.297 262.802" fill="#1F1F1F"/>
<path d="M525.601 262.802L591.301 262.802L591.301 197.102L525.601 197.102L525.601 262.802Z" fill="white"/>
<path d="M558.451 262.802L591.297 262.802L591.297 229.956L558.451 229.956L558.451 262.802Z" fill="#E3E3E3"/>
<path d="M591.297 229.956C582.585 229.956 574.231 233.416 568.071 239.576C561.911 245.736 558.451 254.091 558.451 262.802L591.297 262.802" fill="#D0D0D0"/>
<path d="M525.604 262.802L558.451 262.802L558.451 229.956L525.604 229.956L525.604 262.802Z" fill="#F7F7F7"/>
<path d="M558.451 229.956C549.739 229.956 541.385 233.416 535.225 239.576C529.065 245.736 525.604 254.091 525.604 262.802L558.451 262.802" fill="#E6E6E6"/>
<path d="M558.451 229.956L591.297 229.956L591.297 197.109L558.451 197.109L558.451 229.956Z" fill="#E4E4E4"/>
<path d="M591.297 229.956C582.585 229.956 574.231 226.495 568.071 220.335C561.911 214.175 558.451 205.821 558.451 197.109L591.297 197.109" fill="#E5E5E5"/>
<path d="M525.604 229.956L558.451 229.956L558.451 197.109L525.604 197.109L525.604 229.956Z" fill="#DEDEDE"/>
<path d="M558.451 197.109C558.451 205.821 554.99 214.175 548.83 220.335C542.67 226.495 534.316 229.956 525.604 229.956L525.604 197.109" fill="#272727"/>
<path d="M459.901 262.802L525.601 262.802L525.601 197.102L459.901 197.102L459.901 262.802Z" fill="white"/>
<path d="M492.758 262.802L525.604 262.802L525.604 229.956L492.758 229.956L492.758 262.802Z" fill="#606060"/>
<path d="M525.604 229.956C525.604 238.667 522.144 247.022 515.984 253.182C509.824 259.341 501.47 262.802 492.758 262.802L525.604 229.956C516.893 229.956 508.538 233.416 502.379 239.576C496.219 245.736 492.758 254.091 492.758 262.802" fill="#EBEBEB"/>
<path d="M459.901 262.802L492.748 262.802L492.748 229.956L459.901 229.956L459.901 262.802Z" fill="#E9E9E9"/>
<path d="M492.748 262.802C492.748 258.489 491.898 254.217 490.247 250.232C488.597 246.247 486.177 242.626 483.127 239.576C480.077 236.526 476.456 234.107 472.471 232.456C468.486 230.805 464.215 229.956 459.901 229.956L459.901 262.802" fill="#F4F4F4"/>
<path d="M492.758 229.956L525.604 229.956L525.604 197.109L492.758 197.109L492.758 229.956Z" fill="#F1F1F1"/>
<path d="M525.604 197.109C525.604 205.821 522.144 214.175 515.984 220.335C509.824 226.495 501.47 229.956 492.758 229.956L492.758 197.109" fill="#F7F7F7"/>
<path d="M459.901 229.956L492.748 229.956L492.748 197.109L459.901 197.109L459.901 229.956Z" fill="#D6D6D6"/>
<path d="M492.748 197.109C492.748 201.423 491.898 205.694 490.247 209.679C488.597 213.664 486.177 217.285 483.127 220.335C480.077 223.385 476.456 225.805 472.471 227.456C468.486 229.106 464.215 229.956 459.901 229.956L492.748 197.109C484.036 197.109 475.682 200.57 469.522 206.73C463.362 212.89 459.901 221.244 459.901 229.956" fill="#616161"/>
<path d="M394.198 262.802L459.901 262.802L459.901 197.099L394.198 197.099L394.198 262.802Z" fill="#969696"/>
<path d="M459.901 262.802C442.476 262.802 425.764 255.88 413.442 243.558C401.121 231.236 394.198 214.524 394.198 197.099L459.901 197.099" fill="#FEFEFE"/>
<path d="M328.495 262.802L394.198 262.802L394.198 197.099L328.495 197.099L328.495 262.802Z" fill="#EDEDED"/>
<path d="M394.198 262.802C376.773 262.802 360.061 255.88 347.739 243.558C335.417 231.236 328.495 214.524 328.495 197.099L394.198 197.099" fill="#CBCBCB"/>
<path d="M262.802 262.802L328.502 262.802L328.502 197.102L262.802 197.102L262.802 262.802Z" fill="white"/>
<path d="M295.659 262.802L328.505 262.802L328.505 229.956L295.659 229.956L295.659 262.802Z" fill="#E6E6E6"/>
<path d="M328.505 229.956C328.505 238.667 325.045 247.022 318.885 253.182C312.725 259.341 304.37 262.802 295.659 262.802L295.659 229.956" fill="#F5F5F5"/>
<path d="M262.802 262.802L295.648 262.802L295.648 229.956L262.802 229.956L262.802 262.802Z" fill="#2B2B2B"/>
<path d="M295.648 262.802C295.648 254.091 292.188 245.736 286.028 239.576C279.868 233.416 271.513 229.956 262.802 229.956L262.802 262.802" fill="#5D5D5D"/>
<path d="M295.659 229.956L328.505 229.956L328.505 197.109L295.659 197.109L295.659 229.956Z" fill="#DEDEDE"/>
<path d="M328.505 229.956C319.794 229.956 311.439 226.495 305.279 220.335C299.12 214.175 295.659 205.821 295.659 197.109L328.505 229.956C328.505 221.244 325.045 212.89 318.885 206.73C312.725 200.57 304.37 197.109 295.659 197.109" fill="#656565"/>
<path d="M262.802 229.956L295.648 229.956L295.648 197.109L262.802 197.109L262.802 229.956Z" fill="#E2E2E2"/>
<path d="M295.648 197.109C295.648 205.821 292.188 214.175 286.028 220.335C279.868 226.495 271.513 229.956 262.802 229.956L262.802 197.109" fill="#ACACAC"/>
<path d="M131.403 262.802L197.103 262.802L197.103 197.102L131.403 197.102L131.403 262.802Z" fill="white"/>
<path d="M164.253 262.802L197.099 262.802L197.099 229.956L164.253 229.956L164.253 262.802Z" fill="#F4F4F4"/>
<path d="M197.099 262.802C188.388 262.802 180.033 259.341 173.873 253.182C167.713 247.022 164.253 238.667 164.253 229.956L197.099 229.956" fill="#AAAAAA"/>
<path d="M131.407 262.802L164.253 262.802L164.253 229.956L131.407 229.956L131.407 262.802Z" fill="#EDEDED"/>
<path d="M164.253 262.802C155.542 262.802 147.187 259.341 141.027 253.182C134.867 247.022 131.407 238.667 131.407 229.956L164.253 229.956" fill="#EFEFEF"/>
<path d="M164.253 229.956L197.099 229.956L197.099 197.109L164.253 197.109L164.253 229.956Z" fill="#CCCCCC"/>
<path d="M197.099 229.956C188.388 229.956 180.033 226.495 173.873 220.335C167.713 214.175 164.253 205.821 164.253 197.109L197.099 197.109" fill="#393939"/>
<path d="M131.407 229.956L164.253 229.956L164.253 197.109L131.407 197.109L131.407 229.956Z" fill="#818181"/>
<path d="M164.253 197.109C164.253 205.821 160.792 214.175 154.632 220.335C148.473 226.495 140.118 229.956 131.407 229.956L131.407 197.109" fill="#FDFDFD"/>
<path d="M65.7031 262.802L131.406 262.802L131.406 197.099L65.7031 197.099L65.7031 262.802Z" fill="#D2D2D2"/>
<path d="M131.406 262.802C131.406 245.376 124.484 228.665 112.162 216.343C99.8405 204.021 83.1287 197.099 65.7031 197.099L65.7031 262.802" fill="#969696"/>
<path d="M2.28882e-05 262.802L65.7031 262.802L65.7031 197.099L1.71442e-05 197.099L2.28882e-05 262.802Z" fill="#F8F8F8"/>
<path d="M65.7031 262.802C48.2776 262.802 31.5658 255.88 19.244 243.558C6.9223 231.236 1.53856e-05 214.524 1.38623e-05 197.099L65.7031 262.802C65.7031 245.376 58.7808 228.665 46.4591 216.343C34.1374 204.021 17.4256 197.099 1.38623e-05 197.099" fill="#8C8C8C"/>
<path d="M591.3 197.102L657 197.102L657 131.403L591.3 131.403L591.3 197.102Z" fill="white"/>
<path d="M624.154 197.099L657 197.099L657 164.253L624.154 164.253L624.154 197.099Z" fill="#D4D4D4"/>
<path d="M657 197.099C648.289 197.099 639.934 193.638 633.774 187.478C627.614 181.319 624.154 172.964 624.154 164.253L657 164.253" fill="#CECECE"/>
<path d="M591.307 197.099L624.154 197.099L624.154 164.253L591.307 164.253L591.307 197.099Z" fill="#969696"/>
<path d="M624.154 164.253C615.442 164.253 607.088 167.713 600.928 173.873C594.768 180.033 591.307 188.387 591.307 197.099L624.154 197.099" fill="#939393"/>
<path d="M624.154 164.252L657 164.252L657 131.406L624.154 131.406L624.154 164.252Z" fill="#F8F8F8"/>
<path d="M657 164.252C648.289 164.252 639.934 160.792 633.774 154.632C627.614 148.472 624.154 140.117 624.154 131.406L657 164.252C657 155.541 653.539 147.186 647.38 141.027C641.22 134.867 632.865 131.406 624.154 131.406" fill="#E6E6E6"/>
<path d="M591.307 164.252L624.154 164.252L624.154 131.406L591.307 131.406L591.307 164.252Z" fill="#747474"/>
<path d="M624.154 131.406C624.154 140.117 620.693 148.472 614.533 154.632C608.373 160.792 600.019 164.252 591.307 164.252L591.307 131.406" fill="#EFEFEF"/>
<path d="M525.594 197.099L591.297 197.099L591.297 131.396L525.594 131.396L525.594 197.099Z" fill="#7E7E7E"/>
<path d="M591.297 131.396C591.297 148.821 584.375 165.533 572.053 177.855C559.731 190.177 543.019 197.099 525.594 197.099L591.297 131.396C573.871 131.396 557.159 138.318 544.838 150.64C532.516 162.961 525.594 179.673 525.594 197.099" fill="#EEEEEE"/>
<path d="M459.901 197.099L525.604 197.099L525.604 131.396L459.901 131.396L459.901 197.099Z" fill="#E7E7E7"/>
<path d="M525.604 131.396C525.604 148.821 518.682 165.533 506.361 177.855C494.039 190.177 477.327 197.099 459.901 197.099L525.604 131.396C508.179 131.396 491.467 138.318 479.145 150.64C466.824 162.961 459.901 179.673 459.901 197.099" fill="#969696"/>
<path d="M394.198 197.099L459.901 197.099L459.901 131.396L394.198 131.396L394.198 197.099Z" fill="#EEEEEE"/>
<path d="M459.901 197.099C442.476 197.099 425.764 190.177 413.442 177.855C401.121 165.533 394.198 148.821 394.198 131.396L459.901 197.099C459.901 179.673 452.979 162.961 440.657 150.64C434.556 144.539 427.313 139.699 419.342 136.397C411.37 133.095 402.827 131.396 394.198 131.396" fill="#616161"/>
<path d="M262.802 197.102L328.502 197.102L328.502 131.403L262.802 131.403L262.802 197.102Z" fill="white"/>
<path d="M295.659 197.099L328.505 197.099L328.505 164.253L295.659 164.253L295.659 197.099Z" fill="#EDEDED"/>
<path d="M328.505 164.253C319.794 164.253 311.439 167.713 305.279 173.873C299.12 180.033 295.659 188.387 295.659 197.099L328.505 197.099" fill="#D0D0D0"/>
<path d="M262.802 197.099L295.648 197.099L295.648 164.253L262.802 164.253L262.802 197.099Z" fill="#EFEFEF"/>
<path d="M295.648 164.253C295.648 172.964 292.188 181.319 286.028 187.478C279.868 193.638 271.513 197.099 262.802 197.099L295.648 164.253C286.937 164.253 278.582 167.713 272.423 173.873C266.263 180.033 262.802 188.387 262.802 197.099" fill="#4F4F4F"/>
<path d="M295.659 164.252L328.505 164.252L328.505 131.406L295.659 131.406L295.659 164.252Z" fill="#636363"/>
<path d="M328.505 164.252C319.794 164.252 311.439 160.792 305.279 154.632C299.12 148.472 295.659 140.117 295.659 131.406L328.505 131.406" fill="#E7E7E7"/>
<path d="M262.802 164.252L295.648 164.252L295.648 131.406L262.802 131.406L262.802 164.252Z" fill="#D8D8D8"/>
<path d="M295.648 164.252C295.648 155.541 292.188 147.186 286.028 141.027C279.868 134.867 271.513 131.406 262.802 131.406L262.802 164.252" fill="#2B2B2B"/>
<path d="M229.956 197.099L262.803 197.099L262.803 164.253L229.956 164.253L229.956 197.099Z" fill="#F2F2F2"/>
<path d="M229.956 164.252L262.803 164.252L262.803 131.406L229.956 131.406L229.956 164.252Z" fill="#CDCDCD"/>
<path d="M131.407 197.099L164.253 197.099L164.253 164.253L131.407 164.253L131.407 197.099Z" fill="#DEDEDE"/>
<path d="M164.253 164.253C155.542 164.253 147.187 167.713 141.027 173.873C134.867 180.033 131.407 188.387 131.407 197.099L164.253 197.099" fill="#D3D3D3"/>
<path d="M65.7031 197.099L131.406 197.099L131.406 131.396L65.7031 131.396L65.7031 197.099Z" fill="#D4D4D4"/>
<path d="M131.406 197.099C122.778 197.099 114.234 195.399 106.263 192.098C98.2913 188.796 91.0482 183.956 84.9471 177.855C78.846 171.754 74.0064 164.511 70.7045 156.539C67.4026 148.568 65.7031 140.024 65.7031 131.396L131.406 131.396" fill="#292929"/>
<path d="M2.28882e-05 197.099L65.7031 197.099L65.7031 131.396L1.71442e-05 131.396L2.28882e-05 197.099Z" fill="#BDBDBD"/>
<path d="M65.7031 197.099C48.2776 197.099 31.5658 190.177 19.244 177.855C6.9223 165.533 1.53856e-05 148.821 1.38623e-05 131.396L65.7031 197.099C65.7031 179.673 58.7808 162.961 46.4591 150.64C34.1374 138.318 17.4256 131.396 1.38623e-05 131.396" fill="#F5F5F5"/>
<path d="M591.3 131.403L657 131.403L657 65.7032L591.3 65.7032L591.3 131.403Z" fill="white"/>
<path d="M624.154 131.406L657 131.406L657 98.5599L624.154 98.5599L624.154 131.406Z" fill="#D4D4D4"/>
<path d="M657 131.406C648.289 131.406 639.934 127.946 633.774 121.786C627.614 115.626 624.154 107.271 624.154 98.5599L657 98.5599" fill="#EBEBEB"/>
<path d="M591.307 131.406L624.154 131.406L624.154 98.5599L591.307 98.5599L591.307 131.406Z" fill="#DADADA"/>
<path d="M624.154 98.5599C624.154 107.271 620.693 115.626 614.533 121.786C608.373 127.946 600.019 131.406 591.307 131.406L591.307 98.5599" fill="#8B8B8B"/>
<path d="M624.154 98.5493L657 98.5493L657 65.703L624.154 65.703L624.154 98.5493Z" fill="#8B8B8B"/>
<path d="M657 98.5493C657 89.8379 653.539 81.4833 647.38 75.3234C641.22 69.1636 632.865 65.703 624.154 65.703L624.154 98.5493" fill="#CCCCCC"/>
<path d="M591.307 98.5493L624.154 98.5493L624.154 65.703L591.307 65.703L591.307 98.5493Z" fill="#DEDEDE"/>
<path d="M624.154 98.5493C624.154 89.8379 620.693 81.4833 614.533 75.3234C608.373 69.1636 600.019 65.703 591.307 65.703L591.307 98.5493" fill="#434343"/>
<path d="M525.594 131.406L591.297 131.406L591.297 65.7031L525.594 65.7031L525.594 131.406Z" fill="#CACACA"/>
<path d="M591.297 65.7031C591.297 83.1287 584.375 99.8405 572.053 112.162C559.731 124.484 543.019 131.406 525.594 131.406L591.297 65.7031C573.871 65.7031 557.159 72.6254 544.838 84.9471C532.516 97.2689 525.594 113.981 525.594 131.406" fill="#B3B3B3"/>
<path d="M459.901 131.403L525.601 131.403L525.601 65.7032L459.901 65.7032L459.901 131.403Z" fill="white"/>
<path d="M492.758 131.406L525.604 131.406L525.604 98.5599L492.758 98.5599L492.758 131.406Z" fill="#FCFCFC"/>
<path d="M525.604 131.406C525.604 122.695 522.144 114.34 515.984 108.18C509.824 102.02 501.47 98.5599 492.758 98.5599L492.758 131.406" fill="#FEFEFE"/>
<path d="M459.901 131.406L492.748 131.406L492.748 98.5599L459.901 98.5599L459.901 131.406Z" fill="#A9A9A9"/>
<path d="M492.748 98.5599C484.036 98.5599 475.682 102.02 469.522 108.18C463.362 114.34 459.901 122.695 459.901 131.406L492.748 131.406" fill="#D5D5D5"/>
<path d="M492.758 98.5493L525.604 98.5493L525.604 65.703L492.758 65.703L492.758 98.5493Z" fill="#282828"/>
<path d="M525.604 65.703C525.604 70.0164 524.755 74.2876 523.104 78.2727C521.454 82.2578 519.034 85.8788 515.984 88.9288C512.934 91.9789 509.313 94.3984 505.328 96.049C501.343 97.6997 497.072 98.5493 492.758 98.5493L525.604 65.703C516.893 65.703 508.538 69.1636 502.379 75.3234C496.219 81.4833 492.758 89.8379 492.758 98.5493" fill="#9F9F9F"/>
<path d="M459.901 98.5493L492.748 98.5493L492.748 65.703L459.901 65.703L459.901 98.5493Z" fill="#E8E8E8"/>
<path d="M492.748 65.703C484.036 65.703 475.682 69.1636 469.522 75.3234C463.362 81.4833 459.901 89.8379 459.901 98.5493L492.748 98.5493" fill="#3A3A3A"/>
<path d="M394.198 131.406L459.901 131.406L459.901 65.7031L394.198 65.7031L394.198 131.406Z" fill="#555555"/>
<path d="M459.901 65.7031C442.476 65.7031 425.764 72.6254 413.442 84.9471C401.121 97.2689 394.198 113.981 394.198 131.406L459.901 131.406" fill="#F9F9F9"/>
<path d="M328.505 131.406L361.352 131.406L361.352 98.5599L328.505 98.5599L328.505 131.406Z" fill="#CDCDCD"/>
<path d="M361.352 131.406C352.64 131.406 344.286 127.946 338.126 121.786C331.966 115.626 328.505 107.271 328.505 98.5599L361.352 98.5599" fill="#454545"/>
<path d="M394.198 65.703C394.198 70.0164 393.349 74.2876 391.698 78.2727C390.047 82.2578 387.628 85.8788 384.578 88.9288C381.528 91.9789 377.907 94.3984 373.922 96.049C369.937 97.6997 365.665 98.5493 361.352 98.5493L361.352 65.703" fill="#848484"/>
<path d="M328.505 98.5493L361.352 98.5493L361.352 65.703L328.505 65.703L328.505 98.5493Z" fill="#E1E1E1"/>
<path d="M361.352 98.5493C361.352 89.8379 357.891 81.4833 351.731 75.3234C345.571 69.1636 337.217 65.703 328.505 65.703L328.505 98.5493" fill="#B3B3B3"/>
<path d="M262.802 131.406L328.505 131.406L328.505 65.7031L262.802 65.7031L262.802 131.406Z" fill="#E0E0E0"/>
<path d="M328.505 65.7031C328.505 83.1287 321.583 99.8405 309.261 112.162C296.94 124.484 280.228 131.406 262.802 131.406L328.505 65.7031C311.08 65.7031 294.368 72.6254 282.046 84.9471C269.725 97.2689 262.802 113.981 262.802 131.406" fill="#7D7D7D"/>
<path d="M197.103 131.403L262.803 131.403L262.803 65.7032L197.103 65.7032L197.103 131.403Z" fill="white"/>
<path d="M229.956 131.406L262.803 131.406L262.803 98.5599L229.956 98.5599L229.956 131.406Z" fill="#FEFEFE"/>
<path d="M262.803 98.5599C254.091 98.5599 245.737 102.02 239.577 108.18C233.417 114.34 229.956 122.695 229.956 131.406L262.803 131.406" fill="#FAFAFA"/>
<path d="M197.11 131.406L229.956 131.406L229.956 98.5599L197.11 98.5599L197.11 131.406Z" fill="#9D9D9D"/>
<path d="M229.956 131.406C221.245 131.406 212.89 127.946 206.73 121.786C200.57 115.626 197.11 107.271 197.11 98.5599L229.956 98.5599" fill="#D6D6D6"/>
<path d="M229.956 98.5493L262.803 98.5493L262.803 65.703L229.956 65.703L229.956 98.5493Z" fill="#D9D9D9"/>
<path d="M262.803 65.703C262.803 70.0164 261.953 74.2876 260.302 78.2727C258.652 82.2578 256.232 85.8788 253.182 88.9288C250.132 91.9789 246.511 94.3984 242.526 96.049C238.541 97.6997 234.27 98.5493 229.956 98.5493L229.956 65.703" fill="#E0E0E0"/>
<path d="M197.11 98.5493L229.956 98.5493L229.956 65.703L197.11 65.703L197.11 98.5493Z" fill="#CCCCCC"/>
<path d="M229.956 98.5493C221.245 98.5493 212.89 95.0887 206.73 88.9288C200.57 82.769 197.11 74.4144 197.11 65.703L229.956 98.5493C229.956 89.8379 226.495 81.4833 220.336 75.3234C214.176 69.1636 205.821 65.703 197.11 65.703" fill="white"/>
<path d="M197.099 131.406C179.674 131.406 162.962 124.484 150.64 112.162C138.318 99.8405 131.396 83.1287 131.396 65.7031L197.099 131.406C197.099 113.981 190.177 97.2689 177.855 84.9471C165.533 72.6254 148.822 65.7031 131.396 65.7031" fill="#E3E3E3"/>
<path d="M98.5599 131.406L131.406 131.406L131.406 98.5599L98.5599 98.5599L98.5599 131.406Z" fill="#CBCBCB"/>
<path d="M131.406 131.406C122.695 131.406 114.34 127.946 108.18 121.786C102.02 115.626 98.5599 107.271 98.5599 98.5599L131.406 98.5599" fill="#D2D2D2"/>
<path d="M98.5599 98.5493L131.406 98.5493L131.406 65.703L98.5599 65.703L98.5599 98.5493Z" fill="#FBFBFB"/>
<path d="M2.28882e-05 131.406L65.7031 131.406L65.7031 65.7031L1.71442e-05 65.7031L2.28882e-05 131.406Z" fill="#818181"/>
<path d="M65.7031 131.406C48.2776 131.406 31.5658 124.484 19.244 112.162C6.9223 99.8405 1.53856e-05 83.1287 1.38623e-05 65.7031L65.7031 131.406C65.7031 113.981 58.7808 97.2689 46.4591 84.9471C34.1374 72.6254 17.4256 65.7031 1.38623e-05 65.7031" fill="#F1F1F1"/>
<path d="M591.297 65.7031L657 65.7031L657 1.52588e-05L591.297 2.10027e-05L591.297 65.7031Z" fill="#D5D5D5"/>
<path d="M657 1.87964e-05C657 8.62827 655.301 17.172 651.999 25.1435C648.697 33.115 643.857 40.358 637.756 46.4591C625.434 58.7809 608.722 65.7031 591.297 65.7031L657 1.87964e-05C639.574 2.03198e-05 622.863 6.92229 610.541 19.244C598.219 31.5657 591.297 48.2776 591.297 65.7031" fill="#E4E4E4"/>
<path d="M525.594 65.7031L591.297 65.7031L591.297 1.52588e-05L525.594 2.10027e-05L525.594 65.7031Z" fill="#7E7E7E"/>
<path d="M591.297 65.7031C582.669 65.7031 574.125 64.0037 566.153 60.7018C558.182 57.3999 550.939 52.5602 544.838 46.4591C538.737 40.358 533.897 33.115 530.595 25.1435C527.293 17.1721 525.594 8.62828 525.594 2.45404e-05L591.297 1.87964e-05" fill="#CFCFCF"/>
<path d="M459.901 65.7031L525.601 65.7031L525.601 0.00347137L459.901 0.00347712L459.901 65.7031Z" fill="white"/>
<path d="M492.758 65.7031L525.604 65.7031L525.604 32.8568L492.758 32.8568L492.758 65.7031Z" fill="#F3F3F3"/>
<path d="M525.604 65.7031C516.893 65.7031 508.539 62.2425 502.379 56.0826C496.219 49.9228 492.758 41.5682 492.758 32.8568L525.604 65.7031C525.604 56.9917 522.144 48.6371 515.984 42.4772C509.824 36.3174 501.47 32.8568 492.758 32.8568" fill="#D2D2D2"/>
<path d="M459.901 65.7031L492.748 65.7031L492.748 32.8568L459.901 32.8568L459.901 65.7031Z" fill="#808080"/>
<path d="M492.748 65.7031C492.748 56.9917 489.287 48.6371 483.127 42.4772C476.967 36.3174 468.613 32.8568 459.901 32.8568L459.901 65.7031" fill="#CECECE"/>
<path d="M492.758 32.8567L525.604 32.8567L525.604 0.0103302L492.758 0.0103331L492.758 32.8567Z" fill="#AFAFAF"/>
<path d="M525.604 0.0103302C521.291 0.0103306 517.02 0.859928 513.035 2.51061C509.05 4.1613 505.429 6.58075 502.379 9.63081C499.329 12.6809 496.909 16.3018 495.258 20.2869C493.608 24.272 492.758 28.5432 492.758 32.8567L525.604 32.8567" fill="#EAEAEA"/>
<path d="M459.901 32.8567L492.748 32.8567L492.748 0.0103302L459.901 0.0103331L459.901 32.8567Z" fill="#ECECEC"/>
<path d="M492.748 32.8567C492.748 28.5432 491.898 24.272 490.247 20.2869C488.597 16.3018 486.177 12.6809 483.127 9.63081C480.077 6.58075 476.456 4.1613 472.471 2.51061C468.486 0.859929 464.215 0.0103327 459.901 0.0103331L459.901 32.8567" fill="#CACACA"/>
<path d="M394.202 65.7031L459.901 65.7031L459.901 0.00347137L394.202 0.00347712L394.202 65.7031Z" fill="white"/>
<path d="M427.055 65.7031L459.901 65.7031L459.901 32.8568L427.055 32.8568L427.055 65.7031Z" fill="#EEEEEE"/>
<path d="M459.901 32.8568C451.19 32.8568 442.835 36.3174 436.675 42.4772C430.516 48.6371 427.055 56.9917 427.055 65.7031L459.901 65.7031" fill="#E8E8E8"/>
<path d="M394.208 65.7031L427.055 65.7031L427.055 32.8568L394.208 32.8568L394.208 65.7031Z" fill="#CECECE"/>
<path d="M427.055 65.7031C422.741 65.7031 418.47 64.8535 414.485 63.2028C410.5 61.5522 406.879 59.1327 403.829 56.0826C400.779 53.0326 398.359 49.4116 396.709 45.4265C395.058 41.4414 394.208 37.1702 394.208 32.8568L427.055 65.7031C427.055 56.9917 423.594 48.6371 417.434 42.4772C411.274 36.3174 402.92 32.8568 394.208 32.8568" fill="#FCFCFC"/>
<path d="M427.055 32.8567L459.901 32.8567L459.901 0.0103302L427.055 0.0103331L427.055 32.8567Z" fill="#F8F8F8"/>
<path d="M459.901 0.0103302C451.19 0.010331 442.835 3.47093 436.675 9.63081C430.516 15.7907 427.055 24.1453 427.055 32.8567L459.901 32.8567" fill="#FEFEFE"/>
<path d="M394.208 32.8567L427.055 32.8567L427.055 0.0103302L394.208 0.0103331L394.208 32.8567Z" fill="#D6D6D6"/>
<path d="M427.055 0.0103302C422.741 0.0103306 418.47 0.859928 414.485 2.51061C410.5 4.1613 406.879 6.58075 403.829 9.63081C400.779 12.6809 398.359 16.3018 396.709 20.2869C395.058 24.272 394.208 28.5432 394.208 32.8567L427.055 32.8567" fill="#DDDDDD"/>
<path d="M328.495 65.7031L394.198 65.7031L394.198 1.52588e-05L328.495 2.10027e-05L328.495 65.7031Z" fill="#626262"/>
<path d="M394.198 65.7031C394.198 48.2776 387.276 31.5657 374.954 19.244C362.633 6.92229 345.921 2.3017e-05 328.495 2.45404e-05L328.495 65.7031" fill="#FAFAFA"/>
<path d="M262.802 65.7031L328.505 65.7031L328.505 1.52588e-05L262.802 2.10027e-05L262.802 65.7031Z" fill="#CCCCCC"/>
<path d="M328.505 1.87964e-05C328.505 8.62827 326.806 17.172 323.504 25.1435C320.202 33.115 315.362 40.358 309.261 46.4591C296.94 58.7809 280.228 65.7031 262.802 65.7031L328.505 1.87964e-05C311.08 2.03198e-05 294.368 6.92229 282.046 19.244C269.725 31.5657 262.802 48.2776 262.802 65.7031" fill="#E2E2E2"/>
<path d="M197.1 65.7031L262.803 65.7031L262.803 1.52588e-05L197.1 2.10027e-05L197.1 65.7031Z" fill="#CBCBCB"/>
<path d="M262.803 65.7031C254.174 65.7031 245.631 64.0037 237.659 60.7018C229.688 57.3999 222.445 52.5602 216.344 46.4591C210.243 40.358 205.403 33.115 202.101 25.1435C198.799 17.1721 197.1 8.62828 197.1 2.45404e-05L262.803 65.7031C262.803 57.0749 261.103 48.5311 257.801 40.5596C254.499 32.5882 249.66 25.3451 243.559 19.244C237.458 13.1429 230.215 8.30327 222.243 5.00138C214.272 1.69949 205.728 2.37861e-05 197.1 2.45404e-05" fill="#EFEFEF"/>
<path d="M131.403 65.7031L197.103 65.7031L197.103 0.00347137L131.403 0.00347712L131.403 65.7031Z" fill="white"/>
<path d="M164.253 65.7031L197.099 65.7031L197.099 32.8568L164.253 32.8568L164.253 65.7031Z" fill="#626262"/>
<path d="M197.099 65.7031C188.388 65.7031 180.033 62.2425 173.873 56.0826C167.713 49.9228 164.253 41.5682 164.253 32.8568L197.099 65.7031C197.099 56.9917 193.639 48.6371 187.479 42.4772C181.319 36.3174 172.964 32.8568 164.253 32.8568" fill="#E3E3E3"/>
<path d="M131.407 65.7031L164.253 65.7031L164.253 32.8568L131.407 32.8568L131.407 65.7031Z" fill="#DEDEDE"/>
<path d="M164.253 65.7031C155.542 65.7031 147.187 62.2425 141.027 56.0826C134.867 49.9228 131.407 41.5682 131.407 32.8568L164.253 32.8568" fill="#E2E2E2"/>
<path d="M164.253 32.8567L197.099 32.8567L197.099 0.0103302L164.253 0.0103331L164.253 32.8567Z" fill="#F8F8F8"/>
<path d="M197.099 32.8567C188.388 32.8567 180.033 29.3961 173.873 23.2362C167.713 17.0763 164.253 8.72173 164.253 0.0103331L197.099 0.0103302" fill="#737373"/>
<path d="M131.407 32.8567L164.253 32.8567L164.253 0.0103302L131.407 0.0103331L131.407 32.8567Z" fill="#292929"/>
<path d="M164.253 0.0103302C164.253 8.72173 160.792 17.0763 154.632 23.2362C148.473 29.3961 140.118 32.8567 131.407 32.8567L164.253 0.0103302C159.939 0.0103306 155.668 0.859928 151.683 2.51061C147.698 4.1613 144.077 6.58075 141.027 9.63081C137.977 12.6809 135.558 16.3018 133.907 20.2869C132.256 24.272 131.407 28.5432 131.407 32.8567" fill="#FEFEFE"/>
<path d="M65.7037 65.7031L131.403 65.7031L131.403 0.00347137L65.7037 0.00347712L65.7037 65.7031Z" fill="white"/>
<path d="M98.5599 65.7031L131.406 65.7031L131.406 32.8568L98.5599 32.8568L98.5599 65.7031Z" fill="#585858"/>
<path d="M131.406 32.8568C131.406 41.5682 127.946 49.9228 121.786 56.0826C115.626 62.2425 107.271 65.7031 98.5599 65.7031L98.5599 32.8568" fill="#4A4A4A"/>
<path d="M98.5498 65.7031C89.8384 65.7031 81.4838 62.2425 75.3239 56.0826C69.164 49.9228 65.7034 41.5682 65.7034 32.8568L98.5498 32.8568" fill="#F8F8F8"/>
<path d="M98.5599 32.8567L131.406 32.8567L131.406 0.0103302L98.5599 0.0103331L98.5599 32.8567Z" fill="#DEDEDE"/>
<path d="M131.406 0.0103302C127.093 0.0103306 122.822 0.859928 118.836 2.51061C114.851 4.1613 111.23 6.58075 108.18 9.63081C105.13 12.6809 102.711 16.3018 101.06 20.2869C99.4095 24.272 98.5599 28.5432 98.5599 32.8567L131.406 32.8567" fill="#E9E9E9"/>
<path d="M98.5498 0.0103302C98.5498 8.72173 95.0892 17.0763 88.9293 23.2362C82.7694 29.3961 74.4148 32.8567 65.7034 32.8567L65.7034 0.0103331" fill="#585858"/>
<path d="M0.00345612 65.7031L65.7031 65.7031L65.7031 0.00347137L0.00345037 0.00347712L0.00345612 65.7031Z" fill="white"/>
<path d="M32.8568 65.7031L65.7031 65.7031L65.7031 32.8568L32.8567 32.8568L32.8568 65.7031Z" fill="#7C7C7C"/>
<path d="M65.7031 32.8568C65.7031 37.1702 64.8535 41.4414 63.2029 45.4265C61.5522 49.4116 59.1327 53.0326 56.0826 56.0826C53.0326 59.1327 49.4116 61.5522 45.4265 63.2028C41.4414 64.8535 37.1702 65.7031 32.8567 65.7031L65.7031 32.8568C56.9917 32.8568 48.6371 36.3174 42.4772 42.4772C36.3173 48.6371 32.8567 56.9917 32.8567 65.7031" fill="#DCDCDC"/>
<path d="M0.0106201 65.7031L32.8569 65.7031L32.8569 32.8568L0.0106172 32.8568L0.0106201 65.7031Z" fill="#696969"/>
<path d="M32.8569 32.8568C32.8569 41.5682 29.3963 49.9228 23.2365 56.0826C17.0766 62.2425 8.72202 65.7031 0.010622 65.7031L32.8569 32.8568C24.1455 32.8568 15.7909 36.3174 9.63104 42.4772C3.47115 48.6371 0.0106212 56.9917 0.010622 65.7031" fill="#464646"/>
<path d="M32.8568 32.8567L65.7031 32.8567L65.7031 0.0103302L32.8567 0.0103331L32.8568 32.8567Z" fill="#EBEBEB"/>
<path d="M65.7031 0.0103302C61.3897 0.0103306 57.1185 0.859928 53.1334 2.51061C49.1483 4.1613 45.5273 6.58075 42.4772 9.63081C39.4272 12.6809 37.0078 16.3018 35.3571 20.2869C33.7064 24.272 32.8567 28.5432 32.8567 32.8567L65.7031 32.8567" fill="#E6E6E6"/>
<path d="M0.0106201 32.8567L32.8569 32.8567L32.8569 0.0103302L0.0106172 0.0103331L0.0106201 32.8567Z" fill="#F9F9F9"/>
<path d="M32.8569 32.8567C32.8569 28.5432 32.0074 24.272 30.3567 20.2869C28.706 16.3018 26.2865 12.6809 23.2365 9.63081C20.1864 6.58075 16.5655 4.1613 12.5804 2.51061C8.59527 0.859929 4.32406 0.0103327 0.0106191 0.0103331L0.010622 32.8567" fill="#909090"/>
</svg>
